<svg width="20" height="20" viewBox="0 0 20 20" fill="none" xmlns="http://www.w3.org/2000/svg">
<g clip-path="url(#clip0_744_5308)">
<path d="M13.8241 2.7538C13.7704 2.1525 13.4936 1.42657 12.8777 1.19215C12.7309 1.13594 12.6 1.13594 12.4945 1.1355C12.3704 1.1355 12.3374 1.13158 12.2962 1.09411C12.252 1.05446 12.2121 0.988664 12.1696 0.918947C12.0923 0.79215 11.9962 0.633978 11.8159 0.538989C11.6125 0.431364 11.409 0.423521 11.2301 0.416549C11.1378 0.413063 11.0511 0.409578 10.9721 0.393021C10.903 0.378206 10.8618 0.34814 10.7824 0.28583C10.6369 0.172105 10.4378 0.0161133 9.98072 0.0161133C9.56913 0.0161133 9.34853 0.167312 9.18759 0.277551C9.15669 0.298902 9.12707 0.318944 9.09918 0.336374C8.97986 0.409576 8.92106 0.410449 8.79274 0.411321C8.71849 0.412192 8.62536 0.413063 8.51033 0.42962C8.24124 0.469272 8.00905 0.591276 7.83909 0.783869C7.77814 0.852714 7.74038 0.929404 7.70733 0.997378C7.69145 1.03006 7.66742 1.07886 7.65626 1.09106C7.6245 1.12025 7.57214 1.12461 7.45969 1.12766C7.37643 1.12984 7.28201 1.13245 7.18244 1.1599C6.97643 1.21655 6.78845 1.33725 6.62321 1.51938C6.35497 1.81393 6.18287 2.25228 6.1378 2.7538C6.06913 3.52156 6.22836 4.39084 6.6245 5.41176C6.8069 5.88191 7.03179 6.36078 7.30261 6.85533H7.30304C7.57471 7.35206 7.8936 7.86404 8.26269 8.39868C8.37299 8.5586 8.4863 8.71764 8.60089 8.87319C8.65239 8.94378 8.70476 9.01394 8.75712 9.08322C8.80862 9.15206 8.88845 9.18692 8.96827 9.18343C9.01033 9.18169 9.05239 9.16905 9.09059 9.14465C9.09617 9.14117 9.10175 9.13768 9.10733 9.13463C9.13051 9.12025 9.15411 9.10631 9.17815 9.09324C9.19016 9.08627 9.20218 9.07973 9.2142 9.07407C9.22621 9.06753 9.23866 9.06099 9.25068 9.05533C9.26999 9.04618 9.2893 9.03703 9.30862 9.02875C9.32278 9.02178 9.33737 9.01568 9.35196 9.01001C9.37428 9.00086 9.39703 8.99215 9.41978 8.98431C9.43351 8.97908 9.44767 8.97428 9.46141 8.96949H9.46227C9.48072 8.96339 9.49918 8.95729 9.51763 8.95206C9.51849 8.95206 9.51935 8.95206 9.52021 8.95119C9.53823 8.94596 9.55626 8.94117 9.57428 8.93681C9.59917 8.93027 9.62407 8.92461 9.64939 8.91982C9.66913 8.91546 9.68845 8.91197 9.70819 8.90892C9.71892 8.90675 9.72965 8.90544 9.74038 8.9037C9.76312 8.90021 9.78587 8.8976 9.80905 8.89498C9.84338 8.8915 9.87772 8.88888 9.91248 8.88757C9.93523 8.8867 9.95797 8.88627 9.98115 8.88627C10.0043 8.88627 10.0271 8.88626 10.0498 8.88757C10.0846 8.88888 10.1189 8.8915 10.1533 8.89498C10.1764 8.8976 10.1992 8.90021 10.2219 8.9037C10.2327 8.90544 10.2434 8.90675 10.2541 8.90892C10.2739 8.91197 10.2936 8.91546 10.3129 8.91982C10.3382 8.92461 10.3631 8.93027 10.388 8.93681C10.406 8.94117 10.4241 8.94596 10.4421 8.95119C10.443 8.95163 10.4438 8.95206 10.4447 8.95206C10.4631 8.95729 10.4816 8.96339 10.5 8.96949H10.5009C10.5146 8.97428 10.5288 8.97908 10.5425 8.98431C10.5786 8.99694 10.6142 9.01088 10.649 9.02657C10.6575 9.03006 10.6657 9.03354 10.6743 9.0379C10.6992 9.04879 10.7236 9.06099 10.7481 9.07407C10.7601 9.07973 10.7721 9.08627 10.7842 9.09324C10.7962 9.09977 10.8078 9.10675 10.8198 9.11328C10.8374 9.1233 10.8545 9.13376 10.8717 9.14465C10.9095 9.16905 10.952 9.18169 10.9936 9.18343C10.9975 9.18343 11.0009 9.18343 11.0048 9.18343C11.0811 9.18343 11.1558 9.14814 11.2052 9.08278C11.2575 9.0135 11.3095 8.94335 11.3614 8.87276C11.476 8.7172 11.5889 8.55816 11.6996 8.39825C12.0683 7.86404 12.3867 7.35206 12.6593 6.85577V6.85489C12.9305 6.36078 13.155 5.88104 13.3374 5.41132C13.7335 4.39041 13.8927 3.52112 13.8236 2.75337L13.8241 2.7538ZM12.8683 5.22439C12.5176 6.12897 12 7.07102 11.2863 8.105C11.1717 8.27102 11.0545 8.43572 10.9357 8.5965C10.894 8.57646 10.8524 8.55729 10.8095 8.53942C10.7949 8.53332 10.7807 8.52766 10.7661 8.522C10.7468 8.51459 10.7275 8.50718 10.7082 8.50065C10.6889 8.49367 10.6696 8.48714 10.6498 8.4806C10.6301 8.47407 10.6108 8.46797 10.591 8.4623C10.5133 8.43921 10.4344 8.42047 10.3537 8.40653L10.3447 8.40522C10.3344 8.40348 10.3236 8.40174 10.3133 8.39999C10.3056 8.39869 10.2979 8.39738 10.2897 8.39651C10.2696 8.39346 10.249 8.39084 10.2288 8.38866C10.2121 8.38648 10.1953 8.38474 10.1781 8.38343C10.1661 8.38213 10.1537 8.38126 10.1412 8.38038C10.1254 8.37908 10.1095 8.37821 10.0936 8.37733C10.0563 8.37516 10.0189 8.37428 9.98115 8.37428C9.94338 8.37428 9.90604 8.37516 9.8687 8.37733C9.85154 8.37821 9.83437 8.37908 9.81763 8.38038C9.81548 8.38038 9.81291 8.38082 9.81076 8.38082C9.80132 8.38169 9.79145 8.38256 9.78201 8.38343C9.7657 8.38518 9.74982 8.38648 9.73351 8.38866C9.71334 8.39084 9.6936 8.39346 9.67385 8.39651C9.66527 8.39738 9.65712 8.39869 9.64896 8.39999C9.64038 8.4013 9.63179 8.40261 9.62321 8.40435C9.6172 8.40435 9.61119 8.40609 9.60561 8.4074C9.54681 8.41742 9.48845 8.43049 9.43051 8.44574C9.41076 8.45097 9.39102 8.45664 9.37128 8.4623C9.35154 8.46797 9.33179 8.47407 9.31248 8.4806C9.29274 8.48714 9.27342 8.49367 9.25411 8.50065C9.2348 8.50718 9.21548 8.51459 9.19617 8.522C9.18158 8.52766 9.16699 8.53332 9.15282 8.53942C9.10991 8.55729 9.06785 8.57646 9.02664 8.5965C8.90776 8.43572 8.79016 8.27102 8.676 8.105C7.96227 7.07102 7.44467 6.12897 7.0936 5.22439C6.72707 4.2793 6.57857 3.48627 6.64038 2.79999C6.66055 2.57428 6.73308 2.15337 6.9936 1.86666C7.0936 1.75642 7.20175 1.68496 7.3142 1.65402C7.35583 1.64269 7.41248 1.64095 7.47299 1.63921C7.61935 1.63529 7.81978 1.63006 7.99274 1.47232C8.07471 1.39825 8.12149 1.30195 8.15926 1.22483C8.17729 1.18823 8.19961 1.14248 8.2142 1.12592C8.32793 0.997378 8.47729 0.952061 8.58201 0.936375C8.66398 0.92461 8.72879 0.924175 8.79746 0.923303C8.95754 0.921996 9.12278 0.920254 9.36012 0.774284C9.39918 0.750755 9.43523 0.725917 9.46999 0.701952C9.61162 0.604784 9.72321 0.528096 9.98115 0.528096C10.2661 0.528096 10.358 0.600427 10.4747 0.691495C10.5678 0.764261 10.6837 0.85533 10.87 0.89411C10.9897 0.919382 11.1022 0.923738 11.2108 0.928096C11.355 0.93376 11.4799 0.938553 11.5833 0.993019C11.6399 1.02308 11.6867 1.09977 11.7408 1.18823C11.7975 1.28147 11.8614 1.38692 11.9605 1.47624C12.149 1.64705 12.3485 1.64749 12.494 1.64749C12.5751 1.64792 12.6391 1.64792 12.7005 1.67145C13.0983 1.82265 13.2837 2.37385 13.3219 2.79999C13.3833 3.48627 13.2352 4.2793 12.8683 5.22439Z" fill="#338C9A"/>
<path d="M12.8682 5.2248C12.5176 6.12937 12 7.07142 11.2862 8.10541C11.1716 8.27142 11.0545 8.43613 10.9356 8.59691C10.894 8.57687 10.8523 8.5577 10.8094 8.53983C10.7952 8.53373 10.7806 8.52807 10.7661 8.5224C10.7472 8.515 10.7279 8.50759 10.7081 8.50105C10.6888 8.49364 10.6695 8.48711 10.6497 8.48101C10.6304 8.47404 10.6107 8.46794 10.5909 8.46271C10.5133 8.43961 10.4343 8.42088 10.3536 8.40693L10.3446 8.40563C10.3343 8.40345 10.324 8.4017 10.3133 8.4004L11.0609 5.89321C11.1013 5.7577 11.0257 5.61478 10.8927 5.57382C10.7592 5.53286 10.6184 5.60955 10.5781 5.74463L9.98108 7.74724L9.38408 5.74463C9.34374 5.60955 9.20297 5.53286 9.06949 5.57382C8.93601 5.61478 8.86091 5.7577 8.90125 5.89321L9.64889 8.4004C9.64031 8.4017 9.63172 8.40301 9.62314 8.40476C9.61713 8.40476 9.61112 8.4065 9.60554 8.40781C9.54631 8.41783 9.48795 8.43047 9.43044 8.44615C9.41069 8.45094 9.39095 8.45661 9.37121 8.46271C9.35147 8.46794 9.33172 8.47404 9.31241 8.48101C9.29267 8.48711 9.27335 8.49364 9.25404 8.50105C9.2343 8.50759 9.21498 8.515 9.1961 8.5224C9.18151 8.52807 9.16692 8.53373 9.15275 8.53983C9.10983 8.5577 9.06777 8.57687 9.02657 8.59691C8.90769 8.43613 8.79009 8.27142 8.67593 8.10541C7.96219 7.07142 7.4446 6.12937 7.09353 5.2248C6.727 4.2797 6.5785 3.48667 6.64031 2.8004C6.66048 2.57469 6.73301 2.15377 6.99353 1.86706C7.09353 1.75682 7.20168 1.68536 7.31413 1.65443C7.35576 1.6431 7.41241 1.64136 7.47292 1.63961C7.61928 1.63569 7.81971 1.63046 7.99267 1.47273C8.07464 1.39866 8.12142 1.30236 8.15919 1.22524C8.17722 1.18863 8.19953 1.14288 8.21413 1.12632C8.32786 0.997783 8.47722 0.952468 8.58194 0.936782C8.66391 0.925017 8.72872 0.924582 8.79739 0.923711C8.95747 0.922404 9.12271 0.920661 9.36005 0.774692C9.3991 0.751162 9.43516 0.726324 9.46992 0.702359C9.61155 0.605191 9.72314 0.528503 9.98108 0.528503C10.2661 0.528503 10.3579 0.600835 10.4746 0.691902C10.5678 0.764669 10.6837 0.855738 10.8699 0.894518C10.9897 0.91979 11.1021 0.924146 11.2107 0.928503C11.3549 0.934168 11.4798 0.93896 11.5832 0.993426C11.6399 1.02349 11.6867 1.10018 11.7407 1.18864C11.7974 1.28188 11.8613 1.38733 11.9605 1.47665C12.1489 1.64746 12.3485 1.64789 12.494 1.64789C12.5751 1.64833 12.639 1.64833 12.7004 1.67186C13.0982 1.82306 13.2837 2.37426 13.3219 2.8004C13.3832 3.48667 13.2352 4.2797 12.8682 5.2248Z" fill="url(#paint0_linear_744_5308)"/>
<path d="M8.94028 8.94902C8.89135 8.87712 8.84199 8.80479 8.79135 8.73246C8.68105 8.57429 8.56732 8.41612 8.45144 8.25969C8.06474 7.73812 7.68363 7.27233 7.30294 6.85621H7.30251C6.92311 6.44139 6.54414 6.07669 6.16002 5.75512C5.32568 5.05708 4.56045 4.63486 3.82011 4.46361C3.6347 4.42091 3.43942 4.39825 3.2553 4.39825C2.73169 4.39825 2.31968 4.57037 2.06474 4.89499C1.96646 5.01961 1.92611 5.14597 1.8935 5.24749C1.85487 5.36732 1.84114 5.39825 1.7935 5.42658C1.74242 5.45664 1.66817 5.47494 1.59006 5.49455C1.44714 5.52984 1.26946 5.57429 1.12483 5.71852C0.960878 5.88191 0.890921 6.07538 0.829119 6.24662C0.79693 6.3342 0.767316 6.41743 0.727402 6.48802C0.692208 6.55033 0.651007 6.58083 0.568603 6.63791C0.416672 6.74335 0.208947 6.88758 0.0677451 7.32854C-0.0592936 7.72636 0.014097 7.98605 0.0677451 8.17516C0.0780455 8.21176 0.0879165 8.24662 0.0956418 8.2793C0.127401 8.41699 0.109805 8.47364 0.0711786 8.59826C0.048861 8.67015 0.0209641 8.76034 0.000792384 8.87668C-0.0455595 9.14858 -0.00264135 9.41045 0.125256 9.63398C0.170749 9.71416 0.231264 9.77429 0.284912 9.82745C0.310234 9.85272 0.348861 9.89063 0.356586 9.90545C0.374183 9.9451 0.361737 9.99695 0.329977 10.1068C0.306372 10.1878 0.279333 10.2797 0.274183 10.3843C0.263882 10.6004 0.319247 10.8192 0.43856 11.0353C0.631694 11.3847 0.989204 11.6863 1.44457 11.8845C2.01796 12.1338 2.69135 12.254 3.50337 12.254C3.68963 12.254 3.87976 12.2488 4.08534 12.2357C4.58363 12.2048 5.10337 12.1355 5.65187 12.0261H5.6523C6.19993 11.9172 6.77633 11.7691 7.38963 11.5782C7.57332 11.5211 7.75659 11.461 7.93727 11.3987C8.02011 11.3704 8.10208 11.3416 8.18362 11.3124C8.26388 11.2837 8.32139 11.2174 8.34242 11.139C8.35229 11.1028 8.35444 11.0641 8.34757 11.0253C8.34199 11.0022 8.33684 10.9795 8.33212 10.9564C8.32912 10.9425 8.32611 10.9285 8.32397 10.9146C8.32268 10.9102 8.32182 10.9059 8.32139 10.9011C8.31882 10.8867 8.31624 10.8719 8.3141 10.8571C8.31152 10.8401 8.30938 10.8227 8.30723 10.8057C8.30508 10.7887 8.30337 10.7712 8.30165 10.7542C8.30036 10.7386 8.29908 10.7224 8.29822 10.7068C8.29693 10.688 8.29607 10.6693 8.29564 10.6505C8.29521 10.6335 8.29478 10.6161 8.29478 10.5987C8.29478 10.5669 8.29564 10.5355 8.29736 10.5041C8.29822 10.4885 8.29908 10.4732 8.30036 10.4575C8.30165 10.4418 8.30337 10.4266 8.30508 10.4109C8.30637 10.3969 8.30809 10.3834 8.30981 10.3699C8.31023 10.3673 8.31066 10.3647 8.31109 10.3621C8.31281 10.349 8.31453 10.3355 8.3171 10.3224C8.31796 10.3163 8.31882 10.3102 8.32011 10.3046C8.32182 10.2924 8.32397 10.2802 8.32654 10.2684C8.32654 10.2675 8.32697 10.2671 8.32697 10.2662C8.32955 10.2532 8.33169 10.2396 8.33513 10.2266C8.33899 10.2078 8.34328 10.1895 8.348 10.1712C8.35487 10.1447 8.36217 10.1185 8.37032 10.0924C8.37032 10.0915 8.37075 10.0911 8.37075 10.0902C8.37161 10.088 8.37204 10.0858 8.3729 10.0837C8.37375 10.0806 8.37461 10.078 8.3759 10.0749C8.37676 10.071 8.37805 10.0667 8.37976 10.0627C8.38062 10.0588 8.38234 10.0545 8.38362 10.0501C8.39435 10.0179 8.40637 9.98562 8.41882 9.95425C8.42354 9.94248 8.42826 9.93115 8.43341 9.91939C8.43684 9.91111 8.44028 9.90283 8.44414 9.89499C8.44886 9.88366 8.45401 9.87277 8.45916 9.86187C8.46088 9.85839 8.46259 9.8549 8.46388 9.85141C8.46903 9.84096 8.47418 9.8305 8.47976 9.82004C8.48577 9.80784 8.49178 9.79564 8.49865 9.78344C8.5068 9.76732 8.51581 9.75163 8.52526 9.73595C8.53298 9.72157 8.54114 9.70762 8.55015 9.69411C8.55873 9.6793 8.56774 9.66492 8.57762 9.65098C8.58663 9.6366 8.59607 9.62222 8.60637 9.60828C8.62955 9.57473 8.65401 9.54205 8.68019 9.51024C8.68878 9.49978 8.69779 9.48932 8.70637 9.47886C8.73255 9.44793 8.76002 9.41786 8.7892 9.38867C8.79865 9.37908 8.80852 9.3695 8.81839 9.35991C8.82783 9.35032 8.83813 9.34074 8.848 9.33202C8.86345 9.31721 8.87933 9.30327 8.89521 9.28976C8.92955 9.26056 8.95401 9.22396 8.96817 9.18388C8.9965 9.10806 8.98835 9.02004 8.94028 8.94902ZM4.05444 11.7251C3.85959 11.7368 3.67933 11.742 3.50337 11.742C2.76088 11.742 2.15272 11.6353 1.64328 11.4135C1.43813 11.3246 1.06603 11.1251 0.878475 10.7852C0.805942 10.6545 0.772466 10.5281 0.778046 10.4096C0.780192 10.366 0.796501 10.3107 0.813668 10.2519C0.85487 10.1094 0.911951 9.91416 0.817959 9.69847C0.773324 9.59651 0.698217 9.52157 0.637273 9.46144C0.608518 9.43268 0.572466 9.39695 0.561736 9.37734C0.476329 9.22789 0.479762 9.07015 0.497788 8.96383C0.511951 8.88148 0.531693 8.8183 0.552294 8.75207C0.599934 8.59695 0.649719 8.43704 0.586629 8.16253C0.576329 8.11765 0.563882 8.07494 0.552294 8.03398C0.505084 7.8671 0.467745 7.73551 0.547573 7.48671C0.635556 7.21176 0.731694 7.14509 0.853153 7.06056C0.950149 6.99346 1.07118 6.90936 1.16517 6.74161C1.22611 6.63398 1.26474 6.52679 1.30208 6.42309C1.35229 6.2854 1.39521 6.16645 1.47848 6.08366C1.52397 6.03791 1.61023 6.01656 1.7098 5.99172C1.81453 5.96601 1.93298 5.93638 2.04757 5.86884C2.2656 5.73943 2.32783 5.54684 2.3729 5.40653C2.39779 5.32854 2.41796 5.26666 2.45873 5.21438C2.65616 4.96296 3.00079 4.91024 3.2553 4.91024C3.40251 4.91024 3.55916 4.92854 3.70809 4.96296C4.36989 5.1159 5.06732 5.50414 5.83899 6.15033C6.57805 6.76863 7.30079 7.55947 8.04886 8.56775C8.16903 8.72985 8.28706 8.89455 8.40122 9.05882C8.35659 9.10588 8.31453 9.15468 8.27547 9.20479C8.23813 9.25054 8.2038 9.2976 8.17204 9.34597C8.11667 9.42701 8.06775 9.51154 8.0244 9.59869C8.01796 9.61089 8.01238 9.62309 8.0068 9.63529C7.99908 9.65141 7.99178 9.66797 7.98405 9.68453C7.97719 9.70065 7.96989 9.71721 7.96302 9.73377C7.95659 9.74902 7.95058 9.7647 7.94414 9.78039C7.93813 9.79608 7.93212 9.81176 7.92611 9.82745C7.92568 9.82919 7.92483 9.8305 7.9244 9.83224C7.92354 9.83529 7.92268 9.83791 7.92139 9.84096C7.91624 9.85577 7.91109 9.87102 7.90594 9.88627C7.89993 9.90327 7.89435 9.9207 7.8892 9.93812C7.88448 9.95381 7.87976 9.96993 7.87504 9.98562C7.87118 9.99956 7.86732 10.0135 7.86388 10.027C7.85659 10.054 7.85015 10.0806 7.84457 10.1081C7.84071 10.1229 7.8377 10.1381 7.8347 10.1534V10.1542C7.83126 10.1712 7.82783 10.1887 7.82483 10.2057C7.82268 10.2174 7.82053 10.2296 7.81882 10.2418C7.81753 10.2479 7.81667 10.254 7.81581 10.2606C7.81367 10.2745 7.81152 10.2885 7.80981 10.3024C7.80852 10.3133 7.80723 10.3242 7.80594 10.3355C7.8038 10.3512 7.80208 10.3673 7.80079 10.3834C7.79908 10.3983 7.79822 10.4131 7.79693 10.4279C7.79564 10.4466 7.79435 10.4654 7.7935 10.4845C7.7935 10.4863 7.7935 10.4885 7.7935 10.4906C7.79178 10.5264 7.79092 10.5625 7.79092 10.5987C7.79092 10.6196 7.79092 10.641 7.79221 10.6619C7.79221 10.6706 7.79264 10.6793 7.79307 10.688V10.6946C7.7935 10.7089 7.79435 10.7229 7.79521 10.7373C7.79564 10.7434 7.79607 10.7495 7.7965 10.7556C7.79993 10.8044 7.80508 10.8527 7.81152 10.9015C7.62397 10.9664 7.43341 11.0288 7.24242 11.088C6.05315 11.4575 5.01066 11.6654 4.05487 11.7251H4.05444Z" fill="#338C9A"/>
<path d="M5.55572 8.16599C5.47589 8.28189 5.50421 8.44137 5.61838 8.52242L7.30979 9.71763L5.24928 9.67536C5.11065 9.67187 4.9952 9.78516 4.9922 9.92634C4.98962 10.068 5.09992 10.1852 5.23941 10.1882L7.81881 10.2418C7.81752 10.2479 7.81666 10.254 7.8158 10.2605C7.81365 10.2745 7.81151 10.2884 7.80979 10.3024C7.80851 10.3133 7.80722 10.3242 7.80593 10.3355C7.80378 10.3512 7.80207 10.3673 7.80078 10.3834C7.79906 10.3982 7.79821 10.413 7.79692 10.4279C7.79563 10.4466 7.79434 10.4653 7.79348 10.4845C7.79348 10.4863 7.79348 10.4884 7.79348 10.4906C7.79177 10.5263 7.79091 10.5625 7.79091 10.5987C7.79091 10.6196 7.79091 10.6409 7.7922 10.6619C7.7922 10.6706 7.7922 10.6793 7.79305 10.688V10.6945C7.79348 10.7089 7.79434 10.7229 7.7952 10.7372C7.79563 10.7433 7.79606 10.7494 7.79649 10.7555C7.79949 10.8048 7.80464 10.8536 7.81151 10.9015C7.62396 10.9664 7.4334 11.0287 7.24241 11.088C6.05314 11.4575 5.01065 11.6653 4.05486 11.725C3.86001 11.7368 3.67975 11.742 3.50378 11.742C2.7613 11.742 2.15314 11.6353 1.6437 11.4135C1.43855 11.3246 1.06645 11.125 0.878892 10.7852C0.80636 10.6544 0.772883 10.5281 0.778462 10.4096C0.780608 10.366 0.796917 10.3107 0.814085 10.2518C0.855286 10.1093 0.912368 9.91414 0.818377 9.69845C0.773741 9.59649 0.698634 9.52155 0.63769 9.46142C0.608934 9.43266 0.572883 9.39693 0.562153 9.37732C0.476746 9.22787 0.480179 9.07013 0.498205 8.96381C0.512368 8.88146 0.53211 8.81828 0.552711 8.75205C0.600351 8.59693 0.650136 8.43702 0.587046 8.16251C0.576745 8.11763 0.564299 8.07492 0.552711 8.03396C0.505501 7.86708 0.468162 7.73549 0.54799 7.48669C0.635973 7.21174 0.73211 7.14507 0.853569 7.06054C0.950565 6.99344 1.0716 6.90934 1.16559 6.74159C1.22653 6.63396 1.26516 6.52677 1.3025 6.42307C1.35271 6.28538 1.39563 6.16643 1.47889 6.08364C1.52438 6.03789 1.61065 6.01654 1.71022 5.9917C1.81494 5.96599 1.9334 5.93636 2.04799 5.86882C2.26602 5.73941 2.32825 5.54682 2.37331 5.40651C2.3982 5.32852 2.41838 5.26664 2.45915 5.21436C2.65657 4.96294 3.00121 4.91022 3.25571 4.91022C3.40293 4.91022 3.55958 4.92852 3.70851 4.96294C4.37031 5.11588 5.06773 5.50412 5.83941 6.15031C6.57846 6.76861 7.30121 7.55945 8.04928 8.56773C8.16945 8.72983 8.28748 8.89453 8.40164 9.0588C8.24885 9.22046 8.12224 9.40216 8.02481 9.59867L5.90679 8.10194C5.79263 8.02133 5.63554 8.04965 5.55614 8.16599H5.55572Z" fill="url(#paint1_linear_744_5308)"/>
<path d="M10.0992 12.8192C10.0983 12.7303 10.0966 12.6422 10.0944 12.5542C10.0923 12.468 10.0481 12.3921 9.98114 12.3477C9.94981 12.3263 9.91376 12.312 9.8747 12.3072H9.87213C9.86827 12.3063 9.86397 12.3059 9.86011 12.3054C9.47814 12.278 9.12106 12.1159 8.84509 11.8605C8.82535 11.8422 8.80603 11.8235 8.78715 11.8043C8.76827 11.7852 8.74981 11.7656 8.73179 11.7455C8.71848 11.7311 8.7056 11.7163 8.69316 11.7011C8.68071 11.6863 8.66827 11.671 8.65625 11.6553C8.6438 11.6396 8.63221 11.6239 8.62063 11.6083C8.59745 11.576 8.57556 11.5433 8.55453 11.5098C8.5438 11.4928 8.5335 11.4758 8.52363 11.4588C8.51505 11.444 8.50689 11.4292 8.49874 11.4139C8.48801 11.3939 8.47771 11.3734 8.46784 11.3529C8.45968 11.3364 8.45153 11.3194 8.44423 11.3024C8.44337 11.3011 8.44294 11.2998 8.44252 11.2985C8.43436 11.2802 8.42621 11.2614 8.41891 11.2427C8.41848 11.2422 8.41848 11.2414 8.41805 11.2409C8.41805 11.2405 8.41762 11.2405 8.41762 11.2401C8.41762 11.2396 8.41719 11.2392 8.41719 11.2388C8.40046 11.1987 8.37428 11.1647 8.34252 11.139C8.27985 11.0884 8.19488 11.0693 8.11376 11.0937C8.03093 11.1185 7.94767 11.1442 7.8644 11.1708C7.68243 11.2283 7.49917 11.2893 7.31762 11.3525C6.71119 11.5638 6.1584 11.7878 5.65239 12.0261H5.65196C5.14423 12.2649 4.68415 12.5189 4.26312 12.7917C3.3511 13.3812 2.71891 13.9895 2.33007 14.6518C2.02578 15.1704 1.82964 15.9229 2.19187 16.4802C2.27814 16.6131 2.38415 16.691 2.46913 16.7542C2.56955 16.8283 2.59402 16.8514 2.60561 16.9059C2.61848 16.9647 2.6129 17.0418 2.60689 17.1233C2.59573 17.2723 2.582 17.4575 2.67256 17.6418C2.77513 17.8505 2.93479 17.9782 3.07599 18.0906C3.14853 18.1486 3.21676 18.203 3.27084 18.2632C3.31848 18.3168 3.33393 18.3656 3.36226 18.4632C3.41419 18.6422 3.48501 18.8871 3.85453 19.1599C4.18758 19.4056 4.45368 19.4148 4.64767 19.4218C4.68501 19.4231 4.72063 19.4239 4.75325 19.427C4.8923 19.4388 4.93994 19.4732 5.04466 19.549C5.10518 19.593 5.18114 19.6475 5.28372 19.7028C5.45453 19.7943 5.63265 19.8405 5.81333 19.8405C5.88672 19.8405 5.96011 19.8327 6.03179 19.817C6.12106 19.7978 6.19616 19.7577 6.26226 19.7224C6.29359 19.7059 6.34166 19.6806 6.35754 19.6771C6.36097 19.6771 6.3644 19.6771 6.36741 19.6771C6.41076 19.6771 6.46955 19.7181 6.53779 19.7656C6.60646 19.8135 6.68458 19.868 6.78071 19.9054C6.9026 19.9521 7.03436 19.976 7.17299 19.976C7.25968 19.976 7.35024 19.9664 7.44166 19.9481C7.82921 19.8693 8.22191 19.6174 8.54852 19.2388C9.04852 18.6588 9.4232 17.8605 9.69402 16.7978C9.81848 16.3085 9.91419 15.7873 9.98114 15.2253C10.0481 14.6614 10.0867 14.0571 10.0979 13.4039C10.1013 13.2091 10.1017 13.0139 10.0992 12.8196V12.8192ZM9.59359 13.3948C9.57213 14.6571 9.44552 15.7281 9.20561 16.6693C8.95539 17.6527 8.61591 18.3826 8.16912 18.9015C7.91548 19.1956 7.62191 19.3887 7.34294 19.4453C7.28372 19.4575 7.22664 19.4636 7.17299 19.4636C7.09573 19.4636 7.02406 19.451 6.96011 19.4261C6.9202 19.4109 6.87299 19.3782 6.8232 19.3433C6.70904 19.2636 6.56741 19.1647 6.36741 19.1647C6.34724 19.1647 6.32664 19.166 6.30603 19.1682C6.19702 19.1795 6.10346 19.2292 6.02835 19.2688C5.9923 19.288 5.94809 19.3115 5.92621 19.3163C5.79359 19.3451 5.6541 19.3224 5.51934 19.2501C5.44638 19.2109 5.39316 19.1725 5.33737 19.132C5.20689 19.0379 5.07256 18.9403 4.79573 18.9168C4.75067 18.9128 4.70689 18.9115 4.66483 18.9098C4.49402 18.9041 4.35925 18.8993 4.1511 18.7455C3.92063 18.5756 3.88758 18.4623 3.84595 18.3189C3.8129 18.2043 3.7717 18.0614 3.6438 17.9189C3.5614 17.827 3.47342 17.7564 3.38758 17.688C3.27428 17.5974 3.17599 17.5189 3.12406 17.4135C3.09531 17.3551 3.10217 17.2653 3.10947 17.1612C3.11762 17.0523 3.12664 16.9285 3.09874 16.7974C3.04509 16.5464 2.88372 16.4274 2.76612 16.3403C2.70046 16.2919 2.64895 16.2536 2.6129 16.1978C2.37857 15.8379 2.54767 15.2815 2.76355 14.9141C3.11119 14.322 3.69016 13.769 4.53393 13.2235C5.34123 12.7011 6.30561 12.2475 7.48157 11.837C7.67041 11.7708 7.86097 11.7076 8.05024 11.6483C8.0541 11.6553 8.05797 11.6627 8.06183 11.6697C8.07385 11.6915 8.08586 11.7128 8.09874 11.7342C8.11076 11.7551 8.1232 11.776 8.13651 11.7965C8.14423 11.8087 8.15239 11.8213 8.16054 11.8335C8.16054 11.8344 8.1614 11.8348 8.16183 11.8357C8.16913 11.847 8.17685 11.8584 8.18458 11.8693C8.19531 11.8845 8.20561 11.8993 8.21634 11.9141C8.22835 11.9303 8.23994 11.9464 8.25239 11.9621C8.25367 11.9634 8.25453 11.9651 8.25582 11.9664C8.26784 11.9821 8.28028 11.9974 8.29273 12.0126C8.30561 12.0287 8.31934 12.0449 8.33264 12.0605C8.35968 12.0915 8.38758 12.122 8.41634 12.1521C8.42492 12.1603 8.43307 12.169 8.44166 12.1773C8.5996 12.3355 8.78071 12.4688 8.97771 12.5725C9.16998 12.6741 9.37814 12.7473 9.59445 12.7869V12.7878C9.59745 12.9891 9.59702 13.1926 9.59359 13.3948Z" fill="#338C9A"/>
<path d="M9.59358 13.3948C9.57212 14.6571 9.44551 15.7281 9.20559 16.6693C8.95538 17.6527 8.61589 18.3826 8.16911 18.9015C7.91546 19.1957 7.6219 19.3887 7.34293 19.4453C7.2837 19.4575 7.22662 19.4636 7.17297 19.4636C7.09572 19.4636 7.02405 19.451 6.9601 19.4262C6.92019 19.4109 6.87297 19.3782 6.82319 19.3434C6.70903 19.2636 6.56739 19.1647 6.36739 19.1647C6.34722 19.1647 6.32662 19.166 6.30602 19.1682C6.19701 19.1795 6.10345 19.2292 6.02834 19.2689C5.99229 19.288 5.94808 19.3116 5.92619 19.3163C5.79357 19.3451 5.65409 19.3224 5.51933 19.2501C5.44637 19.2109 5.39315 19.1726 5.33735 19.132C5.20688 19.0379 5.07254 18.9403 4.79572 18.9168C4.75066 18.9129 4.70688 18.9116 4.66482 18.9098C4.494 18.9041 4.35924 18.8994 4.15109 18.7455C3.92061 18.5756 3.88757 18.4623 3.84593 18.319C3.81289 18.2044 3.77169 18.0614 3.64379 17.919C3.56139 17.827 3.4734 17.7564 3.38757 17.688C3.27426 17.5974 3.17598 17.519 3.12405 17.4135C3.09529 17.3551 3.10216 17.2654 3.10946 17.1612C3.11761 17.0523 3.12662 16.9285 3.09873 16.7974C3.04508 16.5464 2.8837 16.4275 2.76611 16.3403C2.70044 16.2919 2.64894 16.2536 2.61289 16.1978C2.37855 15.8379 2.54765 15.2815 2.76353 14.9142C3.11117 14.322 3.69014 13.7691 4.53392 13.2235C5.34122 12.7011 6.30559 12.2475 7.48156 11.837C7.6704 11.7708 7.86096 11.7076 8.05023 11.6484C8.05409 11.6553 8.05795 11.6628 8.06182 11.6697C8.07383 11.6915 8.08585 11.7129 8.09873 11.7342C8.11074 11.7551 8.12319 11.776 8.13649 11.7965C8.14422 11.8092 8.15237 11.8214 8.16053 11.8336C8.16053 11.8344 8.16139 11.8349 8.16182 11.8357C8.16911 11.8471 8.17684 11.8584 8.18456 11.8693C8.19529 11.8845 8.20559 11.8994 8.21632 11.9142C8.22834 11.9303 8.23993 11.9464 8.25237 11.9621C8.25366 11.9634 8.25452 11.9652 8.25581 11.9665C8.26782 11.9821 8.28027 11.9974 8.29272 12.0126C8.30559 12.0288 8.31933 12.0449 8.33263 12.0606C8.35881 12.0919 8.38671 12.1225 8.41632 12.1521C8.42405 12.1608 8.4322 12.1691 8.44079 12.1778L6.38328 13.7612C6.27212 13.8466 6.25023 14.0074 6.33435 14.1198C6.41847 14.2327 6.57684 14.2549 6.68757 14.1695L8.33006 12.9055L7.65366 14.8819C7.60817 15.0157 7.6777 15.1612 7.80945 15.2079C7.83649 15.2174 7.86482 15.2222 7.89186 15.2222C7.99658 15.2222 8.094 15.1556 8.13006 15.0501L8.97727 12.5747C9.16825 12.6754 9.37555 12.7482 9.59443 12.7878C9.59744 12.9891 9.59701 13.1926 9.59358 13.3948Z" fill="url(#paint2_linear_744_5308)"/>
<path d="M17.6317 14.6518C17.2428 13.9895 16.6106 13.3812 15.699 12.7917C15.2776 12.5189 14.8171 12.2649 14.3098 12.0261H14.3089C13.8025 11.7878 13.2505 11.5638 12.6445 11.3525C12.4626 11.2893 12.2793 11.2283 12.0973 11.1708C12.0141 11.1442 11.9308 11.1185 11.8484 11.0937C11.7668 11.0693 11.6819 11.0884 11.6196 11.139C11.5866 11.1656 11.56 11.2009 11.5432 11.2427C11.542 11.2462 11.5407 11.2492 11.5389 11.2527C11.5385 11.254 11.5381 11.2549 11.5377 11.2562C11.5347 11.2627 11.5321 11.2693 11.5291 11.2758C11.5218 11.2937 11.5141 11.3115 11.5055 11.329C11.4982 11.3451 11.49 11.3612 11.4819 11.3773C11.4763 11.3895 11.4699 11.4017 11.463 11.4139C11.4565 11.4261 11.4497 11.4379 11.4432 11.4501C11.4372 11.4605 11.4308 11.4714 11.4244 11.4819C11.4171 11.4945 11.4093 11.5072 11.4012 11.5198C11.393 11.5333 11.3844 11.5464 11.3754 11.5595C11.3656 11.5738 11.3557 11.5882 11.3454 11.6026C11.3411 11.6091 11.3364 11.6157 11.3312 11.6222C11.3222 11.6344 11.3132 11.6466 11.3038 11.6584C11.2926 11.6727 11.281 11.6871 11.269 11.7011C11.26 11.712 11.251 11.7224 11.2415 11.7333C11.2299 11.7464 11.2183 11.7595 11.2059 11.7725C11.1887 11.7904 11.172 11.8083 11.1544 11.8253C11.1428 11.837 11.1308 11.8483 11.1183 11.8592C11.0995 11.8775 11.0806 11.8945 11.0608 11.9107C11.0501 11.9194 11.0394 11.9285 11.0286 11.9372C10.7668 12.1481 10.4445 12.281 10.102 12.3054C10.0977 12.3059 10.0939 12.3063 10.0896 12.3072H10.0874C10.0484 12.312 10.0123 12.3263 9.98101 12.3477C9.91406 12.3921 9.86985 12.468 9.86771 12.5542C9.86556 12.6418 9.86384 12.7303 9.86298 12.8192C9.86041 13.0126 9.86084 13.2083 9.86427 13.4035C9.87543 14.0566 9.91406 14.661 9.98101 15.2248C10.048 15.7869 10.1437 16.308 10.2681 16.7974C10.5389 17.8601 10.9132 18.6584 11.4136 19.2388C11.8132 19.7024 12.3226 19.9791 12.7759 19.9791C12.8806 19.9791 12.984 19.9647 13.0836 19.9372C13.2347 19.8945 13.3407 19.8165 13.4256 19.7542C13.5235 19.6823 13.5557 19.6632 13.6102 19.6688C13.6694 19.6749 13.7398 19.7041 13.8141 19.7355C13.9312 19.7839 14.0638 19.8392 14.2222 19.8392C14.2553 19.8392 14.2883 19.8366 14.3205 19.8318C14.5475 19.7974 14.7162 19.6823 14.8656 19.5812C14.942 19.529 15.0141 19.4802 15.0874 19.4466C15.1385 19.4231 15.1814 19.4187 15.2385 19.4187C15.26 19.4187 15.2814 19.4196 15.3029 19.42C15.3299 19.4209 15.3574 19.4218 15.3853 19.4218C15.5673 19.4218 15.7952 19.3904 16.1076 19.1599C16.4411 18.9141 16.5317 18.6601 16.5977 18.4749C16.6106 18.4392 16.6226 18.4052 16.6355 18.3743C16.6896 18.244 16.7368 18.2087 16.8398 18.1311C16.8999 18.0858 16.9746 18.0296 17.0578 17.9473C17.2531 17.7551 17.3699 17.5176 17.396 17.2605C17.4055 17.1686 17.3913 17.0836 17.3789 17.0091C17.3729 16.9734 17.3638 16.9194 17.366 16.9028C17.3746 16.8605 17.4149 16.8257 17.5042 16.756C17.5703 16.7046 17.645 16.6462 17.7098 16.5643C17.8432 16.3956 17.9256 16.1856 17.954 15.9399C17.9999 15.5412 17.8857 15.0841 17.6317 14.6518ZM17.4531 15.8802C17.4359 16.0287 17.39 16.1512 17.3166 16.2436C17.29 16.2775 17.2445 16.3124 17.1969 16.3499C17.0806 16.4405 16.9218 16.5643 16.8729 16.7952C16.8497 16.9041 16.8673 17.0096 16.8814 17.0945C16.8883 17.1351 16.8969 17.1852 16.8943 17.2078C16.8767 17.3795 16.7827 17.5054 16.7063 17.5804C16.6471 17.6388 16.5952 17.678 16.5398 17.7194C16.4115 17.8161 16.2784 17.9159 16.1707 18.176C16.1531 18.2183 16.1381 18.2601 16.1239 18.3002C16.0656 18.4632 16.0196 18.5917 15.8111 18.7455C15.7085 18.8209 15.6278 18.8619 15.56 18.8841C15.4922 18.9063 15.4368 18.9093 15.3853 18.9093C15.3621 18.9093 15.3394 18.9085 15.3171 18.908C15.2909 18.9072 15.2647 18.9067 15.2385 18.9067C15.1462 18.9067 15.0218 18.915 14.8802 18.9799C14.7686 19.0309 14.675 19.0941 14.5849 19.1555C14.4647 19.2375 14.3608 19.308 14.2458 19.3255C14.1827 19.3351 14.0977 19.2998 14.0055 19.2614C13.9055 19.22 13.7926 19.173 13.6608 19.1595C13.6381 19.1573 13.6149 19.156 13.5926 19.156C13.3793 19.156 13.2351 19.2619 13.1299 19.3394C13.0643 19.3878 13.0128 19.4257 12.9492 19.4436C12.8939 19.4592 12.8355 19.4671 12.7759 19.4671C12.4106 19.4671 12.0286 19.1747 11.793 18.9015C11.3458 18.3826 11.0068 17.6527 10.7561 16.6693C10.5166 15.7281 10.3896 14.6571 10.3686 13.3948C10.3651 13.1921 10.3647 12.9887 10.3677 12.7878V12.7869C10.584 12.7473 10.7917 12.6741 10.984 12.573C11.181 12.4693 11.3621 12.3355 11.5205 12.1773C11.5583 12.1398 11.5943 12.1006 11.6295 12.0605C11.6432 12.0449 11.6565 12.0287 11.6694 12.0126C11.6819 11.9974 11.6943 11.9821 11.7063 11.9664C11.7076 11.9651 11.7085 11.9634 11.7098 11.9621C11.7218 11.9464 11.7338 11.9303 11.7458 11.9141C11.7565 11.8993 11.7668 11.8845 11.7776 11.8693C11.7853 11.8584 11.7926 11.847 11.8003 11.8357C11.8008 11.8348 11.8012 11.8344 11.8016 11.8335C11.8098 11.8213 11.8179 11.8087 11.8256 11.7965C11.8351 11.7812 11.8445 11.766 11.8535 11.7507C11.8724 11.7207 11.89 11.6893 11.9063 11.6579C11.9085 11.6549 11.9102 11.6514 11.9119 11.6483C12.1008 11.7076 12.2913 11.7708 12.4806 11.837C13.6565 12.2475 14.6205 12.7011 15.4282 13.2235C16.272 13.769 16.851 14.322 17.1986 14.9141C17.3128 15.1085 17.4977 15.4928 17.4531 15.8802Z" fill="#338C9A"/>
<path d="M17.4531 15.8802C17.436 16.0288 17.39 16.1512 17.3167 16.2436C17.29 16.2776 17.2446 16.3124 17.1969 16.3499C17.0806 16.4405 16.9218 16.5643 16.8729 16.7952C16.8497 16.9042 16.8673 17.0096 16.8815 17.0946C16.8883 17.1351 16.8969 17.1852 16.8943 17.2079C16.8767 17.3795 16.7828 17.5055 16.7064 17.5804C16.6471 17.6388 16.5952 17.678 16.5398 17.7194C16.4115 17.8161 16.2785 17.9159 16.1707 18.176C16.1531 18.2183 16.1381 18.2601 16.124 18.3002C16.0656 18.4632 16.0197 18.5917 15.8111 18.7455C15.7085 18.8209 15.6278 18.8619 15.56 18.8841C15.4922 18.9063 15.4368 18.9094 15.3853 18.9094C15.3622 18.9094 15.3394 18.9085 15.3171 18.9081C15.2909 18.9072 15.2647 18.9068 15.2385 18.9068C15.1463 18.9068 15.0218 18.915 14.8802 18.98C14.7686 19.0309 14.675 19.0941 14.5849 19.1556C14.4647 19.2375 14.3609 19.3081 14.2458 19.3255C14.1828 19.3351 14.0978 19.2998 14.0055 19.2614C13.9055 19.2201 13.7926 19.173 13.6609 19.1595C13.6381 19.1573 13.6149 19.156 13.5926 19.156C13.3793 19.156 13.2351 19.2619 13.13 19.3394C13.0643 19.3878 13.0128 19.4257 12.9493 19.4436C12.8939 19.4593 12.8355 19.4671 12.7759 19.4671C12.4106 19.4671 12.0287 19.1747 11.7931 18.9015C11.3458 18.3826 11.0068 17.6527 10.7561 16.6693C10.5167 15.7281 10.3896 14.6571 10.3686 13.3948C10.3652 13.1922 10.3647 12.9887 10.3677 12.7878C10.5866 12.7482 10.7939 12.6754 10.9849 12.5752L11.8317 15.0501C11.8677 15.1556 11.9656 15.2222 12.0699 15.2222C12.0973 15.2222 12.1252 15.2174 12.1527 15.2079C12.284 15.1612 12.354 15.0157 12.3081 14.8819L11.6317 12.9055L13.2742 14.1695C13.3853 14.2545 13.5433 14.2327 13.6274 14.1198C13.7115 14.0074 13.69 13.8466 13.5789 13.7612L11.5214 12.1782C11.5591 12.1403 11.5952 12.1011 11.6295 12.0606C11.6433 12.0449 11.6566 12.0288 11.6694 12.0126C11.6819 11.9974 11.6943 11.9821 11.7064 11.9665C11.7076 11.9652 11.7085 11.9634 11.7098 11.9621C11.7222 11.946 11.7343 11.9303 11.7458 11.9142C11.7566 11.8994 11.7669 11.8845 11.7776 11.8693C11.7853 11.8584 11.7926 11.8471 11.8004 11.8357C11.8008 11.8349 11.8012 11.8344 11.8016 11.8336C11.8098 11.8214 11.8179 11.8092 11.8257 11.7965C11.8355 11.7813 11.8446 11.7665 11.8536 11.7508C11.8725 11.7207 11.89 11.6893 11.9064 11.658C11.9085 11.6549 11.9102 11.6514 11.9119 11.6484C12.1008 11.7076 12.2913 11.7708 12.4806 11.837C13.6566 12.2475 14.6205 12.7011 15.4282 13.2235C16.272 13.7691 16.851 14.322 17.1986 14.9142C17.3128 15.1085 17.4978 15.4928 17.4531 15.8802Z" fill="url(#paint3_linear_744_5308)"/>
<path d="M19.905 8.65792C19.8797 8.56772 19.856 8.48275 19.847 8.40171C19.8393 8.33025 19.8552 8.28101 19.8887 8.18558C19.9505 8.00998 20.035 7.76903 19.8938 7.32807C19.7668 6.93025 19.5569 6.76423 19.4037 6.6431C19.3741 6.61957 19.3462 6.59735 19.3213 6.57556C19.2157 6.48319 19.1972 6.42654 19.1565 6.30323C19.1329 6.23133 19.1033 6.14201 19.0518 6.03569C18.932 5.7882 18.7453 5.6017 18.5127 5.49713C18.4294 5.45966 18.3457 5.44702 18.2719 5.43613C18.2367 5.4309 18.1831 5.42262 18.1685 5.41565C18.1316 5.39386 18.1114 5.34463 18.0736 5.237C18.0457 5.15726 18.0144 5.06663 17.9578 4.97905C17.841 4.79822 17.6694 4.65399 17.4479 4.55029C17.2303 4.44876 16.9797 4.39691 16.7028 4.39691C16.5209 4.39691 16.3324 4.41957 16.1419 4.46314C15.4015 4.63439 14.6359 5.05661 13.802 5.75465C13.4179 6.07622 13.0393 6.44049 12.6595 6.8553V6.85617C12.2784 7.27229 11.8972 7.73765 11.5106 8.25922C11.3947 8.41521 11.2809 8.57338 11.1711 8.73155C11.1204 8.80389 11.0711 8.87622 11.0221 8.94855C10.9736 9.01957 10.9655 9.10759 10.9938 9.18341C11.0084 9.22306 11.0329 9.26009 11.0672 9.28929C11.0728 9.29408 11.0784 9.29887 11.0839 9.3041C11.0942 9.31325 11.1041 9.3224 11.1144 9.33155C11.1243 9.34027 11.1346 9.34985 11.144 9.35944C11.1887 9.40214 11.2303 9.44702 11.2689 9.49408C11.3221 9.55726 11.3698 9.62393 11.4123 9.69364C11.4234 9.71107 11.4337 9.7285 11.4436 9.7468C11.4599 9.77556 11.4754 9.80519 11.4904 9.83526L11.4981 9.85094C11.4998 9.85443 11.5011 9.85792 11.5028 9.8614C11.5084 9.87229 11.5136 9.88319 11.5178 9.89452C11.5217 9.90236 11.5251 9.91064 11.5286 9.91892C11.5337 9.93068 11.5385 9.94201 11.5432 9.95378C11.5453 9.95944 11.5479 9.96554 11.55 9.97121C11.5599 9.99648 11.5694 10.0222 11.5779 10.0479C11.5797 10.0522 11.5805 10.0562 11.5822 10.0605C11.5822 10.061 11.5827 10.0618 11.5827 10.0623C11.5835 10.0649 11.5844 10.0675 11.5848 10.0701C11.5861 10.0736 11.5874 10.0767 11.5882 10.0801C11.5891 10.0832 11.5904 10.0867 11.5912 10.0897H11.5917C11.5917 10.0897 11.5917 10.091 11.5917 10.0919C11.5964 10.1076 11.6011 10.1237 11.6054 10.1394C11.6084 10.1503 11.611 10.1612 11.614 10.1721C11.6174 10.1856 11.6204 10.1987 11.6234 10.2122C11.6256 10.2217 11.6282 10.2322 11.6299 10.2418C11.6303 10.2431 11.6303 10.244 11.6307 10.2453C11.6337 10.2597 11.6363 10.274 11.6389 10.2884C11.641 10.2993 11.6427 10.3106 11.6445 10.322C11.647 10.335 11.6488 10.3485 11.6505 10.3616C11.6505 10.3642 11.6513 10.3668 11.6518 10.3695C11.6535 10.383 11.6552 10.3965 11.6565 10.4104C11.6582 10.4261 11.6599 10.4414 11.6612 10.457C11.6625 10.4727 11.6633 10.488 11.6642 10.5037C11.6659 10.535 11.6668 10.5664 11.6668 10.5982C11.6668 10.6156 11.6668 10.6331 11.6659 10.6501C11.6655 10.6688 11.6646 10.6875 11.6633 10.7063C11.6625 10.722 11.6612 10.7377 11.6599 10.7533C11.6582 10.7703 11.6565 10.7878 11.6543 10.8048C11.6543 10.8082 11.6535 10.8122 11.653 10.8161C11.6513 10.8292 11.6496 10.8427 11.6475 10.8562C11.6462 10.8653 11.6449 10.874 11.6432 10.8832C11.6423 10.8893 11.6415 10.895 11.6402 10.9006C11.638 10.915 11.6354 10.9289 11.6324 10.9429C11.6294 10.9568 11.6264 10.9703 11.6234 10.9843C11.6217 10.9926 11.62 11.0008 11.6179 11.0091C11.6071 11.0531 11.6084 11.0976 11.6196 11.1385C11.6406 11.217 11.6981 11.2828 11.7784 11.3119C11.8599 11.3411 11.9419 11.3699 12.0247 11.3978C12.2054 11.4601 12.3891 11.5202 12.5724 11.5773C13.1852 11.7677 13.7616 11.9163 14.3088 12.0257H14.3097C14.8582 12.135 15.3779 12.2043 15.8766 12.2353C16.0792 12.2479 16.2749 12.2536 16.4586 12.2536C17.2706 12.2536 17.944 12.1333 18.517 11.8836C19.0638 11.6461 19.6582 11.1555 19.6874 10.4884C19.6947 10.3294 19.6543 10.2026 19.6221 10.1011C19.5835 9.98123 19.5771 9.94811 19.5994 9.8967C19.623 9.84179 19.6724 9.78253 19.7243 9.72023C19.8196 9.6065 19.9376 9.46445 19.9711 9.2614C20.0088 9.03177 19.9535 8.83308 19.905 8.65792ZM19.4736 9.17687C19.4633 9.24136 19.4058 9.30977 19.3397 9.3895C19.2698 9.47273 19.1908 9.56728 19.1376 9.6906C19.0359 9.92545 19.0972 10.1176 19.1419 10.2584C19.1672 10.3368 19.1865 10.3982 19.1839 10.4649C19.1646 10.8958 18.7058 11.2448 18.3183 11.413C18.0638 11.5237 17.7844 11.6061 17.4758 11.6605C17.1672 11.715 16.8294 11.7416 16.4586 11.7416C16.2852 11.7416 16.0994 11.7363 15.9071 11.7246C14.9518 11.6649 13.9088 11.4575 12.72 11.088C12.529 11.0287 12.3385 10.9664 12.1509 10.9015C12.1513 10.8984 12.1518 10.8954 12.1518 10.8923C12.1518 10.8919 12.1518 10.891 12.1518 10.8906C12.1578 10.8457 12.1621 10.8008 12.1651 10.7551C12.1651 10.749 12.1659 10.7429 12.1663 10.7368C12.1672 10.7228 12.1681 10.7085 12.1685 10.6941L12.1698 10.6614C12.1702 10.6405 12.1706 10.6191 12.1706 10.5982C12.1706 10.5621 12.1698 10.5259 12.1681 10.4902C12.1681 10.488 12.1681 10.4858 12.1681 10.4841C12.1672 10.4649 12.1659 10.4462 12.1646 10.4274C12.1633 10.4126 12.1625 10.3978 12.1608 10.383C12.1595 10.3668 12.1578 10.3507 12.1556 10.335C12.1543 10.3237 12.153 10.3128 12.1518 10.3019C12.15 10.288 12.1479 10.274 12.1457 10.2601C12.1449 10.2536 12.144 10.2475 12.1427 10.2414C12.141 10.2292 12.1389 10.217 12.1367 10.2052C12.1337 10.1882 12.1303 10.1708 12.1269 10.1538V10.1529C12.1239 10.1377 12.1209 10.1224 12.117 10.1076C12.1114 10.0806 12.105 10.0536 12.0977 10.0265C12.0942 10.013 12.0904 9.99909 12.0865 9.98515C12.0818 9.96946 12.0775 9.95334 12.0724 9.93765C12.0689 9.92545 12.0651 9.91325 12.0612 9.90149C12.0573 9.89016 12.0535 9.87839 12.0496 9.86707C12.0453 9.85487 12.041 9.84266 12.0367 9.83046C12.0312 9.81521 12.0256 9.8004 12.0196 9.78558C12.0191 9.78471 12.0191 9.78384 12.0187 9.78341C12.0157 9.77469 12.0123 9.76641 12.0088 9.75813C12.0054 9.74985 12.002 9.74158 11.9985 9.7333C11.9917 9.71674 11.9848 9.70018 11.9775 9.68406C11.9702 9.6675 11.9625 9.65138 11.9548 9.63482C11.9496 9.62262 11.9436 9.61086 11.9376 9.59865C11.9204 9.5638 11.902 9.52894 11.8822 9.49495C11.8724 9.47752 11.8625 9.46096 11.8526 9.44397C11.8363 9.41696 11.8196 9.39038 11.802 9.3638C11.802 9.3638 11.802 9.36336 11.8015 9.36293C11.7844 9.33678 11.7663 9.31064 11.7479 9.28536C11.7303 9.25966 11.711 9.23439 11.6908 9.20998C11.6784 9.1943 11.6663 9.17905 11.6535 9.1638C11.6312 9.13722 11.6088 9.11151 11.5857 9.0858C11.5779 9.07665 11.5694 9.0675 11.5608 9.05835C11.6749 8.89408 11.793 8.72937 11.9131 8.56728C12.6612 7.559 13.3839 6.76816 14.123 6.14985C14.8947 5.50367 15.5917 5.11543 16.2539 4.96249C16.4075 4.9272 16.5586 4.90889 16.7028 4.90889C16.9063 4.90889 17.0861 4.94506 17.2372 5.01565C17.3715 5.07796 17.4719 5.16031 17.5359 5.25922C17.5591 5.29582 17.5779 5.35029 17.5985 5.40824C17.647 5.54811 17.7144 5.74027 17.9153 5.85835C18.0101 5.91456 18.1144 5.93025 18.1985 5.94245C18.2385 5.94855 18.2882 5.95596 18.3084 5.96511C18.4642 6.03526 18.5526 6.16511 18.5994 6.26184C18.6359 6.33722 18.6565 6.39953 18.6784 6.46576C18.729 6.61957 18.7814 6.77861 18.9917 6.96293C19.026 6.99343 19.0603 7.02044 19.0938 7.04658C19.2282 7.15334 19.3346 7.23744 19.4144 7.48624C19.5024 7.76162 19.4633 7.87273 19.414 8.01347C19.3745 8.12589 19.3251 8.26619 19.3457 8.45791C19.3595 8.58123 19.39 8.69103 19.4196 8.79735C19.4591 8.93853 19.493 9.06053 19.4736 9.17687Z" fill="#338C9A"/>
<path d="M19.4737 9.17728C19.4634 9.24176 19.4059 9.31017 19.3398 9.38991C19.2698 9.47314 19.1908 9.56769 19.1376 9.691C19.0359 9.92586 19.0973 10.118 19.1419 10.2588C19.1672 10.3372 19.1865 10.3986 19.184 10.4653C19.1647 10.8962 18.7059 11.2453 18.3183 11.4134C18.0638 11.5241 17.7844 11.6065 17.4758 11.6609C17.1672 11.7154 16.8295 11.742 16.4586 11.742C16.2853 11.742 16.0994 11.7368 15.9071 11.725C14.9518 11.6653 13.9089 11.4579 12.72 11.0884C12.529 11.0291 12.3385 10.9668 12.1509 10.9019C12.1513 10.8988 12.1518 10.8958 12.1518 10.8927C12.1518 10.8923 12.1518 10.8914 12.1518 10.891C12.1578 10.8461 12.1621 10.8012 12.1651 10.7555C12.1651 10.7494 12.1659 10.7433 12.1664 10.7372C12.1672 10.7232 12.1681 10.7089 12.1685 10.6945L12.1698 10.6618C12.1702 10.6409 12.1707 10.6195 12.1707 10.5986C12.1707 10.5625 12.1698 10.5263 12.1681 10.4906C12.1681 10.4884 12.1681 10.4862 12.1681 10.4845C12.1672 10.4653 12.1659 10.4466 12.1647 10.4278C12.1634 10.413 12.1625 10.3982 12.1608 10.3834C12.1595 10.3673 12.1578 10.3511 12.1556 10.3354C12.1544 10.3241 12.1531 10.3132 12.1518 10.3023C12.1501 10.2884 12.1479 10.2744 12.1458 10.2605C12.1449 10.254 12.1441 10.2479 12.1428 10.2418L14.7226 10.1882C14.8621 10.1851 14.9724 10.0675 14.9698 9.92586C14.9668 9.78468 14.8513 9.67139 14.7123 9.67532L12.6522 9.71758L14.3436 8.52238C14.4578 8.44133 14.4857 8.28185 14.4063 8.16595C14.3269 8.04961 14.1694 8.02172 14.0552 8.10233L11.9376 9.59906C11.8402 9.40255 11.7136 9.22041 11.5608 9.05876C11.675 8.89449 11.793 8.72978 11.9132 8.56769C12.6612 7.55941 13.384 6.76856 14.123 6.15026C14.8947 5.50407 15.5917 5.11584 16.2539 4.9629C16.4076 4.9276 16.5586 4.9093 16.7029 4.9093C16.9063 4.9093 17.0861 4.94547 17.2372 5.01606C17.3715 5.07837 17.472 5.16072 17.5359 5.25963C17.5591 5.29623 17.578 5.3507 17.5986 5.40865C17.6471 5.54852 17.7144 5.74068 17.9153 5.85876C18.0101 5.91497 18.1144 5.93065 18.1986 5.94285C18.2385 5.94895 18.2883 5.95636 18.3084 5.96551C18.4642 6.03566 18.5526 6.16551 18.5994 6.26224C18.6359 6.33762 18.6565 6.39994 18.6784 6.46617C18.729 6.61998 18.7814 6.77902 18.9917 6.96333C19.026 6.99383 19.0604 7.02085 19.0938 7.04699C19.2282 7.15375 19.3346 7.23784 19.4144 7.48664C19.5024 7.76203 19.4634 7.87314 19.414 8.01388C19.3745 8.1263 19.3252 8.2666 19.3458 8.45832C19.3595 8.58163 19.39 8.69144 19.4196 8.79775C19.4591 8.93893 19.493 9.06094 19.4737 9.17728Z" fill="url(#paint4_linear_744_5308)"/>
<path d="M11.0609 5.89323L10.3133 8.40041L10.2223 8.70499C10.1901 8.81305 10.0923 8.88669 9.98111 8.88669C9.86995 8.88669 9.7721 8.81305 9.73991 8.70499L9.64892 8.40041L8.90128 5.89323C8.86094 5.75771 8.93604 5.61479 9.06952 5.57383C9.203 5.53288 9.34377 5.60957 9.38411 5.74464L9.98111 7.74726L10.5781 5.74464C10.6184 5.60957 10.7592 5.53288 10.8927 5.57383C11.0257 5.61479 11.1013 5.75771 11.0609 5.89323Z" fill="#338C9A"/>
<path d="M8.38365 10.0497C8.38236 10.054 8.38064 10.0584 8.37978 10.0623C8.37936 10.0649 8.3785 10.0675 8.37764 10.0701C8.37721 10.0715 8.37678 10.0732 8.37592 10.0745C8.37463 10.0776 8.37378 10.0802 8.37292 10.0832C8.37206 10.0854 8.37163 10.0876 8.37077 10.0898C8.33172 10.1847 8.23987 10.2479 8.13772 10.2479H8.13257L7.81884 10.2414L5.23944 10.1878C5.09996 10.1847 4.98966 10.0675 4.99223 9.92592C4.99524 9.78475 5.11069 9.67146 5.24931 9.67494L7.30983 9.71721L5.61841 8.522C5.50425 8.44096 5.47592 8.28148 5.55575 8.16558C5.63515 8.04924 5.79223 8.02091 5.90639 8.10152L8.02442 9.59826H8.02485L8.2815 9.77995C8.36734 9.84052 8.40682 9.94815 8.38365 10.0497Z" fill="#338C9A"/>
<path d="M9.07986 12.2745L8.97771 12.5726V12.5747L8.13007 15.0501C8.09402 15.1556 7.9966 15.2222 7.89188 15.2222C7.86484 15.2222 7.83651 15.2174 7.80947 15.2078C7.67771 15.1612 7.60818 15.0157 7.65368 14.8819L8.33007 12.9054L6.68758 14.1695C6.57685 14.2549 6.41848 14.2327 6.33436 14.1198C6.25024 14.0074 6.27213 13.8466 6.38329 13.7612L8.4408 12.1778H8.44166L8.6893 11.9865C8.77814 11.9185 8.90003 11.9172 8.99016 11.9834C9.07986 12.0497 9.11634 12.1682 9.07986 12.2745Z" fill="#338C9A"/>
<path d="M13.6274 14.1198C13.5433 14.2327 13.3854 14.2545 13.2742 14.1695L11.6317 12.9054L12.3081 14.8819C12.354 15.0157 12.2841 15.1612 12.1527 15.2078C12.1253 15.2174 12.0974 15.2222 12.0699 15.2222C11.9656 15.2222 11.8678 15.1556 11.8317 15.0501L10.9849 12.5752L10.9841 12.573L10.8819 12.2745C10.8454 12.1682 10.8819 12.0497 10.972 11.9834C11.0617 11.9172 11.1841 11.9185 11.2725 11.9865L11.5205 12.1773L11.5214 12.1782L13.5789 13.7612C13.6901 13.8466 13.7115 14.0074 13.6274 14.1198Z" fill="#338C9A"/>
<path d="M14.97 9.92593C14.9726 10.0675 14.8623 10.1852 14.7228 10.1882L12.143 10.2418L11.8297 10.2484H11.8246C11.7224 10.2484 11.6306 10.1852 11.5915 10.0902C11.5902 10.0871 11.5894 10.0837 11.5881 10.0806C11.5872 10.0771 11.5859 10.0741 11.5846 10.0706C11.5842 10.068 11.5834 10.0654 11.5825 10.0627C11.5825 10.0623 11.5821 10.0614 11.5821 10.061C11.5529 9.95643 11.5919 9.84357 11.6803 9.78083L11.9374 9.59913L14.055 8.1024C14.1692 8.02179 14.3267 8.04967 14.4061 8.16601C14.4855 8.28192 14.4576 8.4414 14.3434 8.52244L12.652 9.71765L14.7121 9.67538C14.8512 9.67146 14.9666 9.78475 14.9696 9.92593H14.97Z" fill="#338C9A"/>
<path d="M12.1688 10.4907C12.1688 10.4885 12.1688 10.4863 12.1688 10.4846C12.1679 10.4654 12.1666 10.4467 12.1653 10.4279C12.164 10.4131 12.1632 10.3983 12.1615 10.3835C12.1602 10.3673 12.1585 10.3512 12.1563 10.3355C12.155 10.3242 12.1537 10.3133 12.1524 10.3024C12.1507 10.2885 12.1486 10.2745 12.1464 10.2606C12.1456 10.2541 12.1447 10.248 12.1434 10.2419C12.1417 10.2297 12.1396 10.2175 12.1374 10.2057C12.1344 10.1887 12.131 10.1713 12.1276 10.1543V10.1534C12.1246 10.1382 12.1215 10.1229 12.1177 10.1081C12.1121 10.0811 12.1057 10.0541 12.0984 10.027C12.0949 10.0135 12.0911 9.99959 12.0872 9.98565C12.0825 9.96996 12.0782 9.95384 12.073 9.93815C12.0696 9.92595 12.0658 9.91375 12.0619 9.90199C12.058 9.89066 12.0542 9.8789 12.0503 9.86757C12.046 9.85537 12.0417 9.84316 12.0374 9.83096C12.0318 9.81571 12.0263 9.8009 12.0203 9.78609C12.0198 9.78521 12.0198 9.78434 12.0194 9.7839C12.0164 9.77519 12.013 9.76691 12.0095 9.75863C12.0061 9.75036 12.0027 9.74208 11.9992 9.7338C11.9924 9.71724 11.9855 9.70068 11.9782 9.68456C11.9709 9.668 11.9632 9.65188 11.9555 9.63532C11.9499 9.62312 11.9439 9.61092 11.9379 9.59916C11.9203 9.56386 11.9018 9.52944 11.8829 9.49545C11.873 9.47802 11.8632 9.46147 11.8533 9.44447C11.837 9.41746 11.8203 9.39088 11.8027 9.3643C11.8027 9.3643 11.8027 9.36386 11.8022 9.36343C11.7851 9.33728 11.767 9.31114 11.7486 9.28587C11.7301 9.26016 11.7108 9.23489 11.6915 9.21049C11.6791 9.1948 11.667 9.17955 11.6542 9.1643C11.6318 9.13772 11.6095 9.11201 11.5864 9.0863C11.5164 9.01005 11.4417 8.93903 11.3619 8.87367C11.3009 8.82269 11.2374 8.77563 11.1713 8.73205C11.0958 8.68238 11.0173 8.6375 10.9361 8.59698C10.8945 8.57693 10.8529 8.55776 10.81 8.5399C10.7954 8.5338 10.7812 8.52813 10.7666 8.52247C10.7473 8.51506 10.728 8.50765 10.7087 8.50112C10.6894 8.49414 10.67 8.48761 10.6503 8.48107C10.6306 8.47454 10.6112 8.46844 10.5915 8.46277C10.5138 8.43968 10.4349 8.42094 10.3542 8.407L10.3452 8.40569C10.3349 8.40395 10.3241 8.40221 10.3138 8.40046C10.3061 8.39916 10.2984 8.39785 10.2902 8.39698C10.27 8.39393 10.2494 8.39131 10.2293 8.38914C10.2125 8.38696 10.1958 8.38521 10.1786 8.3839C10.1666 8.3826 10.1542 8.38173 10.1417 8.38086C10.1258 8.37955 10.11 8.37868 10.0941 8.37781C10.0567 8.37563 10.0194 8.37476 9.98163 8.37476C9.94386 8.37476 9.90653 8.37563 9.86919 8.37781C9.85202 8.37868 9.83485 8.37955 9.81811 8.38086C9.81597 8.38086 9.81339 8.38129 9.81125 8.38129C9.8018 8.38216 9.79193 8.38303 9.78249 8.3839C9.76618 8.38565 9.7503 8.38696 9.73399 8.38914C9.71382 8.39131 9.69408 8.39393 9.67434 8.39698C9.66575 8.39785 9.6576 8.39916 9.64944 8.40046C9.64086 8.40177 9.63228 8.40308 9.62369 8.40482C9.61768 8.40482 9.61168 8.40656 9.6061 8.40787C9.54687 8.41789 9.4885 8.43053 9.43099 8.44622C9.41125 8.45144 9.3915 8.45711 9.37176 8.46277C9.35202 8.46844 9.33228 8.47454 9.31296 8.48107C9.29322 8.48761 9.27391 8.49414 9.25459 8.50112C9.23528 8.50765 9.21597 8.51506 9.19665 8.52247C9.18206 8.52813 9.16747 8.5338 9.15331 8.5399C9.11039 8.55776 9.06833 8.57693 9.02713 8.59698C8.94601 8.6375 8.86747 8.68238 8.79193 8.73249C8.72584 8.77563 8.66232 8.82269 8.60137 8.87367C8.48163 8.97214 8.37262 9.08325 8.27605 9.20482C8.24 9.25057 8.20524 9.29763 8.17262 9.346C8.11854 9.42661 8.06919 9.51114 8.02541 9.59916C8.0194 9.61092 8.01339 9.62312 8.00738 9.63532C7.99966 9.65144 7.99236 9.668 7.98464 9.68456C7.97777 9.70068 7.97047 9.71724 7.96361 9.7338C7.95717 9.74905 7.95116 9.76473 7.94472 9.78042C7.93871 9.79611 7.93271 9.81179 7.9267 9.82748C7.92627 9.82922 7.92541 9.83053 7.92498 9.83227C7.92412 9.83532 7.92326 9.83794 7.92198 9.84099C7.91682 9.8558 7.91168 9.87105 7.90653 9.8863C7.90052 9.9033 7.89494 9.92073 7.88979 9.93815C7.88507 9.95384 7.88034 9.96996 7.87562 9.98565C7.87176 9.99959 7.8679 10.0135 7.86446 10.027C7.85717 10.0541 7.85073 10.0806 7.84515 10.1081C7.84129 10.1229 7.83828 10.1382 7.83528 10.1534V10.1543C7.83185 10.1713 7.82841 10.1887 7.82541 10.2057C7.82326 10.2175 7.82112 10.2297 7.8194 10.2419C7.81811 10.248 7.81725 10.2541 7.8164 10.2606C7.81425 10.2745 7.8121 10.2885 7.81039 10.3024C7.8091 10.3133 7.80781 10.3242 7.80653 10.3355C7.80438 10.3512 7.80266 10.3673 7.80137 10.3835C7.79966 10.3983 7.7988 10.4131 7.79751 10.4279C7.79622 10.4467 7.79494 10.4654 7.79408 10.4846C7.79408 10.4863 7.79408 10.4885 7.79408 10.4907C7.79236 10.5264 7.7915 10.5626 7.7915 10.5987C7.7915 10.6196 7.7915 10.641 7.79279 10.6619C7.79279 10.6706 7.79322 10.6793 7.79365 10.688V10.6946C7.79408 10.709 7.79494 10.7229 7.7958 10.7373C7.79623 10.7434 7.79665 10.7495 7.79708 10.7556C7.80009 10.8048 7.80524 10.8536 7.8121 10.9016C7.82412 10.9935 7.84215 11.0828 7.86532 11.1708C7.8855 11.2488 7.90996 11.3246 7.93828 11.3987C7.9709 11.4846 8.00867 11.5682 8.05116 11.6484C8.05502 11.6554 8.05888 11.6628 8.06275 11.6697C8.07476 11.6915 8.08678 11.7129 8.09966 11.7342C8.11168 11.7551 8.12412 11.7761 8.13743 11.7965C8.14515 11.8087 8.15331 11.8214 8.16146 11.8336C8.16146 11.8345 8.16232 11.8349 8.16275 11.8358C8.17004 11.8471 8.17777 11.8584 8.1855 11.8693C8.19622 11.8846 8.20652 11.8994 8.21725 11.9142C8.22927 11.9303 8.24086 11.9464 8.25331 11.9621C8.25459 11.9634 8.25545 11.9652 8.25674 11.9665C8.26876 11.9822 8.2812 11.9974 8.29365 12.0127C8.30652 12.0288 8.32026 12.0449 8.33356 12.0606C8.35974 12.092 8.38764 12.1225 8.41725 12.1521C8.42498 12.1608 8.43313 12.1691 8.44172 12.1778C8.5988 12.3364 8.77949 12.4706 8.9782 12.5748C9.16919 12.6754 9.37648 12.7482 9.59537 12.7878C9.68335 12.8039 9.77262 12.8144 9.86404 12.8192C9.90309 12.8218 9.94258 12.8227 9.98206 12.8227C10.0215 12.8227 10.061 12.8218 10.1001 12.8192C10.1915 12.8144 10.2808 12.8039 10.3688 12.7878C10.5876 12.7482 10.7949 12.6754 10.9859 12.5752C11.1846 12.4706 11.3653 12.3364 11.5224 12.1782C11.5602 12.1403 11.5962 12.1011 11.6306 12.0606C11.6443 12.0449 11.6576 12.0288 11.6705 12.0127C11.6829 11.9974 11.6954 11.9822 11.7074 11.9665C11.7087 11.9652 11.7095 11.9634 11.7108 11.9621C11.7228 11.9464 11.7349 11.9303 11.7469 11.9142C11.7576 11.8994 11.7679 11.8846 11.7786 11.8693C11.7864 11.8584 11.7936 11.8471 11.8014 11.8358C11.8018 11.8349 11.8022 11.8345 11.8027 11.8336C11.8108 11.8214 11.819 11.8087 11.8267 11.7965C11.8361 11.7813 11.8456 11.766 11.8546 11.7508C11.873 11.7203 11.8906 11.6894 11.9074 11.658C11.952 11.5743 11.9919 11.4885 12.0258 11.3987C12.0542 11.3242 12.0782 11.2484 12.0984 11.1708C12.1228 11.0802 12.1404 10.9878 12.1529 10.8928C12.1529 10.8924 12.1529 10.8915 12.1529 10.8911C12.1589 10.8462 12.1632 10.8013 12.1662 10.7556C12.1662 10.7495 12.167 10.7434 12.1675 10.7373C12.1683 10.7233 12.1692 10.709 12.1696 10.6946L12.1709 10.6619C12.1713 10.641 12.1718 10.6196 12.1718 10.5987C12.1718 10.5626 12.1709 10.5264 12.1692 10.4907H12.1688ZM10.0898 12.3072H10.0876C10.0524 12.3094 10.0168 12.3107 9.9812 12.3107C9.94558 12.3107 9.90996 12.3094 9.87476 12.3072H9.87219C9.47734 12.2811 9.11897 12.1172 8.84515 11.8606C8.82541 11.8427 8.8061 11.824 8.78721 11.8044C8.76833 11.7856 8.74987 11.7656 8.73185 11.7456C8.71854 11.7312 8.70567 11.7164 8.69322 11.7011C8.68034 11.6863 8.66833 11.6711 8.65631 11.6554C8.64386 11.6397 8.63228 11.624 8.62069 11.6083C8.59708 11.5765 8.57519 11.5434 8.55459 11.5098C8.54386 11.4928 8.53356 11.4758 8.52369 11.4589C8.51511 11.444 8.50695 11.4292 8.4988 11.414C8.48807 11.3939 8.47777 11.3734 8.4679 11.353C8.45974 11.3364 8.45159 11.3194 8.44429 11.3024C8.44343 11.3011 8.44301 11.2998 8.44258 11.2985C8.43442 11.2802 8.42627 11.2615 8.41897 11.2427C8.41854 11.2423 8.41854 11.2414 8.41811 11.241C8.41811 11.2405 8.41768 11.2406 8.41768 11.2401C8.41768 11.2397 8.41725 11.2392 8.41725 11.2388C8.38979 11.17 8.36661 11.0981 8.34773 11.0253C8.34215 11.0022 8.337 10.9795 8.33228 10.9565C8.32927 10.9425 8.32627 10.9286 8.32412 10.9146C8.32283 10.9103 8.32198 10.9059 8.32155 10.9011C8.31897 10.8867 8.3164 10.8719 8.31425 10.8571C8.31168 10.8401 8.3091 10.8231 8.30738 10.8057C8.30524 10.7887 8.30352 10.7713 8.3018 10.7543C8.30052 10.7386 8.29923 10.7225 8.29837 10.7068C8.29708 10.688 8.29622 10.6693 8.2958 10.6506C8.29537 10.6336 8.29494 10.6161 8.29494 10.5987C8.29494 10.5669 8.29579 10.5355 8.29751 10.5042C8.29837 10.4885 8.29923 10.4732 8.30052 10.4575C8.3018 10.4419 8.30352 10.4266 8.30524 10.4109C8.30653 10.397 8.30824 10.3835 8.30996 10.37C8.31039 10.3673 8.31082 10.3647 8.31125 10.3621C8.31296 10.349 8.31468 10.3355 8.31725 10.3225C8.31811 10.3164 8.31897 10.3103 8.32026 10.3046C8.32198 10.2924 8.32412 10.2802 8.3267 10.2684C8.3267 10.2676 8.32713 10.2671 8.32713 10.2663C8.3297 10.2532 8.33185 10.2397 8.33528 10.2266C8.33914 10.2079 8.34344 10.1896 8.34816 10.1713C8.35502 10.1447 8.36232 10.1185 8.37047 10.0924C8.37047 10.0915 8.3709 10.0911 8.3709 10.0902C8.37176 10.088 8.37219 10.0859 8.37305 10.0837C8.37391 10.0806 8.37477 10.078 8.37605 10.075C8.37691 10.0711 8.3782 10.0667 8.37992 10.0628C8.38077 10.0589 8.38249 10.0545 8.38378 10.0501C8.39451 10.0179 8.40653 9.98565 8.41897 9.95428C8.42369 9.94251 8.42841 9.93118 8.43356 9.91942C8.437 9.91114 8.44043 9.90286 8.44429 9.89502C8.44901 9.88369 8.45416 9.8728 8.45931 9.8619C8.46103 9.85842 8.46275 9.85493 8.46404 9.85145C8.46919 9.84099 8.47434 9.83053 8.47991 9.82007C8.48592 9.80787 8.49236 9.79567 8.4988 9.78347C8.50738 9.76735 8.5164 9.75166 8.52541 9.73598C8.53356 9.72203 8.54172 9.70809 8.5503 9.69414C8.55931 9.67977 8.56833 9.66539 8.57777 9.65101C8.58721 9.63663 8.59665 9.62225 8.60652 9.60831C8.63013 9.57476 8.65459 9.54208 8.68034 9.51027C8.68893 9.49981 8.69794 9.48935 8.70652 9.47889C8.73313 9.44796 8.7606 9.41789 8.78936 9.3887C8.7988 9.37911 8.80867 9.36953 8.81854 9.35994C8.82798 9.35035 8.83786 9.3412 8.84816 9.33205C8.86361 9.31767 8.87949 9.30373 8.89537 9.28979C8.96189 9.23314 9.03271 9.18129 9.10738 9.13511C9.13056 9.12073 9.15416 9.10678 9.1782 9.09371C9.19022 9.08717 9.20223 9.08064 9.21425 9.07454C9.22627 9.068 9.23871 9.0619 9.25073 9.0558C9.27004 9.04665 9.28936 9.0375 9.30867 9.02922C9.32283 9.02268 9.33743 9.01658 9.35202 9.01048C9.37434 9.00133 9.39708 8.99262 9.41983 8.98478C9.43356 8.97955 9.44773 8.97475 9.46146 8.96996H9.46232C9.48077 8.96386 9.49923 8.95776 9.51768 8.95253C9.51854 8.95253 9.5194 8.95253 9.52026 8.95166C9.53828 8.94643 9.55631 8.94164 9.57434 8.93728C9.59923 8.93075 9.62412 8.92508 9.64944 8.92029C9.66919 8.91593 9.6885 8.91244 9.70824 8.90939C9.71897 8.90722 9.7297 8.90591 9.74043 8.90417C9.76318 8.90068 9.78592 8.89807 9.8091 8.89545C9.84343 8.89197 9.87777 8.88935 9.91253 8.88804C9.93528 8.88717 9.95803 8.88674 9.9812 8.88674C10.0044 8.88674 10.0271 8.88674 10.0499 8.88804C10.0846 8.88935 10.119 8.89197 10.1533 8.89545C10.1765 8.89807 10.1992 8.90068 10.222 8.90417C10.2327 8.90591 10.2434 8.90722 10.2542 8.90939C10.2739 8.91244 10.2936 8.91593 10.313 8.92029C10.3383 8.92508 10.3632 8.93075 10.3881 8.93728C10.4061 8.94164 10.4241 8.94643 10.4421 8.95166C10.443 8.9521 10.4439 8.95253 10.4447 8.95253C10.4632 8.95776 10.4816 8.96386 10.5001 8.96996H10.5009C10.5147 8.97475 10.5288 8.97955 10.5426 8.98478C10.5786 8.99741 10.6143 9.01136 10.649 9.02704C10.6576 9.03053 10.6662 9.03445 10.6743 9.03837C10.6992 9.04926 10.7237 9.06147 10.7482 9.07454C10.7602 9.08064 10.7722 9.08717 10.7842 9.09371C10.7962 9.10025 10.8078 9.10722 10.8198 9.11375C10.9138 9.16909 11.0022 9.23314 11.0838 9.3046C11.0941 9.31375 11.1039 9.3229 11.1142 9.33205C11.1241 9.3412 11.134 9.35035 11.1439 9.35994C11.1876 9.40264 11.2293 9.44752 11.2688 9.49458C11.3207 9.55733 11.3688 9.62399 11.4121 9.69414C11.4228 9.71157 11.4331 9.72944 11.4434 9.7473C11.4597 9.77606 11.4752 9.80569 11.4902 9.83576L11.4979 9.85145C11.4997 9.85493 11.5009 9.85842 11.5027 9.8619C11.5082 9.8728 11.5134 9.88369 11.5177 9.89502C11.5215 9.90286 11.525 9.91114 11.5284 9.91942C11.5336 9.93118 11.5383 9.94251 11.543 9.95428C11.5452 9.95994 11.5477 9.96604 11.5499 9.9717C11.5597 9.99698 11.5692 10.0227 11.5778 10.0484C11.5795 10.0528 11.5803 10.0567 11.5821 10.061C11.5821 10.0615 11.5825 10.0623 11.5825 10.0628C11.5833 10.0654 11.5842 10.068 11.5846 10.0706C11.5859 10.0741 11.5872 10.0772 11.5881 10.0806C11.5889 10.0837 11.5902 10.0872 11.5911 10.0902C11.5911 10.0911 11.5915 10.0915 11.5919 10.0924C11.5967 10.1081 11.6014 10.1242 11.6057 10.1399C11.6087 10.1508 11.6112 10.1617 11.6142 10.1726C11.6177 10.1861 11.6207 10.1992 11.6237 10.2127C11.6258 10.2223 11.6284 10.2327 11.6301 10.2423C11.6306 10.2436 11.6306 10.2445 11.631 10.2458C11.634 10.2602 11.6366 10.2745 11.6391 10.2889C11.6413 10.2998 11.643 10.3111 11.6447 10.3225C11.6473 10.3355 11.649 10.349 11.6507 10.3621C11.6507 10.3647 11.6516 10.3673 11.652 10.37C11.6537 10.3835 11.6555 10.397 11.6567 10.4109C11.6585 10.4266 11.6602 10.4419 11.6615 10.4575C11.6627 10.4732 11.6636 10.4885 11.6645 10.5042C11.6662 10.5355 11.667 10.5669 11.667 10.5987C11.667 10.6161 11.667 10.6336 11.6662 10.6506C11.6658 10.6693 11.6649 10.688 11.6636 10.7068C11.6627 10.7225 11.6615 10.7382 11.6602 10.7538C11.6585 10.7708 11.6567 10.7883 11.6546 10.8053C11.6546 10.8087 11.6537 10.8127 11.6533 10.8166C11.6516 10.8297 11.6499 10.8432 11.6477 10.8567C11.6464 10.8658 11.6452 10.8745 11.6434 10.8837C11.6426 10.8898 11.6417 10.8955 11.6404 10.9011C11.6383 10.9155 11.6357 10.9294 11.6327 10.9434C11.6297 10.9573 11.6267 10.9708 11.6237 10.9848C11.6027 11.0772 11.5743 11.1665 11.5391 11.2528C11.5387 11.2541 11.5383 11.2549 11.5379 11.2562C11.5349 11.2628 11.5323 11.2693 11.5293 11.2758C11.522 11.2937 11.5142 11.3116 11.5057 11.329C11.4984 11.3451 11.4902 11.3612 11.4821 11.3774C11.4761 11.3896 11.4696 11.4018 11.4632 11.414C11.4567 11.4262 11.4499 11.4379 11.4434 11.4501C11.4374 11.4606 11.431 11.4715 11.4246 11.4819C11.4173 11.4946 11.4095 11.5072 11.4014 11.5199C11.3932 11.5334 11.3846 11.5464 11.3756 11.5595C11.3658 11.5739 11.3559 11.5883 11.3456 11.6026C11.3413 11.6092 11.3366 11.6157 11.3314 11.6222C11.3224 11.6344 11.3134 11.6467 11.304 11.6584C11.2928 11.6728 11.2812 11.6872 11.2692 11.7011C11.2602 11.712 11.2512 11.7225 11.2417 11.7334C11.2301 11.7464 11.2185 11.7595 11.2061 11.7726C11.1898 11.7909 11.1722 11.8087 11.1546 11.8253C11.143 11.8371 11.131 11.8484 11.1185 11.8593C11.0997 11.8776 11.0808 11.8946 11.061 11.9107C11.0503 11.9203 11.0396 11.9294 11.0288 11.9373C10.7679 12.1499 10.4434 12.2846 10.0898 12.3072Z" fill="#338C9A"/>
<path d="M11.667 10.5987C11.667 10.6161 11.667 10.6336 11.6662 10.6506C11.6657 10.6693 11.6649 10.688 11.6636 10.7068C11.6627 10.7224 11.6614 10.7381 11.6602 10.7538C11.6584 10.7708 11.6567 10.7882 11.6546 10.8052C11.6546 10.8087 11.6537 10.8126 11.6533 10.8166C11.6516 10.8296 11.6499 10.8431 11.6477 10.8567C11.6464 10.8658 11.6451 10.8745 11.6434 10.8837C11.6426 10.8898 11.6417 10.8954 11.6404 10.9011C11.6383 10.9155 11.6357 10.9294 11.6327 10.9434C11.6297 10.9573 11.6267 10.9708 11.6237 10.9848C11.6026 11.0771 11.5743 11.1665 11.5391 11.2527C11.5387 11.254 11.5383 11.2549 11.5378 11.2562C11.5348 11.2628 11.5323 11.2693 11.5293 11.2758C11.522 11.2937 11.5142 11.3116 11.5057 11.329C11.4984 11.3451 11.4902 11.3612 11.482 11.3773C11.476 11.3895 11.4696 11.4018 11.4632 11.414C11.4567 11.4262 11.4499 11.4379 11.4434 11.4501C11.4374 11.4606 11.431 11.4715 11.4245 11.4819C11.4172 11.4946 11.4095 11.5072 11.4014 11.5198C11.3932 11.5333 11.3846 11.5464 11.3756 11.5595C11.3657 11.5739 11.3559 11.5882 11.3456 11.6026C11.3413 11.6092 11.3366 11.6157 11.3314 11.6222C11.3224 11.6344 11.3134 11.6466 11.3039 11.6584C11.2928 11.6728 11.2812 11.6872 11.2692 11.7011C11.2602 11.712 11.2511 11.7224 11.2417 11.7333C11.2301 11.7464 11.2185 11.7595 11.2061 11.7726C11.1889 11.7904 11.1722 11.8083 11.1546 11.8253C11.143 11.837 11.131 11.8484 11.1185 11.8593C11.0996 11.8771 11.0808 11.8941 11.061 11.9107C11.0503 11.9194 11.0396 11.9285 11.0288 11.9373C10.767 12.1482 10.4447 12.2811 10.1022 12.3055C10.0979 12.3059 10.0941 12.3063 10.0898 12.3072H10.0876C10.0524 12.3094 10.0168 12.3107 9.98119 12.3107C9.94557 12.3107 9.90994 12.3094 9.87475 12.3072H9.87218C9.86831 12.3063 9.86402 12.3059 9.86016 12.3055C9.47818 12.278 9.1211 12.1159 8.84514 11.8606C8.82539 11.8423 8.80608 11.8235 8.7872 11.8044C8.76831 11.7852 8.74986 11.7656 8.73183 11.7455C8.71853 11.7312 8.70565 11.7163 8.69321 11.7011C8.68076 11.6863 8.66831 11.671 8.6563 11.6553C8.64385 11.6397 8.63226 11.624 8.62067 11.6083C8.5975 11.576 8.57561 11.5434 8.55458 11.5098C8.54385 11.4928 8.53355 11.4758 8.52368 11.4588C8.51509 11.444 8.50694 11.4292 8.49878 11.414C8.48805 11.3939 8.47775 11.3734 8.46788 11.3529C8.45973 11.3364 8.45157 11.3194 8.44428 11.3024C8.44342 11.3011 8.44299 11.2998 8.44256 11.2985C8.43441 11.2802 8.42625 11.2614 8.41896 11.2427C8.41853 11.2423 8.41853 11.2414 8.4181 11.241C8.4181 11.2405 8.41767 11.2405 8.41767 11.2401C8.41767 11.2397 8.41724 11.2392 8.41724 11.2388C8.38977 11.1699 8.3666 11.098 8.34771 11.0253C8.34213 11.0022 8.33698 10.9795 8.33226 10.9564C8.32926 10.9425 8.32625 10.9285 8.32411 10.9146C8.32282 10.9102 8.32196 10.9059 8.32153 10.9011C8.31896 10.8867 8.31638 10.8719 8.31424 10.8571C8.31166 10.8401 8.30951 10.8227 8.30737 10.8057C8.30522 10.7887 8.30351 10.7712 8.30179 10.7543C8.3005 10.7386 8.29921 10.7224 8.29836 10.7068C8.29707 10.688 8.29621 10.6693 8.29578 10.6506C8.29535 10.6336 8.29492 10.6161 8.29492 10.5987C8.29492 10.5669 8.29578 10.5355 8.2975 10.5041C8.29836 10.4885 8.29921 10.4732 8.3005 10.4575C8.30179 10.4418 8.30351 10.4266 8.30522 10.4109C8.30651 10.397 8.30823 10.3834 8.30994 10.3699C8.31037 10.3673 8.3108 10.3647 8.31123 10.3621C8.31295 10.349 8.31467 10.3355 8.31724 10.3224C8.3181 10.3163 8.31896 10.3102 8.32024 10.3046C8.32196 10.2924 8.32411 10.2802 8.32668 10.2684C8.32668 10.2675 8.32711 10.2671 8.32711 10.2662C8.32969 10.2532 8.33183 10.2397 8.33527 10.2266C8.33913 10.2079 8.34342 10.1896 8.34814 10.1712C8.35501 10.1447 8.3623 10.1185 8.37046 10.0924C8.37046 10.0915 8.37089 10.0911 8.37089 10.0902C8.37175 10.088 8.37218 10.0858 8.37303 10.0837C8.37389 10.0806 8.37475 10.078 8.37604 10.075C8.3769 10.0736 8.37733 10.0719 8.37776 10.0706C8.37861 10.068 8.37947 10.0654 8.3799 10.0628C8.38076 10.0588 8.38248 10.0545 8.38376 10.0501C8.39449 10.0179 8.40651 9.98563 8.41896 9.95426C8.42368 9.94249 8.4284 9.93116 8.43355 9.9194C8.43698 9.91112 8.44042 9.90284 8.44428 9.895C8.449 9.88367 8.45415 9.87278 8.4593 9.86188C8.46102 9.8584 8.46273 9.85491 8.46402 9.85143C8.46917 9.84097 8.47432 9.83051 8.4799 9.82005C8.48591 9.80785 8.49235 9.79565 8.49878 9.78345C8.50737 9.76733 8.51638 9.75164 8.5254 9.73596C8.53355 9.72201 8.5417 9.70807 8.55029 9.69412C8.5593 9.67975 8.56831 9.66537 8.57775 9.65099C8.5872 9.63661 8.59664 9.62223 8.60651 9.60829C8.63012 9.57474 8.65458 9.54206 8.68033 9.51025C8.68891 9.49979 8.69793 9.48933 8.70651 9.47887C8.73312 9.44794 8.76059 9.41787 8.78934 9.38868C8.79879 9.37909 8.80866 9.36951 8.81853 9.35992C8.82797 9.35033 8.83784 9.34118 8.84814 9.33203C8.86359 9.31765 8.87947 9.30371 8.89535 9.28977C8.96188 9.23312 9.03269 9.18127 9.10737 9.13509C9.13055 9.12071 9.15415 9.10676 9.17818 9.09369C9.1902 9.08715 9.20222 9.08062 9.21424 9.07452C9.22625 9.06798 9.2387 9.06188 9.25072 9.05578C9.27003 9.04663 9.28934 9.03748 9.30866 9.0292C9.32282 9.02266 9.33741 9.01656 9.352 9.01046C9.37432 9.00131 9.39707 8.9926 9.41982 8.98476C9.43355 8.97953 9.44771 8.97474 9.46145 8.96994H9.4623C9.48076 8.96384 9.49921 8.95774 9.51767 8.95251C9.51853 8.95251 9.51939 8.95251 9.52024 8.95164C9.53827 8.94641 9.5563 8.94162 9.57432 8.93726C9.59921 8.93073 9.62411 8.92506 9.64943 8.92027C9.66917 8.91591 9.68849 8.91243 9.70823 8.90937C9.71896 8.9072 9.72969 8.90589 9.74042 8.90415C9.76316 8.90066 9.78591 8.89805 9.80908 8.89543C9.84342 8.89195 9.87775 8.88933 9.91252 8.88802C9.93527 8.88715 9.95801 8.88672 9.98119 8.88672C10.0044 8.88672 10.0271 8.88672 10.0499 8.88802C10.0846 8.88933 10.119 8.89195 10.1533 8.89543C10.1765 8.89805 10.1992 8.90066 10.222 8.90415C10.2327 8.90589 10.2434 8.9072 10.2542 8.90937C10.2739 8.91243 10.2936 8.91591 10.3129 8.92027C10.3383 8.92506 10.3632 8.93073 10.3881 8.93726C10.4061 8.94162 10.4241 8.94641 10.4421 8.95164C10.443 8.95208 10.4438 8.95251 10.4447 8.95251C10.4632 8.95774 10.4816 8.96384 10.5001 8.96994H10.5009C10.5147 8.97474 10.5288 8.97953 10.5426 8.98476C10.5786 8.99739 10.6142 9.01134 10.649 9.02702C10.6576 9.03051 10.6662 9.03443 10.6743 9.03835C10.6992 9.04925 10.7237 9.06145 10.7481 9.07452C10.7602 9.08062 10.7722 9.08715 10.7842 9.09369C10.7962 9.10023 10.8078 9.1072 10.8198 9.11373C10.9138 9.16907 11.0022 9.23312 11.0838 9.30458C11.0941 9.31373 11.1039 9.32288 11.1142 9.33203C11.1241 9.34118 11.134 9.35033 11.1438 9.35992C11.1876 9.40262 11.2293 9.4475 11.2687 9.49456C11.3207 9.55731 11.3687 9.62397 11.4121 9.69412C11.4228 9.71155 11.4331 9.72942 11.4434 9.74729C11.4597 9.77604 11.4752 9.80567 11.4902 9.83574L11.4979 9.85143C11.4996 9.85491 11.5009 9.8584 11.5026 9.86188C11.5082 9.87278 11.5134 9.88367 11.5177 9.895C11.5215 9.90284 11.525 9.91112 11.5284 9.9194C11.5335 9.93116 11.5383 9.94249 11.543 9.95426C11.5451 9.95992 11.5477 9.96602 11.5499 9.97168C11.5597 9.99696 11.5692 10.0227 11.5778 10.0484C11.5795 10.0527 11.5803 10.0567 11.582 10.061C11.582 10.0614 11.5825 10.0623 11.5825 10.0628C11.5833 10.0654 11.5842 10.068 11.5846 10.0706C11.5859 10.0741 11.5872 10.0771 11.5881 10.0806C11.5889 10.0837 11.5902 10.0872 11.5911 10.0902C11.5911 10.0911 11.5915 10.0915 11.5919 10.0924C11.5966 10.1081 11.6014 10.1242 11.6057 10.1399C11.6087 10.1508 11.6112 10.1617 11.6142 10.1726C11.6177 10.1861 11.6207 10.1991 11.6237 10.2126C11.6258 10.2222 11.6284 10.2327 11.6301 10.2423C11.6305 10.2436 11.6305 10.2445 11.631 10.2458C11.634 10.2601 11.6366 10.2745 11.6391 10.2889C11.6413 10.2998 11.643 10.3111 11.6447 10.3224C11.6473 10.3355 11.649 10.349 11.6507 10.3621C11.6507 10.3647 11.6516 10.3673 11.652 10.3699C11.6537 10.3834 11.6554 10.397 11.6567 10.4109C11.6584 10.4266 11.6602 10.4418 11.6614 10.4575C11.6627 10.4732 11.6636 10.4885 11.6645 10.5041C11.6662 10.5355 11.667 10.5669 11.667 10.5987Z" fill="url(#paint5_radial_744_5308)"/>
</g>
<defs>
<linearGradient id="paint0_linear_744_5308" x1="9.98108" y1="8.59691" x2="9.98108" y2="0.528503" gradientUnits="userSpaceOnUse">
<stop stop-color="#89C9D3"/>
<stop offset="0.99" stop-color="#338C9A"/>
</linearGradient>
<linearGradient id="paint1_linear_744_5308" x1="8.40121" y1="8.3259" x2="0.487475" y2="8.3259" gradientUnits="userSpaceOnUse">
<stop stop-color="#89C9D3"/>
<stop offset="0.99" stop-color="#338C9A"/>
</linearGradient>
<linearGradient id="paint2_linear_744_5308" x1="6.04808" y1="11.6484" x2="6.04808" y2="19.4636" gradientUnits="userSpaceOnUse">
<stop stop-color="#89C9D3"/>
<stop offset="0.99" stop-color="#338C9A"/>
</linearGradient>
<linearGradient id="paint3_linear_744_5308" x1="11.5785" y1="11.8436" x2="15.6757" y2="18.8334" gradientUnits="userSpaceOnUse">
<stop stop-color="#89C9D3"/>
<stop offset="0.99" stop-color="#338C9A"/>
</linearGradient>
<linearGradient id="paint4_linear_744_5308" x1="13.175" y1="11.9415" x2="18.7944" y2="6.40656" gradientUnits="userSpaceOnUse">
<stop stop-color="#89C9D3"/>
<stop offset="0.99" stop-color="#338C9A"/>
</linearGradient>
<radialGradient id="paint5_radial_744_5308" cx="0" cy="0" r="1" gradientUnits="userSpaceOnUse" gradientTransform="translate(9.98119 10.5987) scale(1.68627 1.71198)">
<stop stop-color="#89C9D3"/>
<stop offset="0.99" stop-color="#338C9A"/>
</radialGradient>
<clipPath id="clip0_744_5308">
<rect width="20" height="20" fill="white"/>
</clipPath>
</defs>
</svg>
