<svg width="144" height="90" viewBox="0 0 144 90" fill="none" xmlns="http://www.w3.org/2000/svg">
<g clip-path="url(#clip0_730_1494)">
<path d="M33.4494 79.6012C33.6817 80.0572 34.1589 79.9855 34.5431 80.1037C36.7052 80.754 37.7399 82.0504 37.5118 83.8367C37.288 85.585 35.6622 86.9659 33.5085 86.8012C31.7096 86.666 30.0289 86.0791 28.1624 86.8645C26.6337 87.5064 26.0383 86.514 26.2916 84.9558C26.8617 81.4423 26.5704 77.9585 25.8989 74.4788C25.768 73.7905 25.0712 72.5912 26.4817 72.4772C27.6134 72.3885 29.2688 71.299 29.7333 73.7483C31.1268 72.2956 32.7062 71.7677 34.5262 72.1098C35.4848 72.2914 36.1689 72.8953 36.6715 73.6892C37.9383 75.6866 37.1698 77.0801 33.4536 79.597H33.4494V79.6012ZM33.2509 75.7541C33.1327 75.0025 33.2805 73.9256 32.0347 73.7441C30.8566 73.5709 29.2645 75.978 29.2054 77.9585C29.1843 78.6426 28.9858 79.4238 30.1556 79.3689C31.6462 79.3013 33.1791 77.6206 33.2509 75.7541ZM33.555 84.0014C33.5719 82.1222 32.2417 80.5429 30.7383 80.4753C29.9318 80.4373 29.3786 80.6653 29.3828 81.6155C29.3912 83.1526 31.1564 85.6525 32.2543 85.5977C33.3818 85.5428 33.5254 84.7108 33.5592 84.0014H33.555Z" fill="#11345E"/>
<path d="M54.7242 73.9299C56.4852 72.1267 58.2926 71.6495 60.3069 72.5785C61.5231 73.1402 62.3043 74.1579 62.3001 75.5641C62.2874 78.0683 60.138 78.5623 58.0012 79.6814C61.9538 79.7363 62.3254 82.6965 63.3389 85.0782C63.6049 85.699 63.0686 85.9228 62.621 86.1466C60.7798 87.0503 59.1498 86.2184 58.736 84.1239C58.4615 82.7472 58.3855 81.2903 56.9159 80.5386C56.3543 80.2515 55.7757 79.9517 55.1296 80.3191C54.4455 80.7076 54.4962 81.3621 54.5764 81.9913C54.6651 82.6839 54.8256 83.3722 54.9396 84.0605C55.3239 86.3747 55.2057 86.4338 52.9422 86.4211C51.422 86.4127 51.2277 85.7412 51.4177 84.4364C51.916 81.0074 51.764 77.5869 51.0588 74.1874C50.911 73.4738 50.2142 72.2914 51.5824 72.2111C52.7226 72.1436 54.6018 71.2314 54.7285 73.9383V73.9299H54.7242ZM58.4024 75.543C58.3052 74.7786 58.2546 73.7778 56.9877 73.7652C55.7757 73.7567 54.264 76.2693 54.2597 78.0978C54.2597 78.9128 54.53 79.2422 55.3703 79.162C57.0468 79.0015 58.4361 77.4475 58.3981 75.543H58.4024Z" fill="#11345E"/>
<path d="M72.1394 81.2861C72.435 78.6552 71.9409 76.6958 71.5778 74.7195C71.4722 74.1368 71.1048 73.3091 71.8269 73.0093C72.7306 72.6292 73.7905 72.7517 74.7238 73.0346C75.543 73.2837 75.2474 74.0988 75.1503 74.6731C74.5591 78.1232 74.8083 81.5268 75.5684 84.9178C75.7246 85.6145 76.0624 86.7083 74.8378 86.6534C73.7863 86.6069 72.1267 87.5317 71.848 85.433C71.4088 82.1264 69.8886 79.1958 68.6006 76.1384C67.6969 78.8073 68.2375 81.4381 68.702 84.0521C69.1369 86.4929 69.0314 86.5774 66.675 86.5393C65.0281 86.514 65.0534 85.6357 65.2646 84.4744C65.8431 81.2439 65.5771 78.0429 64.9647 74.8462C64.8169 74.0776 63.9893 72.815 65.4335 72.6376C66.6497 72.4898 68.3261 71.8817 69.0018 73.8454C69.7112 75.9019 70.4967 77.9289 71.2695 79.9643C71.3835 80.2684 71.6327 80.5218 72.1436 81.2861H72.1394Z" fill="#11345E"/>
<path d="M93.2326 77.4137C92.9665 79.9601 93.3255 82.4516 93.828 84.9389C93.942 85.5132 94.4656 86.3367 93.7393 86.6618C92.7132 87.1179 91.497 87.0588 90.4497 86.6872C89.7614 86.4465 90.0739 85.5765 90.1245 84.9685C90.1837 84.2717 90.4286 83.5707 90.3821 82.8824C90.3315 82.1265 91.0578 80.7371 89.4742 80.8723C88.2665 80.9778 86.8983 81.379 86.7969 83.0344C86.7716 83.4398 86.9447 83.8578 87.0249 84.2717C87.5148 86.8265 87.0334 87.253 84.3603 86.8265C83.5411 86.6956 83.2159 86.324 83.3426 85.5808C83.9929 81.8562 83.8324 78.1739 82.9119 74.5084C82.6585 73.4949 83.1526 72.9459 84.1365 73.1866C85.0951 73.4231 86.818 72.3885 86.7842 74.5126C86.7631 75.771 86.4929 77.0295 86.4802 78.2879C86.4717 79.0818 85.9185 80.488 87.3121 80.4162C88.5156 80.3528 90.1625 80.0277 90.1837 78.233C90.1963 77.1308 89.8627 76.0202 89.6642 74.918C89.4869 73.9425 89.6009 73.1233 90.8551 73.3682C91.8221 73.554 93.5113 72.511 93.4859 74.6731C93.4733 75.581 93.3212 76.4931 93.2326 77.4011V77.4137Z" fill="#11345E"/>
<path d="M17.2251 78.4441C17.4363 80.7329 17.1871 82.7937 17.7783 84.7826C18.019 85.5977 18.226 86.5647 19.2943 86.514C20.3543 86.4633 20.5992 85.4499 20.6752 84.6475C20.9962 81.2777 20.8357 77.912 20.2234 74.5802C20.1136 73.9805 19.6997 73.2669 20.4514 72.8826C21.3467 72.4223 22.3982 72.4012 23.3314 72.6588C24.1042 72.8741 23.8255 73.7229 23.7664 74.3141C23.4961 77.0506 23.5468 79.7701 23.7241 82.515C23.9353 85.775 22.0477 87.6415 18.7834 87.6838C15.916 87.7218 14.4211 86.0326 14.5056 82.6965C14.5689 80.1544 14.3663 77.6502 13.8046 75.1672C13.6695 74.5802 13.3105 73.7989 14.0158 73.4484C14.8899 73.0177 15.9456 72.8319 16.8915 73.098C17.8121 73.3598 17.3729 74.2804 17.3687 74.9222C17.356 76.1849 17.2674 77.4475 17.2251 78.4441Z" fill="#11345E"/>
<path d="M126.788 79.4027C130.119 79.124 130.491 81.7253 131.534 83.6974C131.893 84.3772 131.475 84.5842 131.082 84.8502C129.212 86.1424 127.315 85.3443 126.88 83.0766C126.762 82.4558 126.762 81.7971 126.348 81.2819C125.757 80.5429 125.052 79.8757 124.026 80.2177C122.945 80.5809 123.173 81.5099 123.325 82.3587C123.397 82.7725 123.43 83.1948 123.511 83.6087C123.912 85.7159 122.869 86.6027 120.74 86.0368C119.803 85.7877 119.976 85.112 120.077 84.5377C120.66 81.227 120.441 77.9585 119.664 74.7069C119.541 74.1874 119.326 73.478 119.989 73.2035C120.909 72.8235 121.94 72.8023 122.886 73.0642C123.595 73.2626 123.325 74.0016 123.287 74.5295C123.207 75.6486 123.084 76.7676 122.979 77.8867C122.822 79.5252 123.663 79.5125 124.739 78.8917C126.133 78.0894 126.889 76.8943 126.665 75.2221C126.505 74.0312 126.885 73.0979 128.059 72.7052C128.979 72.3969 130.698 72.1774 130.719 72.8319C130.757 74.179 130.977 75.7752 129.972 77.0252C129.174 78.0176 127.995 78.5032 126.788 79.3942V79.4027Z" fill="#11345E"/>
<path d="M6.02605 87.7006C6.03449 89.0224 3.93995 90.3104 2.67309 89.7572C1.85385 89.4025 2.27614 88.8281 2.49573 88.3594C4.32845 84.4575 4.95344 80.3148 4.89854 76.0624C4.86898 73.6216 6.78616 74.293 8.03191 73.9256C9.48458 73.4949 9.80552 74.4408 9.99555 75.6274C10.5867 79.3267 11.7565 82.8443 13.4161 86.2057C13.6779 86.7336 14.248 87.3797 13.5892 87.9202C12.5968 88.7352 11.3342 88.6254 10.1602 88.5156C9.45924 88.4481 9.49725 87.7555 9.42968 87.1854C9.31989 86.21 9.80552 84.9009 8.47954 84.4828C7.60962 84.2083 6.02182 86.4211 6.02605 87.7091V87.7006ZM6.73549 77.8951C5.78534 80.0277 5.47285 81.8646 5.55731 83.7776C5.57842 84.2801 5.67555 84.9684 6.33432 84.5757C7.36047 83.9592 8.70335 83.4144 8.20505 81.7253C7.85455 80.5429 7.61385 79.3225 6.73549 77.8951Z" fill="#11345E"/>
<path d="M45.8646 78.9762C45.7421 77.2237 45.7675 75.4585 45.3241 73.7398C44.9778 72.4138 45.569 71.9493 46.8654 72.0633C47.938 72.1605 49.3231 71.7509 48.9938 73.6638C48.525 76.3918 48.6179 79.1071 48.9135 81.8562C49.1922 84.4279 47.5833 86.1424 44.9947 86.3789C42.1231 86.6407 39.8892 85.2556 39.7499 82.743C39.5725 79.5843 39.4754 76.4382 38.8631 73.3175C38.5084 71.5144 39.9822 72.1647 40.8056 72.0718C41.8656 71.9578 42.8241 72.0169 42.5666 73.5836C42.0894 76.4551 42.2921 79.3351 42.651 82.2025C42.727 82.8232 42.8875 83.444 43.0733 84.0436C43.2887 84.7446 43.6476 85.4119 44.5133 85.3232C45.3536 85.2345 45.5775 84.5166 45.7379 83.8072C46.1095 82.2025 45.9829 80.5893 45.8646 78.9762Z" fill="#11345E"/>
<path d="M137.269 84.4279C134.777 84.4997 133.401 83.6551 133.012 81.8688C132.843 81.0876 132.894 80.4204 133.755 80.1712C134.739 79.8883 135.651 79.0311 136.72 79.4745C137.142 79.6476 136.83 80.3782 136.8 80.8596C136.724 82.1095 136.72 83.52 138.413 83.4186C139.942 83.3257 140.411 82.0251 140.322 80.6231C140.221 79.0606 139.241 78.2498 137.767 77.9838C136.8 77.8064 135.799 77.7558 134.857 77.4982C132.535 76.869 131.918 74.5379 133.785 73.0008C136.044 71.1385 138.793 70.8725 141.572 71.489C142.661 71.7339 143.523 72.7305 143.185 73.8623C142.822 75.0658 141.407 75.07 140.351 75.2938C139.748 75.4205 139.574 74.8462 139.642 74.2803C139.748 73.4231 139.862 72.4941 138.781 72.19C138.004 71.9704 137.37 72.4349 137.074 73.1148C136.661 74.0692 136.678 75.0573 137.497 75.847C138.012 76.3453 138.683 76.5734 139.372 76.7549C140.254 76.9872 141.128 77.2575 142.003 77.5151C143.071 77.8318 143.949 78.3554 144.127 79.5843C144.317 80.8849 143.89 81.9449 142.83 82.7219C141.175 83.9296 139.27 84.3392 137.269 84.4152V84.4279Z" fill="#11345E"/>
<path d="M100.821 73.4949C102.519 73.1866 103.283 73.8792 103.528 75.5599C103.993 78.7735 105.2 81.7633 106.661 84.656C106.923 85.1754 107.612 85.7792 107.054 86.3451C106.163 87.2488 104.934 86.7505 103.849 86.7843C103.182 86.8054 102.882 86.3071 102.814 85.6821C102.793 85.4752 102.823 85.2598 102.793 85.0529C102.667 84.2168 102.958 82.8781 101.704 82.9837C100.589 83.0808 99.4023 83.7354 99.3558 85.2472C99.3389 85.813 99.8583 86.6449 98.8871 86.7927C97.8651 86.949 96.7461 87.1263 95.7917 86.6492C95.2723 86.3873 95.6735 85.7792 95.9184 85.3612C97.6202 82.4305 98.2452 79.1916 98.3085 75.885C98.3465 73.9679 98.8828 73.0768 100.825 73.4949H100.821ZM100.167 76.9957C99.2291 78.4272 98.9462 79.7236 98.9335 81.0496C98.9293 81.6535 98.3803 82.9077 99.7443 82.6628C100.673 82.4981 101.953 82.0716 101.636 80.6442C101.374 79.4618 101.083 78.233 100.167 76.9914V76.9957Z" fill="#11345E"/>
<path d="M117.903 83.1864C117.083 86.0664 115.023 87.1179 112.206 86.5225C108.76 85.7877 106.704 82.2827 107.409 78.3427C108.009 75.0193 110.753 72.967 114.085 73.3386C115.496 73.4949 116.615 74.1325 117.426 75.2896C118.739 77.1646 118.127 78.7101 115.88 79.1071C114.74 79.3056 113.401 79.5589 114.132 77.5573C114.199 77.3673 114.195 77.1392 114.174 76.9323C114.064 75.9104 114.203 74.4704 112.97 74.3395C111.813 74.2212 111.737 75.6317 111.505 76.5565C110.994 78.575 111.049 80.6062 111.657 82.5867C112.527 85.4245 114.385 85.9566 116.741 84.107C117.007 83.9 117.269 83.6931 117.907 83.1948V83.1864H117.903Z" fill="#11345E"/>
<path d="M9.23966 62.6252C9.40435 62.6294 9.54793 62.8405 9.53948 63.1235L9.49303 64.6099C9.48459 64.8591 9.35368 65.0702 9.18899 65.0998C9.17209 65.0998 9.14676 65.1082 9.12142 65.1082C8.99896 65.1082 8.82582 65.0533 8.61045 65.0449C8.41198 65.0406 8.17127 65.066 7.91368 65.2053C7.82922 65.2476 7.7701 65.37 7.76588 65.4967C7.76588 65.5432 7.7701 65.5896 7.78699 65.6361L8.09948 66.4511C8.22195 66.772 8.43731 66.9747 8.67802 66.9789C8.72025 66.9789 8.77092 66.9705 8.81737 66.962C8.93561 66.9325 9.03274 66.9029 9.09186 66.8776C9.1172 66.8649 9.14253 66.8691 9.16787 66.8691C9.28189 66.8691 9.38746 66.9789 9.40858 67.1478C9.41702 67.1816 9.4128 67.2154 9.4128 67.2492L9.36212 68.8286C9.35368 69.0313 9.24388 69.1791 9.12142 69.1748C9.07919 69.1748 9.04963 69.1622 9.0074 69.1242H8.99896L8.51755 68.6765C7.124 67.5279 5.17725 67.1732 4.32001 67.1436H4.18066C3.99907 67.1352 3.87661 66.8691 3.88505 66.5947L3.93573 64.9266C3.94417 64.6521 4.10042 64.4199 4.27356 64.4156C5.16036 64.3523 5.91626 64.1285 6.69327 63.854C7.47872 63.5711 8.24306 63.1995 8.98206 62.7307C8.98206 62.7307 9.04119 62.6969 9.12564 62.642C9.16787 62.6209 9.2101 62.6125 9.24388 62.6125L9.23966 62.6252ZM7.4196 65.8303C7.34359 65.6234 7.20001 65.4925 7.05221 65.4883C7.01843 65.4883 6.98464 65.4967 6.95086 65.5094C6.61725 65.6107 5.76423 65.8937 5.36306 66.0964C5.32928 66.1175 5.31239 66.1639 5.30816 66.2104C5.30394 66.2568 5.32083 66.3033 5.34617 66.3244C6.10206 66.9283 6.90863 67.1014 7.58429 67.1225C7.68986 67.1225 7.76165 66.9916 7.76588 66.8438C7.76588 66.7973 7.76165 66.7425 7.74476 66.696L7.41538 65.8345L7.4196 65.8303Z" fill="#EB4A1E"/>
<path d="M6.91288 57.6718C6.76085 57.6253 6.77352 57.4691 6.44836 57.3044C6.4188 57.2875 6.35968 57.2791 6.28789 57.2706C5.89516 57.2115 5.04637 57.258 4.9788 57.7098C4.89012 58.3052 5.90783 58.9513 7.26338 59.1498C8.5598 59.3398 9.43816 58.8289 9.64508 58.0983C9.66619 58.0223 9.6873 57.9336 9.69997 57.8534C9.79288 57.2368 9.59018 56.6203 9.25657 56.122C9.23123 56.0713 9.22279 56.0122 9.23123 55.9446C9.23968 55.8982 9.2439 55.856 9.26502 55.8222C9.30725 55.7462 9.37059 55.7208 9.43816 55.7335C9.47194 55.7377 9.5015 55.7546 9.52261 55.7799C9.77598 56.0375 10.4812 56.747 10.2574 58.2799C9.9449 60.3955 8.49223 61.5357 6.95088 61.3077C5.40109 61.0796 4.35382 59.4412 4.61986 57.6549C4.89857 55.7757 5.89094 55.3239 6.35546 55.1761C6.46948 55.1465 6.58772 55.1296 6.70173 55.1465C6.76508 55.155 6.83264 55.1761 6.89176 55.2099C7.20848 55.3703 7.45763 55.7757 7.28027 57.0933C7.20425 57.6127 7.04379 57.6887 6.93821 57.676H6.92132L6.91288 57.6718Z" fill="#EB4A1E"/>
<path d="M12.1872 47.5115C12.3139 47.5115 12.4364 47.5369 12.5588 47.5664C12.6559 47.5918 12.7024 47.7269 12.6644 47.8578L12.2125 49.4541C12.1957 49.5216 12.1534 49.5681 12.107 49.6145C12.0647 49.6483 12.0183 49.661 11.9676 49.6483C11.8494 49.6145 11.7311 49.5681 11.6213 49.5047L11.4144 49.3865C10.8274 49.0318 10.2151 48.7784 9.56903 48.5968C9.0834 48.4617 8.58932 48.3688 8.07413 48.3308C8.0319 48.3308 8.00656 48.3603 7.9939 48.4026C7.98123 48.4448 7.98545 48.4955 8.01501 48.5124L9.99976 50.2057C10.1307 50.3155 10.1518 50.5224 10.1011 50.6956C10.0547 50.8603 9.94064 51.0165 9.78439 51.0545L7.28868 51.7217C7.28868 51.7217 7.24645 51.7471 7.238 51.7766C7.23378 51.7978 7.238 51.8231 7.26334 51.8442C7.65184 52.0722 8.07413 52.2623 8.50064 52.3805C9.07073 52.541 9.66615 52.5917 10.2785 52.5494L10.7768 52.5114C10.8992 52.5114 11.0217 52.5199 11.1357 52.5536C11.2371 52.5832 11.2877 52.7141 11.2497 52.845L10.9541 53.8965C10.9161 54.0274 10.8063 54.1161 10.705 54.0865C10.5952 54.057 10.4812 53.9979 10.3798 53.9345L9.97442 53.6431C9.4719 53.2884 8.93982 53.0224 8.36973 52.8619C7.79964 52.7014 7.20422 52.6508 6.5919 52.6888L6.10205 52.7268C5.97536 52.7268 5.85712 52.7183 5.73888 52.6846C5.63753 52.655 5.58686 52.5241 5.62486 52.3932L6.03026 50.949C6.08093 50.7631 6.20762 50.6196 6.34697 50.59L8.62733 49.9819C8.67378 49.9735 8.71178 49.9228 8.72445 49.8806C8.74134 49.813 8.7329 49.7539 8.69489 49.7201L6.93818 48.221H6.92973C6.92973 48.221 6.89172 48.1703 6.88328 48.145C6.86216 48.0943 6.86216 48.0352 6.87061 47.9761L7.32668 46.3587C7.36469 46.2278 7.47448 46.1391 7.56738 46.1687C7.68563 46.2024 7.80387 46.2489 7.91366 46.3122L8.11636 46.4389C8.70756 46.781 9.31988 47.0386 9.96175 47.2202C10.6036 47.4017 11.2624 47.5031 11.9423 47.52H12.183L12.1872 47.5115Z" fill="#EB4A1E"/>
<path d="M13.3443 40.9028C12.998 41.0886 12.6686 41.1055 12.373 40.9619C12.0774 40.8183 11.8958 40.5438 11.8283 40.1553C11.7565 39.7668 11.824 39.3699 12.0183 38.9602C12.2125 38.5506 12.487 38.255 12.8417 38.0692C13.188 37.8834 13.5174 37.8496 13.8046 37.9932C14.1002 38.1368 14.2817 38.4113 14.3578 38.804C14.4211 39.2009 14.3578 39.5979 14.1677 39.9991C13.965 40.4171 13.6948 40.7169 13.3485 40.9028H13.3443Z" fill="#EB4A1E"/>
<path d="M22.9345 28.5762C23.0696 28.6733 23.0696 28.9267 22.9049 29.1547L22.035 30.3625C21.8872 30.5652 21.6634 30.6707 21.5071 30.5989C21.4945 30.5905 21.4649 30.5821 21.448 30.5694C21.3467 30.4976 21.2326 30.3582 21.0595 30.2358C20.899 30.1218 20.6837 30.0077 20.3923 29.9782C20.2994 29.9655 20.1812 30.0331 20.1051 30.1344C20.0798 30.1724 20.0587 30.2147 20.046 30.2611L19.8518 31.1141C19.7715 31.452 19.8433 31.7349 20.0376 31.8785C20.0714 31.9038 20.1178 31.9207 20.1643 31.9418C20.2783 31.9798 20.3796 32.0136 20.4387 32.0263C20.4641 32.0305 20.4852 32.0474 20.5063 32.0601C20.5992 32.1276 20.6288 32.2712 20.5485 32.4275C20.5359 32.4612 20.5148 32.4866 20.4936 32.5161L19.5731 33.7999C19.4548 33.9646 19.2817 34.0237 19.1803 33.9519C19.1465 33.9266 19.1254 33.897 19.1128 33.8463H19.1043L18.9523 33.2002C18.4371 31.4731 17.0182 30.088 16.3214 29.5897L16.2074 29.5094C16.0596 29.4039 16.1061 29.1125 16.2623 28.8929L17.2378 27.5374C17.3983 27.3178 17.6559 27.208 17.8037 27.3009C18.5722 27.7443 19.3281 27.9765 20.1263 28.1877C20.937 28.3904 21.7774 28.5044 22.6515 28.534C22.6515 28.534 22.7191 28.5382 22.8204 28.5424C22.8669 28.5466 22.9091 28.5635 22.9345 28.5804V28.5762ZM19.6364 30.2231C19.6871 30.0077 19.6406 29.8219 19.5224 29.7333C19.497 29.7121 19.4633 29.7037 19.4295 29.6953C19.0959 29.5939 18.2344 29.3532 17.7826 29.2983C17.7446 29.2983 17.7023 29.3236 17.677 29.3616C17.6516 29.3997 17.639 29.4461 17.6432 29.4799C17.9346 30.4047 18.5047 30.9959 19.0536 31.3886C19.1423 31.452 19.2732 31.3802 19.3619 31.2577C19.3872 31.2197 19.4168 31.169 19.4295 31.1226L19.6406 30.2231H19.6364Z" fill="#EB4A1E"/>
<path d="M22.7613 26.7477C22.698 26.6928 22.6473 26.6294 22.5882 26.5576C22.3559 26.2874 22.1448 26.0509 22.0054 25.9242C21.5113 25.4766 20.9582 25.1007 20.3543 24.784L20.1431 24.67C20.0291 24.6109 19.9278 24.5391 19.8433 24.4589C19.8011 24.4208 19.7842 24.3744 19.7926 24.3195C19.7969 24.2646 19.8264 24.197 19.8729 24.1464L20.9793 22.9217C21.0764 22.8119 21.2157 22.7824 21.2875 22.8499C21.3804 22.9344 21.4565 23.0315 21.5325 23.1329L21.6592 23.3398C21.9928 23.8423 22.415 24.2393 22.85 24.632L23.0274 24.7925C23.3103 25.0458 23.1329 24.8854 23.551 25.2485C23.8635 25.5315 24.8854 26.3169 25.4513 25.6962C26.0467 25.0374 25.1346 24.1379 24.8221 23.855C24.4209 23.4749 24.5898 23.6312 24.3111 23.3778L24.1338 23.2173C23.6988 22.8246 23.2638 22.4445 22.7275 22.1616L22.5122 22.056C22.4066 21.9885 22.2968 21.9251 22.2123 21.8449C22.1701 21.8069 22.1617 21.752 22.1659 21.6971C22.1701 21.6422 22.1912 21.5831 22.2461 21.524L23.3525 20.2993C23.4454 20.198 23.5806 20.1684 23.6566 20.236C23.7495 20.3204 23.8339 20.4091 23.9015 20.5189L24.0366 20.7174C24.4125 21.2875 24.839 21.7984 25.3373 22.2461C25.4766 22.3728 25.7342 22.5586 26.0214 22.757C26.0889 22.8035 26.1523 22.8584 26.2072 22.9091C27.0095 23.6354 26.7393 24.8305 25.8482 25.8186L25.6202 26.072C24.7376 27.0517 23.5468 27.4444 22.774 26.7477H22.7613Z" fill="#EB4A1E"/>
<path d="M29.7924 18.361C30.2991 17.9219 32.0263 16.5663 32.8666 17.5418C33.7239 18.5342 32.0094 20.0122 32.0094 20.0122L31.984 20.0333C31.8278 20.1684 30.9114 20.9159 29.9908 20.7174L30.1175 20.8145C30.2189 20.8779 30.3033 20.9581 30.3751 21.0426L30.4469 21.1228C30.4849 21.165 30.4722 21.241 30.4131 21.2917L29.0787 22.4446C29.028 22.491 28.9605 22.5164 28.9013 22.5206C28.8464 22.5248 28.8 22.5079 28.7704 22.4699C28.6902 22.377 28.6184 22.2757 28.5635 22.1574L28.4537 21.9463C28.1497 21.3339 27.7907 20.7765 27.3515 20.2698C26.9166 19.763 26.4141 19.3239 25.8524 18.9354L25.6582 18.796C25.5526 18.7242 25.4639 18.6398 25.3879 18.5511C25.3499 18.5088 25.3415 18.4624 25.3541 18.4075C25.3668 18.3526 25.4006 18.2893 25.4555 18.247L26.7899 17.0942C26.849 17.0435 26.925 17.0435 26.963 17.0857L27.0348 17.166C27.1108 17.2547 27.17 17.3433 27.2291 17.4447L27.3262 17.6643C27.3642 17.7403 27.4064 17.8247 27.4487 17.8965C27.3811 17.7698 27.322 16.807 27.9765 16.068C28.137 15.8864 28.3313 15.6964 28.5213 15.5317C28.7789 15.3079 29.0491 15.1179 29.2687 15.0419C29.767 14.8518 30.4849 14.78 30.8565 15.2108C30.8945 15.253 30.9241 15.3037 30.9537 15.3586C31.5618 16.4143 29.6403 18.4962 29.6403 18.4962L29.7966 18.361H29.7924ZM27.8456 18.1752C27.8752 18.6271 28.2764 19.1634 28.4073 19.3154L28.6649 19.0916C28.9562 18.8382 29.2012 18.53 29.3405 18.2048C29.5474 17.7656 29.6657 17.1744 29.2518 16.6761L29.1758 16.5874C29.0322 16.4734 28.6606 16.2158 28.2975 16.5283C27.9005 16.8704 27.7992 17.4278 27.8414 18.1752H27.8456ZM31.2788 19.9995C31.2788 19.9995 31.7222 19.5392 31.321 19.0705L31.2873 19.0325C30.751 18.4455 29.7713 18.6186 29.0998 19.1972L29.0745 19.2183C28.8591 19.4041 28.8042 19.6701 28.9351 19.8179C28.9562 19.8433 28.9731 19.8602 28.9985 19.8728C29.3278 20.1009 29.767 20.2782 30.126 20.3078C30.5103 20.3373 30.8608 20.3585 31.2155 20.0544L31.283 19.9953L31.2788 19.9995Z" fill="#EB4A1E"/>
<path d="M34.3489 15.9582C34.3024 15.8907 34.2644 15.8146 34.2264 15.7344C34.066 15.4135 33.9224 15.1348 33.8168 14.9785C33.4452 14.4211 33.0018 13.9228 32.4908 13.471L32.3135 13.3105C32.2163 13.226 32.1361 13.1289 32.0728 13.036C32.039 12.9895 32.0348 12.9431 32.0559 12.8882C32.077 12.8333 32.1192 12.7784 32.1741 12.7404L33.5423 11.824C33.6648 11.7438 33.8041 11.748 33.859 11.8283C33.9266 11.9296 33.9773 12.0478 34.028 12.1619L34.0997 12.3899C34.3024 12.96 34.6149 13.4456 34.9401 13.9312L35.0752 14.1297C35.2864 14.4464 35.1555 14.248 35.4722 14.6998C35.7087 15.0503 36.5068 16.0638 37.2078 15.5951C37.9426 15.101 37.2796 14.0073 37.0431 13.6568C36.7433 13.1922 36.8742 13.3823 36.663 13.0698L36.5279 12.8713C36.2027 12.3857 35.8691 11.9127 35.4215 11.5073L35.2357 11.3553C35.147 11.2666 35.0583 11.1737 34.995 11.0808C34.9612 11.0344 34.9697 10.9795 34.9865 10.9288C35.0077 10.8781 35.0372 10.8232 35.1048 10.781L36.473 9.86462C36.587 9.7886 36.7264 9.79283 36.7813 9.87728C36.8488 9.97863 36.908 10.0884 36.9502 10.2109L37.0304 10.4347C37.2585 11.0766 37.5498 11.6762 37.9214 12.2337C38.027 12.3899 38.2297 12.6348 38.462 12.8966C38.5169 12.96 38.5633 13.0276 38.6056 13.0909C39.2094 13.9904 38.6562 15.0841 37.5498 15.8231L37.2669 16.0131C36.1732 16.7479 34.919 16.8408 34.3404 15.9751L34.3489 15.9582Z" fill="#EB4A1E"/>
<path d="M47.1315 9.99976C47.1991 10.1307 47.0471 10.3165 46.8148 10.5361C46.5825 10.7599 46.2447 10.971 46.1011 11.0386C45.0623 11.558 44.6865 11.0808 44.4035 10.591C44.2051 10.2447 43.9559 10.004 43.5716 9.94486C43.1958 9.88152 42.7735 9.94486 42.4146 10.1264C42.0894 10.2869 41.9332 10.6163 42.0472 10.8443L42.0641 10.8823C42.3766 11.3342 42.8073 11.8663 42.8073 11.8663L42.9086 11.993C42.9931 12.0901 43.0691 12.1872 43.124 12.3012C43.1705 12.3899 43.0945 12.5208 42.972 12.5799L41.4982 13.3147C41.4391 13.3443 41.3673 13.3527 41.3082 13.3443C41.2533 13.3358 41.2153 13.3105 41.1899 13.264C41.135 13.1542 41.0886 13.036 41.0632 12.9093L41.0126 12.6771C40.869 12.0098 40.6579 11.3764 40.358 10.781C40.0582 10.1856 39.6824 9.63237 39.2347 9.11718L39.0827 8.93559C38.9983 8.83847 38.9307 8.73289 38.88 8.63155C38.8547 8.58087 38.8547 8.53442 38.88 8.48375C38.9054 8.43307 38.956 8.3824 39.0152 8.35284L40.4889 7.61806C40.6114 7.55894 40.7592 7.57583 40.8057 7.66451C40.8606 7.7743 40.8943 7.89677 40.9197 8.02345L40.9703 8.25571C40.9872 8.34017 41.0084 8.43307 41.0337 8.50908C40.9999 8.36973 41.1773 7.4238 41.9923 6.86638C42.1908 6.73125 42.4272 6.5919 42.651 6.4821C42.9551 6.33008 43.2676 6.21184 43.4956 6.19073C44.0235 6.13161 44.7371 6.23718 44.9905 6.74392C45.0159 6.7946 45.0327 6.85372 45.0454 6.90861C45.3748 8.08257 42.9973 9.62814 42.9973 9.62814C42.9973 9.62814 43.1325 9.54369 43.3478 9.43389C44.0615 9.07917 45.6535 8.44996 46.2912 9.53524C46.401 9.70416 46.4854 9.79706 46.5614 9.85196C46.8232 10.0251 46.9415 9.84773 47.0555 9.94908C47.0766 9.96597 47.0977 9.98286 47.1104 10.004L47.1315 9.99976ZM41.8909 9.98287C42.3681 9.74638 42.7735 9.38322 43.0015 8.97782C43.2 8.63999 43.3056 8.21771 43.0987 7.77008L43.048 7.66451C42.9382 7.51671 42.6384 7.17465 42.2119 7.39002C41.7431 7.62228 41.5067 8.13747 41.3631 8.87225C41.2828 9.31987 41.5404 9.93641 41.6291 10.1138L41.8952 9.98287H41.8909Z" fill="#EB4A1E"/>
<path d="M54.1753 7.39845C54.2471 7.50403 54.2977 7.61804 54.34 7.73206C54.3737 7.82496 54.2935 7.9432 54.1626 7.98543L52.5959 8.53018C52.5326 8.5513 52.4566 8.5513 52.4059 8.53441C52.351 8.51751 52.313 8.47951 52.2961 8.43306C52.0723 7.7954 51.688 7.21265 51.1601 6.73124L49.8215 5.34614C49.5766 5.06321 49.4288 5.01253 49.3527 5.03787C49.3105 5.05476 49.2894 5.10121 49.2936 5.14766C49.3612 5.65018 49.4879 6.14848 49.6526 6.62145C49.8722 7.25488 50.1762 7.84608 50.552 8.40772L50.6829 8.61464C50.7547 8.72021 50.8054 8.83423 50.8476 8.94825C50.8814 9.04115 50.8012 9.15517 50.6703 9.20162L49.1163 9.74637C49.0403 9.77171 48.9811 9.76748 48.9262 9.75059C48.8713 9.7337 48.8249 9.69992 48.808 9.65347C48.7658 9.53523 48.7489 9.41276 48.732 9.29452L48.7193 9.04537C48.6644 8.37394 48.5293 7.71095 48.3139 7.09018C48.0943 6.46098 47.7861 5.85711 47.4102 5.29969L47.2709 5.10543C47.2075 4.99564 47.1442 4.88585 47.1062 4.76761C47.0893 4.72115 47.1062 4.66203 47.14 4.61558C47.1737 4.56913 47.2202 4.53535 47.2962 4.51001L48.7447 4.00326C49.1543 3.85969 49.1627 3.91881 49.3063 4.06239L50.9574 5.82755C51.5022 6.41452 51.7767 6.51165 51.8822 6.47365C51.9456 6.45253 51.9667 6.40186 51.9498 6.3554C51.9076 6.19494 51.8485 6.03024 51.7936 5.87822C51.574 5.24901 51.2784 4.64092 50.8899 4.08772L50.759 3.88925C50.6872 3.78368 50.6323 3.66966 50.5943 3.55564C50.5774 3.50919 50.5816 3.45429 50.6154 3.40784C50.6492 3.36139 50.7041 3.32338 50.7716 3.30227L52.3383 2.75752C52.465 2.71107 52.6001 2.74485 52.6339 2.8462C52.6761 2.96444 52.7057 3.08268 52.7142 3.21359L52.7268 3.45429C52.7817 4.12573 52.9253 4.7845 53.1449 5.4137C53.3603 6.03869 53.6559 6.64256 54.0317 7.19998L54.1753 7.40268V7.39845Z" fill="#EB4A1E"/>
<path d="M65.8304 5.10968C65.8727 5.22792 65.9107 5.34616 65.9318 5.46862C65.9445 5.56575 65.8347 5.6671 65.6869 5.68821L63.9766 5.94158C63.8964 5.95425 63.8288 5.94158 63.7781 5.91202C63.7274 5.88669 63.6894 5.84868 63.681 5.80223C63.6641 5.67977 63.6683 5.55308 63.6726 5.42639L63.7063 5.18991C63.7697 4.67894 63.7739 4.17642 63.7359 3.68234V3.65701C63.7106 3.51765 63.529 3.44586 63.3474 3.4712C63.3009 3.47965 63.246 3.49654 63.2038 3.51765L62.3423 3.92305C61.9665 4.10463 61.7554 4.39179 61.7976 4.67894C61.8018 4.71273 61.8187 4.73384 61.8229 4.76762C61.9032 4.99144 61.9918 5.21103 62.0805 5.43062L62.1819 5.65021C62.2326 5.76845 62.2621 5.88669 62.2832 6.00915C62.2959 6.10627 62.1861 6.20762 62.051 6.22874L60.3323 6.48211C60.252 6.49478 60.1929 6.47789 60.1338 6.45255C60.0831 6.42721 60.0451 6.38921 60.0367 6.34276C60.0198 6.22029 60.024 6.09361 60.0367 5.96692L60.0578 5.73044C60.1422 5.05056 60.1338 4.38334 60.0367 3.72035C59.9395 3.05736 59.7495 2.41971 59.475 1.79472L59.3863 1.57513C59.3357 1.45689 59.2934 1.33865 59.2765 1.22463C59.2681 1.16973 59.2977 1.12328 59.3357 1.08105C59.3779 1.04305 59.4412 1.00504 59.5172 0.996596L61.236 0.743224C61.236 0.743224 61.2697 0.739001 61.2824 0.743224C61.4091 0.743224 61.5062 0.793898 61.5231 0.882579L61.5358 0.971259C61.5442 1.0346 61.5442 1.09372 61.54 1.16129C61.5316 1.19507 61.54 1.22041 61.5316 1.25419L61.4978 1.49067C61.4471 1.91718 61.426 2.33525 61.4555 2.74909C61.4555 3.00668 61.4851 3.25583 61.5231 3.50076V3.50921C61.5442 3.64012 61.7131 3.70768 61.882 3.68234C61.9285 3.6739 61.9707 3.66968 62.013 3.64434L63.0222 3.17138C63.377 3.01091 63.5628 2.71531 63.5247 2.44504L63.5163 2.38592C63.415 2.00164 63.2883 1.61736 63.1194 1.24997L63.018 1.03038C62.9758 0.912139 62.9378 0.789675 62.9209 0.675658C62.9124 0.62076 62.942 0.574309 62.98 0.53208C63.018 0.494074 63.0856 0.456068 63.1616 0.447622L64.8718 0.194249C65.0196 0.173135 65.1548 0.236479 65.1675 0.333605C65.1843 0.456068 65.1928 0.578532 65.1759 0.709441L65.1421 0.945922C65.0577 1.6258 65.0661 2.29302 65.1632 2.95179C65.2604 3.61478 65.4504 4.25243 65.7249 4.88164L65.8262 5.10123L65.8304 5.10968Z" fill="#EB4A1E"/>
<path d="M74.027 5.05055C74.027 5.21524 73.8285 5.36727 73.5456 5.37571L72.0549 5.41372C71.8058 5.41794 71.5862 5.2997 71.5482 5.13501C71.5482 5.11812 71.5355 5.09278 71.5355 5.06744C71.5355 4.94498 71.5735 4.76762 71.5693 4.55648C71.5651 4.358 71.5228 4.12152 71.3708 3.86815C71.3244 3.78791 71.1977 3.73301 71.071 3.73724C71.0245 3.73724 70.9823 3.74568 70.9358 3.7668L70.1377 4.12574C69.821 4.2651 69.6352 4.49313 69.6394 4.73384C69.6394 4.77606 69.6521 4.82252 69.6648 4.87319C69.7028 4.98721 69.7366 5.08433 69.7619 5.14346C69.7746 5.16879 69.7746 5.19413 69.7746 5.21947C69.7746 5.33348 69.6774 5.44328 69.5085 5.47284C69.4747 5.48128 69.441 5.48129 69.4072 5.48551L67.8278 5.52351C67.6251 5.52774 67.4731 5.42639 67.4689 5.2997C67.4689 5.25747 67.4773 5.22369 67.5111 5.18146V5.17302L67.9292 4.66627C68.9976 3.2136 69.2425 1.24996 69.2256 0.39272V0.253365C69.2171 0.0717816 69.4747 -0.0675735 69.7492 -0.0717964L71.4215 -0.114025C71.696 -0.122471 71.9367 0.0211065 71.9536 0.194244C72.0676 1.07683 72.3336 1.82005 72.6461 2.58017C72.9713 3.34873 73.3893 4.08774 73.8961 4.80562C73.8961 4.80562 73.9299 4.86052 73.989 4.94498C74.0143 4.98721 74.027 5.02521 74.027 5.059V5.05055ZM70.7247 3.41208C70.9274 3.3234 71.0499 3.17137 71.0456 3.02357C71.0456 2.98979 71.033 2.95601 71.0203 2.92645C70.8978 2.59706 70.5727 1.76515 70.3446 1.37243C70.3193 1.33864 70.2771 1.32598 70.2306 1.32598C70.1842 1.32598 70.1419 1.34287 70.1166 1.3682C69.555 2.15788 69.4283 2.96867 69.4452 3.64856C69.4452 3.75413 69.5845 3.81747 69.7323 3.81325C69.7788 3.81325 69.8337 3.80058 69.8801 3.78369L70.7247 3.40785V3.41208Z" fill="#EB4A1E"/>
<path d="M78.8326 2.44927C78.8706 2.29725 79.0269 2.30147 79.1747 1.96786C79.1874 1.93408 79.1958 1.87918 79.2 1.80317C79.2338 1.41044 79.1409 0.561646 78.689 0.52364C78.0894 0.468743 77.5024 1.52024 77.38 2.88423C77.2617 4.19332 77.8276 5.03789 78.5624 5.20258C78.6426 5.21948 78.7313 5.23637 78.8115 5.24059C79.4323 5.29549 80.0361 5.05901 80.5133 4.69584C80.564 4.66628 80.6189 4.65361 80.6865 4.66206C80.7329 4.66206 80.7752 4.6705 80.8089 4.69162C80.8849 4.72962 80.9145 4.79297 80.9061 4.85631C80.9061 4.89009 80.8892 4.91965 80.8638 4.94499C80.6231 5.21525 79.9517 5.95848 78.4103 5.81912C76.282 5.62909 75.0616 4.24399 75.201 2.68997C75.3403 1.12751 76.9154 -0.00844158 78.7144 0.15625C80.6062 0.325165 81.113 1.2922 81.2861 1.74827C81.3199 1.85807 81.3452 1.97631 81.3368 2.09033C81.3326 2.15789 81.3157 2.22124 81.2861 2.28458C81.1425 2.60974 80.754 2.88423 79.4281 2.77865C78.9086 2.7322 78.82 2.57596 78.8284 2.46616V2.44927H78.8326Z" fill="#EB4A1E"/>
<path d="M90.0275 2.53372C90.0148 2.59706 89.9219 2.64773 89.8164 2.64773C89.6432 2.64773 89.5883 2.73219 89.563 2.85466C89.5376 2.97712 89.5377 3.12914 89.5039 3.28961C89.4828 3.38674 89.4532 3.4712 89.3983 3.55988C88.8451 4.54381 86.3663 4.33266 86.1467 4.31577C86.1931 4.32422 86.3283 4.34533 86.5141 4.38756C87.2911 4.55647 88.9507 5.06744 88.748 6.30475C88.7269 6.50322 88.7353 6.62991 88.7733 6.72281C88.8704 7.02263 89.0605 6.95507 89.0985 7.10709C89.1027 7.13243 89.1069 7.17043 89.0985 7.19155C89.0647 7.33513 88.8324 7.39425 88.5242 7.42803C88.2032 7.45759 87.7894 7.37736 87.6331 7.34357C86.5014 7.09442 86.5056 6.48633 86.6028 5.93313C86.6661 5.5404 86.6239 5.19413 86.362 4.90697C86.1002 4.61982 85.9271 4.44668 85.5513 4.36644C85.1965 4.29043 84.8714 4.43823 84.8207 4.67894L84.808 4.73383C84.77 5.28281 84.7574 5.96692 84.7574 5.96692L84.77 6.13161C84.7785 6.25829 84.7616 6.38498 84.7362 6.50322C84.7151 6.60035 84.5884 6.65524 84.4533 6.62568L82.8444 6.27096C82.7642 6.25407 82.7177 6.21606 82.6797 6.17384C82.6417 6.13161 82.6164 6.08516 82.629 6.03448C82.6544 5.91202 82.705 5.798 82.7515 5.67976L82.8655 5.46862C83.1738 4.86052 83.3934 4.23131 83.5369 3.58099C83.6805 2.92644 83.7439 2.26768 83.7185 1.58357L83.7016 1.34287C83.7016 1.21618 83.7101 1.08949 83.7354 0.979698C83.7481 0.9248 83.7903 0.891017 83.841 0.869903C83.8917 0.848789 83.955 0.83612 84.031 0.853012L85.6399 1.20773C85.7751 1.23729 85.868 1.34287 85.8469 1.43999C85.8215 1.56245 85.7835 1.6807 85.7244 1.79471C85.7244 1.79471 85.2599 2.74908 84.9516 3.82169L84.9432 3.86392L85.2303 3.92727C85.754 4.04128 86.0918 3.97372 86.5267 3.79636C86.7337 3.71612 86.9321 3.59788 87.0842 3.42897C87.2066 3.29383 87.2869 3.13759 87.3249 2.9729C87.3418 2.89266 87.3502 2.8082 87.346 2.72375C87.346 2.66463 87.3502 2.58861 87.3671 2.51682C87.3967 2.38592 87.4516 2.24656 87.5656 2.13677C87.7303 1.96363 88.0681 1.85806 88.4735 1.87073C88.5917 1.87073 88.7606 1.89184 88.9042 1.9214C89.8037 2.11987 90.0613 2.36902 90.0275 2.52527V2.53372Z" fill="#EB4A1E"/>
<path d="M96.7208 9.99976C96.6659 10.156 96.4209 10.2236 96.1549 10.1307L94.7529 9.62815C94.5164 9.54369 94.356 9.35366 94.3813 9.18897C94.3855 9.17208 94.3813 9.14674 94.394 9.12141C94.4362 9.00316 94.5375 8.85536 94.6093 8.65689C94.6769 8.47108 94.7234 8.2346 94.6727 7.94322C94.6558 7.85032 94.5587 7.75319 94.4404 7.71097C94.3982 7.69407 94.3517 7.68985 94.3011 7.68985L93.4269 7.7363C93.0807 7.75319 92.8273 7.89677 92.7428 8.12058C92.7302 8.15859 92.7217 8.20927 92.7175 8.25994C92.709 8.37818 92.709 8.48375 92.709 8.5471C92.709 8.57243 92.7006 8.59777 92.6922 8.61888C92.6541 8.72868 92.519 8.79202 92.3501 8.75824C92.3163 8.75824 92.2825 8.74135 92.253 8.7329L90.7665 8.1966C90.5723 8.12903 90.4709 7.97701 90.5131 7.85877C90.5258 7.82076 90.5469 7.7912 90.5934 7.76586V7.75742L91.1719 7.43648C92.6921 6.46522 93.6339 4.72539 93.9252 3.91883L93.9717 3.78792C94.0308 3.619 94.3222 3.581 94.5798 3.6739L96.1507 4.23976C96.4083 4.33267 96.5814 4.55226 96.535 4.72117C96.3196 5.58264 96.3027 6.37654 96.3196 7.19578C96.3449 8.03191 96.4632 8.87226 96.6785 9.72105C96.6785 9.72105 96.6912 9.78862 96.7166 9.88575C96.725 9.9322 96.7208 9.97443 96.7081 10.0082L96.7208 9.99976ZM94.2335 7.28023C94.4531 7.27179 94.622 7.17466 94.6727 7.03531C94.6853 7.00575 94.6853 6.96774 94.6853 6.93396C94.6896 6.58346 94.6853 5.68821 94.6178 5.24481C94.6093 5.2068 94.5713 5.17302 94.5291 5.16035C94.4869 5.14346 94.4362 5.14346 94.4066 5.16035C93.6001 5.69243 93.1862 6.4061 92.9582 7.04375C92.9202 7.1451 93.0258 7.2549 93.1651 7.30135C93.2073 7.31824 93.2622 7.32668 93.3129 7.32668L94.2335 7.28023Z" fill="#EB4A1E"/>
<path d="M104.364 7.90523C104.55 7.99391 104.643 8.16704 104.575 8.30217L103.988 9.28188C103.954 9.34945 103.883 9.3959 103.794 9.41701C103.701 9.42546 103.596 9.41279 103.503 9.36634C103.351 9.29033 103.258 9.16364 103.245 9.04118C103.237 8.85115 103.177 7.74476 102.84 7.58006C102.531 7.43226 101.687 8.94828 101.395 9.54792C101.104 10.1476 100.889 10.781 100.754 11.4482L100.716 11.6847C100.694 11.8114 100.648 11.9296 100.593 12.0394C100.551 12.1281 100.411 12.1534 100.289 12.0943L98.7941 11.3722C98.7308 11.3426 98.6928 11.2962 98.6548 11.2413C98.6294 11.1906 98.6252 11.1442 98.6463 11.1019C98.7012 10.9921 98.7646 10.8824 98.849 10.7852L99.0095 10.6079C99.4487 10.0885 99.8076 9.52681 100.099 8.92716C100.39 8.32329 101.032 6.71015 100.745 6.5708C100.357 6.38077 99.5036 7.0522 99.3473 7.162C99.2418 7.22956 99.0855 7.23801 98.9293 7.162C98.8364 7.11977 98.7603 7.04376 98.7097 6.96352C98.6717 6.88329 98.6632 6.79461 98.697 6.72704L99.1024 5.65866C99.1657 5.52352 99.36 5.48974 99.5458 5.57842L104.356 7.90523H104.364Z" fill="#EB4A1E"/>
<path d="M108.984 16.6381C108.933 16.7563 108.887 16.8704 108.819 16.9759C108.764 17.0604 108.617 17.0604 108.494 16.9802L107.041 16.0427C106.974 16.0005 106.932 15.9413 106.911 15.8907C106.889 15.84 106.885 15.7851 106.911 15.7429C106.978 15.6373 107.063 15.5486 107.151 15.4557L107.333 15.2995C107.717 14.9574 108.051 14.5858 108.346 14.1846L108.359 14.1635C108.435 14.0453 108.346 13.8679 108.194 13.7708C108.156 13.7454 108.106 13.7201 108.055 13.7117L107.143 13.4456C106.742 13.3358 106.391 13.4118 106.235 13.6568C106.218 13.6863 106.214 13.7117 106.197 13.7412C106.108 13.9608 106.032 14.1846 105.956 14.4084L105.889 14.6407C105.851 14.7631 105.791 14.8729 105.724 14.9785C105.669 15.063 105.521 15.063 105.407 14.9912L103.946 14.0495C103.879 14.0073 103.845 13.9566 103.815 13.8975C103.794 13.8468 103.79 13.7919 103.815 13.7497C103.883 13.6441 103.967 13.5554 104.064 13.4667L104.237 13.302C104.748 12.846 105.183 12.3392 105.547 11.7776C105.91 11.2159 106.193 10.6121 106.395 9.95752L106.471 9.7337C106.509 9.61124 106.56 9.493 106.619 9.39587C106.649 9.34942 106.699 9.33253 106.759 9.32831C106.813 9.32831 106.885 9.34098 106.953 9.38321L108.414 10.3249C108.414 10.3249 108.443 10.3418 108.448 10.3545C108.545 10.4347 108.583 10.5403 108.536 10.6163L108.486 10.6923C108.448 10.7472 108.41 10.7894 108.363 10.8401C108.338 10.8612 108.321 10.8823 108.296 10.9034L108.114 11.0597C107.793 11.3426 107.502 11.6467 107.253 11.9761C107.084 12.1745 106.94 12.373 106.809 12.5841V12.5926C106.733 12.7024 106.818 12.8671 106.961 12.96C106.999 12.9853 107.037 13.0107 107.084 13.0191L108.156 13.3274C108.528 13.4414 108.866 13.34 109.014 13.112L109.043 13.0613C109.22 12.7024 109.377 12.335 109.491 11.9465L109.558 11.7142C109.605 11.6002 109.655 11.482 109.719 11.3848C109.748 11.3384 109.799 11.3215 109.858 11.3173C109.913 11.3173 109.985 11.33 110.052 11.3722L111.505 12.3097C111.627 12.3899 111.691 12.525 111.636 12.6095C111.568 12.7151 111.492 12.8122 111.395 12.8966L111.214 13.0529C110.703 13.509 110.268 14.0157 109.905 14.5773C109.541 15.139 109.258 15.7429 109.056 16.3974L108.988 16.6297L108.984 16.6381Z" fill="#EB4A1E"/>
<path d="M116.746 20.1262C115.745 21.3213 113.806 21.3551 112.417 20.198C111.032 19.0367 110.724 17.1238 111.725 15.9245C112.73 14.7209 114.672 14.6872 116.057 15.8485C117.442 17.0097 117.755 18.9227 116.746 20.1262ZM115.073 18.7242C115.952 17.6727 116.281 16.5157 115.821 16.1314C115.361 15.7429 114.279 16.275 113.401 17.3265C112.527 18.3695 112.193 19.535 112.654 19.9193C113.114 20.3078 114.199 19.7715 115.073 18.7242Z" fill="#EB4A1E"/>
<path d="M120.411 27.2038C120.343 27.3135 120.263 27.4065 120.17 27.4909C120.099 27.5585 119.959 27.5331 119.866 27.4318L118.735 26.2198C118.688 26.1691 118.659 26.1016 118.65 26.0467C118.642 25.9918 118.663 25.9411 118.701 25.9073C119.195 25.447 119.575 24.8601 119.799 24.1802L120.525 22.3939C120.686 22.0561 120.673 21.8998 120.618 21.8407C120.588 21.8069 120.533 21.8111 120.495 21.8323C120.065 22.0941 119.659 22.4108 119.292 22.7571C118.802 23.2131 118.384 23.7326 118.025 24.3026L117.89 24.5053C117.822 24.6151 117.742 24.708 117.649 24.7925C117.577 24.8601 117.438 24.8347 117.345 24.7334L116.218 23.5299C116.163 23.4707 116.142 23.4116 116.137 23.3567C116.133 23.3018 116.142 23.2427 116.18 23.2089C116.268 23.1245 116.374 23.0569 116.475 22.9935L116.695 22.8795C117.286 22.5586 117.839 22.1701 118.321 21.7182C118.811 21.2622 119.237 20.7385 119.596 20.1684L119.718 19.9615C119.794 19.8602 119.866 19.7588 119.959 19.6744C119.993 19.6406 120.056 19.6321 120.111 19.6406C120.166 19.649 120.217 19.6828 120.272 19.7377L121.319 20.8568C121.615 21.1735 121.564 21.2031 121.492 21.3931L120.546 23.6185C120.225 24.3533 120.251 24.6447 120.327 24.7249C120.373 24.7756 120.428 24.7714 120.462 24.7376C120.588 24.632 120.715 24.5138 120.838 24.404C121.327 23.9479 121.758 23.4327 122.113 22.8542L122.244 22.6557C122.311 22.5459 122.392 22.453 122.484 22.3686C122.518 22.3348 122.573 22.3179 122.628 22.3263C122.683 22.3348 122.742 22.377 122.788 22.4235L123.92 23.6354C124.013 23.7368 124.038 23.8677 123.958 23.9437C123.87 24.0282 123.768 24.1042 123.658 24.1633L123.443 24.2731C122.852 24.594 122.307 24.991 121.817 25.4513C121.336 25.9031 120.901 26.4183 120.542 26.9884L120.415 27.1995L120.411 27.2038Z" fill="#EB4A1E"/>
<path d="M125.554 31.5576C125.571 31.1648 125.723 30.8734 125.998 30.6876C126.272 30.5061 126.602 30.4934 126.969 30.6285C127.337 30.7679 127.649 31.0255 127.898 31.4013C128.152 31.7814 128.266 32.1656 128.244 32.5626C128.228 32.9553 128.088 33.2509 127.822 33.4325C127.548 33.6141 127.218 33.6268 126.842 33.4958C126.467 33.348 126.158 33.0905 125.913 32.7231C125.656 32.3346 125.538 31.9503 125.554 31.5576Z" fill="#EB4A1E"/>
<path d="M129.845 41.8909L129.798 41.912C129.672 41.9669 129.592 42.14 129.689 42.3596C130.267 43.6687 131.42 43.9305 131.648 43.9643C131.775 43.9812 131.906 44.0995 131.982 44.2642C132.032 44.3782 132.045 44.4837 132.037 44.5893C132.015 44.6864 131.965 44.7582 131.897 44.7878L130.901 45.3537C130.766 45.4128 130.584 45.2945 130.495 45.0876L128.43 40.4213C128.342 40.2229 128.443 40.1426 128.557 40.092C128.616 40.0666 128.684 40.0497 128.726 40.0286C129.946 39.4881 132.218 41.7769 133.059 42.1232C133.455 42.2836 133.806 42.2625 134.072 42.1485C134.397 42.0049 134.587 41.6966 134.537 41.3588C134.524 41.2912 134.511 41.2195 134.477 41.1477C134.266 40.6705 133.561 40.3622 132.721 40.32C132.539 40.2989 132.383 40.3073 132.214 40.32C132.108 40.3284 131.999 40.2398 131.948 40.1257C131.927 40.0751 131.918 40.0159 131.918 39.9526L131.939 38.7364C131.939 38.652 131.977 38.5802 132.041 38.5548C132.058 38.5464 132.066 38.5548 132.083 38.5506C132.176 38.5337 132.282 38.5253 132.383 38.5295C133.219 38.5802 134.089 39.3403 134.553 40.3918C134.697 40.7127 134.807 41.0632 134.857 41.4264C135.047 42.6721 134.76 43.6307 134.08 43.9348C133.916 44.0066 133.713 44.0488 133.502 44.0319C133.223 44.0192 132.923 43.8672 132.607 43.6603C132.349 43.4998 132.104 43.3225 131.863 43.1198C131.276 42.6468 130.166 41.8318 129.858 41.8951L129.845 41.8909Z" fill="#EB4A1E"/>
<path d="M135.782 52.4312C134.292 52.8831 132.649 51.8485 132.121 50.1213C131.593 48.3941 132.387 46.6205 133.882 46.1687C135.381 45.7126 137.024 46.7472 137.547 48.4786C138.071 50.21 137.281 51.9794 135.778 52.4354L135.782 52.4312ZM135.149 50.3409C135.356 50.2775 135.449 50.248 135.622 50.172C135.677 50.1551 135.702 50.1213 135.689 50.0791C135.668 50.0157 135.546 49.9186 135.225 49.7708L133.802 49.1205C133.561 49.0149 133.325 48.9938 133.101 49.0614C132.89 49.1247 132.7 49.2767 132.564 49.509C132.463 49.6821 132.421 49.8595 132.467 50.0115C132.64 50.59 133.844 50.7336 135.145 50.3409H135.149ZM134.515 48.2506C134.279 48.3223 134.14 48.3773 133.924 48.4659C133.899 48.4744 133.89 48.4997 133.899 48.5208C133.924 48.6095 134.106 48.7446 134.359 48.8798L135.82 49.5428C136.061 49.6483 136.297 49.6694 136.513 49.6061C136.669 49.5597 136.813 49.4583 136.935 49.3232C137.163 49.0782 137.26 48.808 137.193 48.5799C137.02 48.0014 135.824 47.8536 134.515 48.2506Z" fill="#EB4A1E"/>
<path d="M134.456 56.557L134.406 56.5654C134.266 56.5908 134.152 56.7386 134.19 56.9708C134.435 58.3813 135.491 58.9133 135.702 59.0062C135.82 59.0527 135.922 59.2005 135.951 59.3779C135.972 59.5003 135.96 59.6059 135.926 59.7072C135.884 59.7959 135.816 59.8508 135.744 59.8677L134.642 60.176C134.494 60.2013 134.351 60.0408 134.313 59.817L133.439 54.7876C133.401 54.5765 133.519 54.5216 133.641 54.5004C133.705 54.4878 133.772 54.4878 133.823 54.4793C135.14 54.2513 136.787 57.0215 137.518 57.562C137.864 57.8112 138.21 57.8787 138.493 57.8281C138.844 57.7689 139.101 57.5156 139.135 57.1735C139.135 57.1017 139.144 57.0342 139.131 56.9539C139.042 56.4387 138.43 55.97 137.628 55.7293C137.459 55.666 137.303 55.6364 137.138 55.6068C137.036 55.5899 136.948 55.4801 136.927 55.3535C136.918 55.2986 136.927 55.2394 136.939 55.1803L137.256 54.0064C137.273 53.9219 137.332 53.867 137.395 53.8543C137.412 53.8543 137.421 53.8628 137.438 53.8586C137.531 53.867 137.636 53.8839 137.733 53.9092C138.531 54.1626 139.19 55.1085 139.389 56.2403C139.448 56.5865 139.469 56.9539 139.435 57.3171C139.317 58.5713 138.806 59.4328 138.075 59.5594C137.898 59.589 137.695 59.5806 137.488 59.513C137.222 59.4328 136.965 59.2132 136.707 58.9345C136.492 58.7191 136.302 58.4868 136.116 58.2292C135.66 57.6296 134.781 56.5696 134.469 56.557H134.456Z" fill="#EB4A1E"/>
<path d="M134.646 64.5086C134.587 63.398 134.971 62.3634 135.677 61.9495C135.765 61.8989 135.854 61.8482 135.951 61.8228C135.968 61.8228 135.977 61.8102 135.993 61.8102C136.053 61.8102 136.12 61.8482 136.167 61.9242L136.804 63.0052C136.834 63.0601 136.851 63.115 136.855 63.1742C136.863 63.2966 136.804 63.4275 136.707 63.4655C136.559 63.5162 136.407 63.5964 136.264 63.6809C135.525 64.1201 135.039 64.724 135.069 65.2603C135.069 65.3278 135.086 65.3954 135.102 65.463C135.212 65.7881 135.508 65.9401 135.905 65.919C136.192 65.9021 136.534 65.7966 136.889 65.5812C137.467 65.256 138.063 64.6775 137.999 63.474C137.991 63.3473 137.987 63.2248 137.961 63.0897V63.0686C137.953 62.9672 138.033 62.8701 138.113 62.8659C138.172 62.8659 138.24 62.9039 138.27 63.0264C138.574 64.0567 139.351 64.7197 139.617 64.7535H139.642C139.79 64.7451 139.904 64.5339 139.891 64.2848C139.849 63.4655 138.857 62.7223 138.654 62.6083C138.544 62.5449 138.468 62.3887 138.46 62.2071C138.451 62.0804 138.481 61.9664 138.523 61.8862C138.569 61.806 138.641 61.7553 138.721 61.751L139.845 61.5779C139.992 61.5695 140.119 61.7342 140.128 61.9622L140.389 66.8523C140.398 67.0001 140.313 67.131 140.221 67.1352C140.204 67.1352 140.178 67.1352 140.153 67.1141C139.714 66.7847 139.325 66.3286 138.476 65.4081C138.388 66.2653 138.033 66.9916 137.463 67.3295C137.277 67.4435 137.074 67.4984 136.876 67.5068C136.078 67.5491 135.254 66.8312 134.857 65.6361C134.731 65.2687 134.667 64.8844 134.646 64.5086Z" fill="#EB4A1E"/>
<path d="M100.847 59.4834C100.847 59.4834 109.123 56.5443 113.325 57.3002C117.527 58.0561 124.457 56.7892 124.457 56.7892C124.457 56.7892 129.972 55.193 131.222 54.5469C132.472 53.9008 127.311 62.8828 122.894 62.6126C118.477 62.3423 116.48 60.4547 116.48 60.4547C116.48 60.4547 114.807 61.4259 115.888 62.8786C116.969 64.3313 120.741 64.3862 120.741 64.3862L125.538 63.9554C125.538 63.9554 125.808 71.5566 121.547 70.9105C117.286 70.2644 117.506 72.3209 117.506 72.3209C117.506 72.3209 116.429 71.3961 114.702 71.3412C112.975 71.2863 108.072 65.9486 108.072 65.9486C108.072 65.9486 105.952 65.6235 107.388 68.5921C108.824 71.5608 109.634 71.2357 109.634 71.2357C109.634 71.2357 107.156 71.4764 106.509 72.3209C105.863 73.1655 104.782 68.5921 104.782 68.5921C104.782 68.5921 104.943 66.5441 104.457 65.6277C103.971 64.7113 100.847 59.4834 100.847 59.4834Z" fill="#84A9A1"/>
<path d="M100.846 59.4834C100.846 59.4834 110.158 56.443 113.802 57.6127C117.447 58.7824 124.418 56.9962 124.418 56.9962L131.454 54.5807C131.454 54.5807 127.657 49.9397 121.327 49.4034C117.501 49.0783 115.289 51.9921 115.289 51.9921C115.289 51.9921 113.241 50.8054 115.664 48.4322C118.088 46.0589 115.339 45.7887 115.339 45.7887L110.056 44.9821C110.056 44.9821 109.195 45.8984 109.41 46.7599C109.626 47.6214 108.384 52.5284 106.07 52.4735C103.756 52.4186 103.752 50.7843 103.752 50.7843C103.752 50.7843 103.591 48.2675 105.044 46.9204C106.497 45.5733 98.7899 45.5733 98.7899 45.5733C98.7899 45.5733 96.2012 45.5733 96.4715 46.8655C96.7418 48.1577 100.462 50.1002 100.192 54.3062C99.9216 58.5122 100.838 59.4834 100.838 59.4834H100.846Z" fill="#0E2C54"/>
<path d="M98.1733 43.8123C98.1733 43.8123 104.356 40.6494 105.593 39.3994C106.594 38.3902 110.728 34.4333 113.49 33.6732C113.988 33.5381 111.767 34.9443 109.942 36.7221C108.929 37.7103 108.156 39.1334 107.105 39.7879C105.952 40.5058 104.998 41.1941 104.921 41.2195L102.514 42.4694L98.1776 43.8081H98.1733V43.8123Z" fill="#0E2C54"/>
<path d="M98.1228 43.8292C98.1228 43.8292 106.442 40.7212 108.313 38.2212C110.306 35.5524 113.54 33.6394 113.54 33.6394C113.54 33.6394 118.148 32.3726 119.254 32.3726C120.36 32.3726 117.366 34.6909 117.366 34.6909L109.655 41.646C109.655 41.646 107.472 43.9095 105.855 43.8292H98.1185H98.1228Z" fill="#84A9A1"/>
<path d="M107.818 22.9682C107.818 22.9682 101.906 27.2291 101.906 32.0052C101.906 36.7812 96.4589 44.1544 96.4589 44.1544C96.4589 44.1544 104.905 40.6452 104.744 35.924C104.592 31.4351 107.206 23.0527 107.818 22.9682Z" fill="#1C6C8A"/>
<path d="M96.573 44.0826C96.573 44.0826 100.53 36.5912 100.724 34.2518C100.918 31.9123 102.857 28.5171 102.857 28.5171C102.857 28.5171 101.89 30.7637 102.008 32.3008C102.126 33.8379 100.428 37.5963 100.428 37.5963L98.8365 40.5987L96.573 44.1502" fill="#1A223C"/>
<path d="M94.2884 44.6611C94.2884 44.6611 92.1685 41.6924 92.1685 41.0083C92.1685 40.3242 96.7672 35.185 96.7672 35.185C96.7672 35.185 97.0797 39.5388 96.459 40.755C95.6862 42.2625 94.2884 44.6569 94.2884 44.6569V44.6611Z" fill="#0E2C54"/>
<path d="M14.4845 54.6313C14.4845 54.6313 24.6743 59.6988 32.5457 57.921C40.4172 56.1431 45.3537 59.4834 45.3537 59.4834L50.9279 66.0078V70.1039H37.7736C37.7736 70.1039 40.3623 67.3 38.0439 66.5441C35.7255 65.7882 33.0314 70.1039 33.0314 70.1039L21.8196 70.4798C21.8196 70.4798 19.0705 65.5728 20.3121 64.8211C21.5536 64.0695 25.8102 63.2587 25.8102 63.2587C25.8102 63.2587 25.9707 62.773 25.1092 62.5577C24.2478 62.3423 16.8071 62.9884 14.4887 54.6313H14.4845Z" fill="#1C6C8A"/>
<path d="M14.4845 54.6313C14.4845 54.6313 21.8196 60.0999 31.6294 58.0941C41.4391 56.0882 46.1814 60.4547 46.1814 60.4547L42.5708 55.5477L41.9796 51.9878C41.9796 51.9878 39.0701 54.8467 37.6681 50.1551L36.2661 45.4635C36.2661 45.4635 28.0737 45.2481 28.8803 47.7269C29.6868 50.2057 28.5551 50.5309 28.5551 50.5309C28.5551 50.5309 26.828 51.1221 25.9116 50.3155C24.9952 49.509 20.6288 48.7531 14.4845 54.6271V54.6313Z" fill="#0E2C54"/>
<path d="M26.1818 33.7661C26.1818 33.7661 32.0558 37.4316 33.6225 39.9653C35.1892 42.499 38.5548 44.3317 38.5548 44.3317C38.5548 44.3317 39.6612 44.7076 40.1469 43.5252C40.6325 42.3428 40.5523 41.798 39.5557 40.6156C38.5591 39.4332 34.1124 35.2779 34.1124 35.2779C34.1124 35.2779 29.3152 33.5001 26.4563 33.7703" fill="#84A9A1"/>
<path d="M34.1082 35.2779C34.1082 35.2779 40.9746 39.771 40.4341 42.3216C40.3412 42.7693 34.1082 35.2779 34.1082 35.2779Z" fill="#15294B"/>
<mask id="mask0_730_1494" style="mask-type:luminance" maskUnits="userSpaceOnUse" x="12" y="-9" width="94" height="82">
<path d="M49.0444 71.2356C49.0444 71.2356 52.0806 68.7948 55.0789 70.4797C56.806 71.451 59.0146 68.5921 62.8405 71.2356C63.2121 70.7458 67.0043 69.7619 69.3649 71.2356C70.0447 71.6622 71.0709 71.3285 71.0709 71.3285C71.0709 71.3285 74.4323 69.8336 76.4255 71.451C78.4187 73.0684 82.5698 71.451 82.5698 71.451C82.5698 71.451 85.3611 70.0701 87.3121 71.2019C88.4818 71.8817 88.769 71.5017 88.769 71.5017C88.769 71.5017 92.6498 69.821 93.6759 71.2019C94.7021 72.5827 97.6665 71.8817 97.6665 71.8817C97.6665 71.8817 100.956 69.5634 104.512 71.8268C108.067 74.0903 101.687 -8.44574 101.687 -8.44574L12.1703 15.688L27.1319 64.0314L49.0444 71.2314V71.2356Z" fill="white"/>
</mask>
<g mask="url(#mask0_730_1494)">
<path d="M101.936 68.4952C101.45 65.3914 98.055 60.4422 97.1809 58.1027C96.3068 55.7632 95.8211 49.5767 93.0087 47.5075C90.1963 45.4383 85.8298 31.5366 84.4743 29.0536C83.1145 26.5705 81.5647 26.1524 81.5647 26.1524C36.5574 18.9271 46.2277 57.0977 46.2277 57.0977C46.2277 57.0977 48.5799 59.7876 50.6195 62.6254C52.6592 65.4632 52.0004 67.5746 52.0257 71.1387C52.0511 74.7028 50.3281 77.5406 49.1626 80.8133C47.9971 84.086 48.8712 88.0893 50.2521 90.7075C51.633 93.3257 50.3957 94.4912 49.1626 96.6744C47.9253 98.8577 46.4727 99.7318 44.2134 101.839C41.9584 103.95 39.412 106.86 37.7398 111.59C36.0675 116.319 37.0134 115.517 35.413 117.848C33.8125 120.175 33.5929 125.707 34.0321 130.723C34.4544 135.563 34.8006 135.407 33.9138 137.146C36.4349 140.031 37.592 143.912 36.5236 147.476C36.5236 149.756 37.0894 149.857 37.0894 149.857C39.6358 151.677 44.2937 154.587 44.8004 155.605C45.3071 156.622 46.1095 156.116 50.1846 160.719C54.2596 165.326 57.8237 159.971 57.8237 159.971C59.7874 162.517 65.4629 157.788 69.3902 157.425C73.3175 157.062 74.9179 155.533 74.9179 155.533L75.5007 155.824C75.5007 155.824 76.3748 154.152 76.738 155.022C77.1011 155.896 90.1498 157.349 90.9268 157.978C91.7038 158.607 92.6075 157.205 92.6075 157.205C92.3204 158.295 93.9124 158.079 95.0737 157.496C96.235 156.914 96.311 151.969 95.0019 152.041C93.6928 152.112 90.589 151.048 90.3947 149.786C90.2005 148.523 90.9775 143.578 91.4631 141.635C91.9487 139.697 96.8937 136.108 99.1276 131.741C101.357 127.375 99.6133 123.591 98.7391 118.549C97.865 113.503 98.7391 111.37 98.5449 108.169C98.3506 104.968 102.329 96.9151 101.552 93.9085C100.775 90.9018 101.94 85.1798 102.911 83.82C103.883 82.4602 102.814 80.7162 103.494 77.2239C104.174 73.7316 102.426 71.599 101.94 68.4952H101.936Z" fill="#EF8E45"/>
<path d="M65.0153 102.81C61.523 91.1676 73.1654 77.7811 65.0153 69.6352C59.6396 64.6437 51.7386 61.1725 45.9744 55.8813C46.1179 56.6583 46.2277 57.0975 46.2277 57.0975C46.2277 57.0975 48.5799 59.7874 50.6195 62.6252C52.6592 65.463 52.0004 67.5744 52.0257 71.1385C52.0511 74.7026 50.3281 77.5404 49.1626 80.8131C47.9971 84.0859 48.8713 88.0892 50.2521 90.7073C51.633 93.3255 50.3957 94.491 49.1626 96.6743C47.9253 98.8575 46.4727 99.7316 44.2134 101.839C41.9584 103.95 39.412 106.86 37.7398 111.589C36.0675 116.319 37.0134 115.517 35.413 117.848C33.8125 120.175 33.5929 125.707 34.0321 130.723C34.4544 135.563 34.8006 135.406 33.9138 137.146C36.4349 140.031 37.592 143.911 36.5236 147.475C36.5236 149.756 37.0894 149.857 37.0894 149.857C39.6358 151.677 44.2937 154.587 44.8004 155.604C45.3071 156.622 46.1095 156.115 50.1846 160.718C54.2596 165.321 57.8237 159.971 57.8237 159.971C59.1371 161.677 62.1142 160.123 65.1166 158.797C71.6579 141.074 70.1588 120.804 65.0153 102.806V102.81Z" fill="#EF8E45"/>
<path d="M101.936 68.495C101.45 65.3912 98.0551 60.442 97.181 58.1025C96.4209 56.0713 95.9564 51.139 94.0012 48.5208C93.3762 51.177 92.4556 53.7952 91.7884 56.2444C88.2961 64.3946 80.7287 70.7965 81.3114 81.2734C83.6382 106.864 99.3304 133.037 81.928 156.305C85.7919 156.96 90.4666 157.61 90.9227 157.982C91.6997 158.611 92.6034 157.209 92.6034 157.209C92.3162 158.299 93.9083 158.083 95.0696 157.501C96.2351 156.918 96.3069 151.973 94.9978 152.045C93.6887 152.116 90.5849 151.052 90.3906 149.79C90.1964 148.527 90.9734 143.582 91.459 141.639C91.9446 139.701 96.8896 136.112 99.1235 131.745C101.353 127.379 99.6092 123.595 98.735 118.553C97.8609 113.507 98.735 111.374 98.5408 108.173C98.3465 104.972 102.324 96.9191 101.547 93.9125C100.77 90.9058 101.936 85.1838 102.907 83.824C103.878 82.4642 102.81 80.7202 103.49 77.2279C104.17 73.7356 102.422 71.603 101.936 68.4992V68.495Z" fill="#EF8E45"/>
<path d="M81.3114 81.2735C80.7287 70.7965 88.296 64.3946 91.7884 56.2445C92.4556 53.7952 93.3762 51.177 94.0012 48.5208C93.7056 48.1239 93.3804 47.7776 93.0088 47.5073C90.1963 45.4381 85.8299 31.5364 84.4743 29.0534C83.1146 26.5703 81.5648 26.1523 81.5648 26.1523C41.3884 19.6997 44.7793 49.4245 45.9744 55.8813C51.7386 61.1726 59.6396 64.6438 65.0153 69.6352C73.1655 77.7854 61.523 91.1719 65.0153 102.81C70.1588 120.808 71.6579 141.074 65.1167 158.801C66.5989 158.147 68.0896 157.547 69.3902 157.429C73.3175 157.066 74.918 155.537 74.918 155.537L75.5007 155.828C75.5007 155.828 76.3749 154.156 76.738 155.026C76.8901 155.385 79.2084 155.845 81.928 156.306C99.3304 133.038 83.6382 106.864 81.3114 81.2735Z" fill="#F1E6E4"/>
<path d="M71.1849 152.94C75.9188 134.097 72.7432 115.023 68.9341 101.691C67.6968 97.5695 68.9679 92.6667 70.1968 87.9287C72.0168 80.9018 74.0818 72.9375 67.8995 66.7552L67.7897 66.6496C64.8548 63.9259 61.333 61.6708 57.9209 59.4918C55.1084 57.6929 52.2158 55.8433 49.7665 53.7867C49.2175 49.8341 48.753 41.363 53.508 35.6495C57.0045 31.4477 62.9165 29.3194 71.0794 29.3194C73.8664 29.3194 76.9407 29.5728 80.2261 30.0711C80.3823 30.2273 80.6315 30.5145 80.906 31.017C81.1931 31.5449 82.0166 33.7112 82.6796 35.451C85.0233 41.6164 86.6786 45.6155 88.2749 48.1281C89.0181 49.2978 89.187 50.742 88.7816 52.0638C88.7816 52.0722 88.7774 52.0807 88.7732 52.0849C88.4945 53.0055 88.2031 53.9556 87.9413 54.8889C86.9405 57.1524 85.5427 59.3483 84.0689 61.6708C80.6526 67.0423 76.7844 73.1317 77.249 81.5057L77.2574 81.6493C77.9584 89.3644 79.8165 97.0881 81.6154 104.554C85.6736 121.412 89.5164 137.379 80.091 151.838C79.6687 151.753 79.3604 151.686 79.1324 151.631C78.3849 151.04 77.4601 150.706 76.4593 150.706C76.0539 150.706 75.5176 150.765 74.9264 150.989L73.8622 150.457L72.1773 152.509C72.0295 152.598 71.7043 152.775 71.1849 152.944V152.94Z" fill="#F7F8EF"/>
<path d="M64.0061 142.801C53.5291 139.891 43.6349 135.816 39.5598 126.505C37.233 121.268 38.3943 111.953 42.4694 108.46C51.7808 99.7316 63.4233 93.9082 67.4984 82.27C70.9907 72.9586 66.3329 64.2257 60.5137 56.6625C53.6262 47.748 54.3568 36.8657 58.9682 27.1446C40.3833 34.0026 46.2277 57.0975 46.2277 57.0975C46.2277 57.0975 48.5799 59.7874 50.6195 62.6252C52.6592 65.463 52.0004 67.5744 52.0258 71.1385C52.0511 74.7026 50.3282 77.5404 49.1626 80.8131C47.9971 84.0858 48.8713 88.0891 50.2521 90.7073C51.633 93.3255 50.3957 94.491 49.1626 96.6742C47.9253 98.8574 46.4727 99.7316 44.2134 101.839C41.9584 103.95 39.412 106.86 37.7398 111.589C36.0675 116.319 37.0134 115.517 35.413 117.848C33.8125 120.175 33.5929 125.706 34.0321 130.723C34.4544 135.563 34.8006 135.406 33.9138 137.146C36.4349 140.03 37.592 143.911 36.5236 147.475C36.5236 149.756 37.0894 149.857 37.0894 149.857C39.6358 151.677 44.2937 154.587 44.8004 155.604C45.3072 156.622 46.1095 156.115 50.1846 160.718C54.2597 165.325 57.8238 159.971 57.8238 159.971C59.7874 162.517 65.463 157.788 69.3902 157.424C72.4771 157.137 74.1198 156.136 74.6857 155.718C73.195 149.266 69.3776 143.806 64.0061 142.801Z" fill="#FFB25F"/>
<path d="M58.263 87.3164C60.4715 87.802 65.0787 91.1972 65.0787 91.1972C64.2088 88.9675 61.295 85.8637 59.1793 84.5039C57.0679 83.1442 56.9285 80.9145 55.1423 76.1595C54.1203 73.44 52.9801 72.2787 52.0173 71.7804C51.9498 73.1149 51.6415 74.3522 51.2319 75.5599C51.9751 75.8808 52.6296 76.1638 53.0604 76.3496C54.8847 77.1477 56.0586 86.8265 58.2672 87.3121H58.263V87.3164Z" fill="#1D262D"/>
<path d="M96.4082 78.7777C92.9159 81.9787 93.4987 86.4422 90.6862 88.769C90.6862 88.769 94.3728 86.4422 96.3111 84.0141C98.2494 81.5901 97.768 78.4863 99.9977 76.9323C100.998 76.2355 102.215 74.6224 103.249 73.0557C102.831 71.5735 102.202 70.1757 101.94 68.4908C101.805 67.6251 101.438 66.6158 100.969 65.5601C100.965 67.2155 100.669 69.3311 99.5163 71.2103C97.1894 74.994 99.9048 75.5768 96.4124 78.7777H96.4082Z" fill="#1D262D"/>
<path d="M90.3948 70.2433C87.3881 74.1241 86.1931 75.8681 84.8966 77.4222C83.6044 78.9762 81.8562 78.9762 78.7523 83.7269C75.6485 88.4819 76.3157 92.2613 76.3157 92.2613C76.3157 92.2613 78.3554 87.7006 80.395 84.9853C82.4347 82.27 84.9558 82.4643 87.1897 79.1662C89.4236 75.8681 88.5494 73.7356 91.2647 72.5701C93.98 71.4046 93.98 71.3074 96.0197 68.0094C97.0163 66.392 98.2494 64.0863 99.2417 62.1522C98.6548 61.0712 98.0889 60.0535 97.6708 59.2004C96.746 60.5053 95.6523 62.3845 95.4369 64.2299C95.0484 67.528 93.4015 66.3624 90.3906 70.2433H90.3948Z" fill="#1D262D"/>
<path d="M56.3753 71.1132C58.2461 74.217 60.6151 75.1883 63.9132 75.2854C67.2112 75.3825 70.0448 81.6873 70.0448 81.6873C70.0448 81.6873 68.8624 78.8748 67.8658 74.88C66.8692 70.8852 61.8777 71.5017 59.6607 70.826C57.4437 70.1462 56.2487 67.6251 53.774 63.8414C52.6719 62.1607 50.78 61.1134 48.9346 60.3829C49.4878 61.0881 50.0664 61.8524 50.628 62.6294C51.8906 64.3819 52.1187 65.8599 52.1145 67.5744C53.6347 68.3514 55.421 69.5296 56.3796 71.1174H56.3753V71.1132Z" fill="#1D262D"/>
<path d="M90.1034 46.7261C92.9158 50.4507 93.3044 56.2993 91.2689 59.3905C89.2335 62.4816 88.0638 61.1219 87.1939 63.3515C86.3239 65.5812 84.3857 68.8793 81.0876 70.4333C77.7895 71.9873 76.1722 73.8285 76.1088 76.9323C76.1088 76.9323 80.9651 71.5988 83.0132 71.1132C85.0655 70.6275 85.7412 68.8835 87.1939 67.1352C88.6507 65.3912 89.2335 64.1285 90.7833 63.5458C92.3373 62.963 92.9159 65.1969 93.2072 64.0314C93.4986 62.8659 93.3044 59.8381 94.2756 58.1025C94.8837 57.013 94.3854 52.0047 93.9293 48.4195C93.6548 48.0647 93.3508 47.7565 93.013 47.5073C91.2351 46.1982 88.8408 40.168 86.9743 35.2821C86.9743 35.2821 87.291 43.0015 90.1034 46.7303V46.7261Z" fill="#1D262D"/>
<path d="M71.81 66.2654C69.9265 65.974 67.1226 64.0357 67.1226 64.0357C67.1226 64.0357 68.1149 65.6868 70.9147 68.2079C73.7145 70.7289 74.7068 73.1064 74.7068 73.1064V71.5735C74.7068 70.1715 74.3437 68.7737 73.554 67.6124C73.1021 66.9452 72.5152 66.3794 71.81 66.2696V66.2654Z" fill="#1D262D"/>
<path d="M80.3992 66.1893C82.6036 64.8085 82.0546 60.5729 82.0546 60.5729C80.9651 63.3938 80.4499 64.0061 77.9753 64.9731C75.5007 65.9402 75.2853 68.5668 75.2853 68.5668C75.2853 68.5668 75.7203 71.9367 76.1046 70.484C76.4846 69.0271 78.1991 67.5744 80.3992 66.1936V66.1893Z" fill="#1D262D"/>
<path d="M71.3455 58.0434L64.4875 58.3644L57.6296 58.0434C57.6296 58.0434 54.5046 67.5322 64.2172 67.8785V67.8954C64.3102 67.8954 64.3988 67.8869 64.4917 67.8869C64.5846 67.8869 64.6691 67.8954 64.7662 67.8954V67.8785C74.4746 67.5322 71.3539 58.0434 71.3539 58.0434H71.3455Z" fill="#F1E6E4"/>
<path d="M69.3142 61.5737L64.4875 61.7595L59.6607 61.5737C59.6607 61.5737 57.4606 67.0043 64.2974 67.2028V67.2112C64.365 67.2112 64.4241 67.2112 64.4875 67.207C64.5508 67.207 64.6142 67.2112 64.6775 67.2112V67.2028C71.5143 67.0043 69.3142 61.5737 69.3142 61.5737Z" fill="#F7F8EF"/>
<path d="M83.7354 31.8658C82.6332 29.4461 81.0623 27.2629 79.1029 25.5188C74.1875 21.1439 67.1099 21.0595 64.2299 21.2326C61.3457 21.0552 54.2724 21.1439 49.357 25.5188C47.3933 27.2629 45.8224 29.4503 44.7245 31.8658C41.4686 39.0151 42.233 48.1914 45.4888 55.2098C47.7143 60.0028 52.7901 62.9208 58.035 62.7054C59.5087 62.6463 60.9783 62.3634 62.317 61.73C62.9208 61.4428 63.7739 60.6151 64.4917 60.8052C65.4503 61.0627 66.1936 61.7891 67.1099 62.1438C69.082 62.9039 71.3286 62.8321 73.3893 62.5196C77.5615 61.882 81.151 59.1413 82.9753 55.2098C86.2311 48.1956 86.9997 39.0193 83.7396 31.8658H83.7354Z" fill="#F79D52"/>
<path d="M81.2607 33.1495C80.2979 31.0381 78.9255 29.1294 77.2152 27.6049C72.9206 23.7832 66.7425 23.7114 64.2257 23.8635C61.7088 23.7114 55.5308 23.7832 51.2361 27.6049C49.5216 29.1294 48.1534 31.0381 47.1906 33.1495C44.3444 39.3952 45.0158 47.406 47.8578 53.5334C49.8004 57.7182 54.2344 60.2646 58.812 60.0788C60.0999 60.0281 61.3795 59.779 62.5492 59.2258C63.0771 58.9766 63.8203 58.2503 64.4495 58.4192C65.2856 58.643 65.9359 59.2765 66.7383 59.5889C68.4612 60.2519 70.4249 60.1928 72.2196 59.9183C75.8639 59.3609 78.9973 56.9665 80.5893 53.5376C83.4313 47.4102 84.1027 39.3994 81.2565 33.1538L81.2607 33.1495Z" fill="#FFAA5D"/>
<path d="M76.2693 35.734C75.5894 34.2433 74.6181 32.892 73.4104 31.8151C70.3741 29.1167 66.0077 29.0618 64.2299 29.1716C62.452 29.0618 58.0856 29.1167 55.0493 31.8151C53.8374 32.892 52.8703 34.2391 52.1904 35.734C50.1804 40.1469 50.6533 45.8097 52.6634 50.1424C54.0358 53.1026 57.1692 54.9016 60.4082 54.7707C61.3203 54.7327 62.224 54.5595 63.0517 54.1668C63.4275 53.9894 63.9512 53.4785 64.3946 53.5967C64.9858 53.753 65.4418 54.2048 66.0119 54.4244C67.2281 54.8931 68.6174 54.8509 69.8885 54.6566C72.4645 54.2639 74.6773 52.5706 75.8048 50.1466C77.8148 45.8182 78.2878 40.1511 76.2777 35.7382H76.2693V35.734Z" fill="#FFB25F"/>
<path d="M59.0442 53.3476C59.0442 53.3476 57.6127 54.9227 58.3601 57.0088C58.5121 57.4311 58.1532 57.8618 57.7098 57.7942C56.1853 57.5535 53.5334 56.7554 52.8788 54.1203C52.4734 52.4988 52.4185 50.8561 52.4861 49.5174C52.6592 46.0969 51.5528 42.7017 49.264 40.1553C47.672 38.3859 45.569 37.0979 42.9804 37.7187C42.9804 37.7187 39.4881 43.8925 40.6578 48.6053L41.4264 47.993L41.6417 50.0073L42.6341 49.4034L42.3934 51.3881L43.1958 51.1305L43.3562 52.7226L44.0361 51.9118C44.0361 51.9118 45.0116 60.1126 53.3307 62.7434C61.6497 65.3743 64.4959 60.8051 64.4959 60.8051V55.9235L59.0527 53.3476H59.0442Z" fill="#F1E6E4"/>
<path d="M58.4023 60.9994C57.0806 60.9994 55.6152 60.746 54.0359 60.2477C46.7176 57.9294 45.7464 50.8814 45.7084 50.5816L45.4254 48.3266C45.379 47.9718 44.9356 47.8409 44.7033 48.1154V48.107L44.3317 48.2252L44.6569 45.5437C43.9263 45.9871 42.9846 45.5226 42.8917 44.6696L42.8368 44.1375C42.5708 44.3486 42.1738 44.129 42.2203 43.7912C42.575 41.2997 43.6603 38.8884 44.1924 37.8201C44.3191 37.8074 44.45 37.8032 44.5724 37.8032C45.9111 37.8032 47.2371 38.5211 48.5081 39.9357C50.4845 42.1316 51.5317 45.1763 51.3755 48.2886C51.2826 50.1002 51.4304 51.7851 51.8062 53.3011C52.427 55.7968 54.6018 57.5198 57.7774 58.0223C57.8829 58.0392 57.9885 58.0476 58.0941 58.0476C58.9851 58.0476 59.8043 57.4437 60.0366 56.5105C60.1295 56.1262 60.0873 55.7208 59.9606 55.3492C59.7874 54.8467 59.8212 54.3864 59.9226 54.019L63.3769 55.6532V59.1667C62.8617 59.7283 61.371 60.9994 58.4023 60.9994Z" fill="#F7F8EF"/>
<path d="M69.4114 53.3476C69.4114 53.3476 70.8429 54.9227 70.0955 57.0088C69.9435 57.4311 70.3024 57.8618 70.7458 57.7942C72.2703 57.5535 74.9222 56.7554 75.5768 54.1203C75.9822 52.4988 76.0371 50.8561 75.9695 49.5174C75.7964 46.0969 76.9028 42.7017 79.1916 40.1553C80.7836 38.3859 82.8866 37.0979 85.4752 37.7187C85.4752 37.7187 88.9675 43.8925 87.7978 48.6053L87.0292 47.993L86.8139 50.0073L85.8215 49.4034L86.0622 51.3881L85.2598 51.1305L85.0994 52.7226L84.4195 51.9118C84.4195 51.9118 83.444 60.1126 75.1249 62.7434C66.8059 65.3743 63.9597 60.8051 63.9597 60.8051V55.9235L69.4029 53.3476H69.4114Z" fill="#F1E6E4"/>
<path d="M70.0533 60.9994C71.375 60.9994 72.8404 60.746 74.4197 60.2477C81.738 57.9294 82.7092 50.8814 82.7472 50.5816L83.0302 48.3266C83.0766 47.9718 83.52 47.8409 83.7523 48.1154V48.107L84.1239 48.2252L83.7987 45.5437C84.5293 45.9871 85.471 45.5226 85.5639 44.6696L85.6188 44.1375C85.8848 44.3486 86.2818 44.129 86.2353 43.7912C85.8806 41.2997 84.7953 38.8884 84.2632 37.8201C84.1366 37.8074 84.0056 37.8032 83.8832 37.8032C82.5445 37.8032 81.2186 38.5211 79.9475 39.9357C77.9712 42.1316 76.9239 45.1763 77.0801 48.2886C77.173 50.1002 77.0252 51.7851 76.6494 53.3011C76.0286 55.7968 73.8539 57.5198 70.6783 58.0223C70.5727 58.0392 70.4671 58.0476 70.3615 58.0476C69.4705 58.0476 68.6513 57.4437 68.419 56.5105C68.3261 56.1262 68.3684 55.7208 68.495 55.3492C68.6682 54.8467 68.6344 54.3864 68.533 54.019L65.0787 55.6532V59.1667C65.5939 59.7283 67.0846 60.9994 70.0533 60.9994Z" fill="#F7F8EF"/>
<path d="M57.3846 37.9172C57.3846 37.9172 60.4926 33.2678 58.5839 32.0389C58.3094 31.8616 58.1954 31.5406 58.2629 31.2366C58.4572 30.4089 58.5966 28.9309 57.3804 28.3017C56.6625 27.9343 55.7334 28.0948 55.0071 28.3439C53.9598 28.7071 53.0308 29.3658 52.3256 30.1682C51.0334 31.6504 50.5351 33.9392 50.6575 35.81C50.7504 37.2711 57.3804 37.9129 57.3804 37.9129L57.3846 37.9172Z" fill="#F1E6E4"/>
<path d="M54.4961 36.2407C56.4513 36.6587 58.4403 35.375 58.6937 33.3902C58.7697 32.8033 58.6641 32.2881 58.2249 32.0009C58.0053 31.8616 57.9166 31.604 57.9715 31.3633C58.1236 30.7045 58.2376 29.5305 57.2705 29.0365C56.7005 28.7451 55.9614 28.8718 55.3829 29.0702C54.551 29.3574 53.812 29.881 53.2546 30.5187C52.2284 31.6926 51.8357 33.5127 51.9286 34.9992C51.9666 35.5608 53.2124 35.9662 54.4877 36.2407H54.4961Z" fill="#F7F8EF"/>
<path d="M71.2145 37.9172C71.2145 37.9172 68.1065 33.2678 70.0152 32.0389C70.2897 31.8616 70.4037 31.5406 70.3361 31.2366C70.1419 30.4089 70.0025 28.9309 71.2187 28.3017C71.9366 27.9343 72.8657 28.0948 73.592 28.3439C74.6393 28.7071 75.5683 29.3658 76.2735 30.1682C77.5657 31.6504 78.064 33.9392 77.9415 35.81C77.8486 37.2711 71.2187 37.9129 71.2187 37.9129L71.2145 37.9172Z" fill="#F1E6E4"/>
<path d="M74.103 36.2407C72.1478 36.6587 70.1588 35.375 69.9054 33.3902C69.8294 32.8033 69.935 32.2881 70.3742 32.0009C70.5938 31.8616 70.6825 31.604 70.6276 31.3633C70.4755 30.7045 70.3615 29.5305 71.3286 29.0365C71.8986 28.7451 72.6376 28.8718 73.2162 29.0702C74.0481 29.3574 74.7871 29.881 75.3445 30.5187C76.3707 31.6926 76.7634 33.5127 76.6705 34.9992C76.6325 35.5608 75.3867 35.9662 74.1114 36.2407H74.103Z" fill="#F7F8EF"/>
<path d="M64.2552 31.4942H64.1961C57.9336 31.4435 56.9412 41.2406 56.9412 41.2406C58.6473 43.9474 59.0949 53.3475 59.0949 53.3475C59.5721 55.5181 61.4681 56.9243 64.1961 57.8787V57.8998C64.1961 57.8998 64.2172 57.8914 64.2257 57.8914C64.2341 57.8914 64.2468 57.8998 64.2552 57.8998V57.8787C66.9874 56.9243 68.8793 55.5181 69.3565 53.3475C69.3565 53.3475 69.8041 43.9517 71.5101 41.2406C71.5101 41.2406 70.5178 31.4393 64.2552 31.4942Z" fill="#F79D52"/>
<path d="M64.251 38.4239H64.2088C62.3254 38.4113 61.0881 39.5557 60.2773 40.9281C59.1878 42.7777 58.9344 44.9905 59.4876 47.0513C60.2182 49.7666 60.4293 54.0655 60.4293 54.0655C60.784 55.6195 62.186 56.6245 64.2046 57.3086V57.3255C64.2046 57.3255 64.2172 57.3213 64.2257 57.3171C64.2341 57.3171 64.2383 57.3213 64.2468 57.3255V57.3086C66.2695 56.6288 67.6673 55.6195 68.022 54.0655C68.022 54.0655 68.2332 49.7666 68.9637 47.0513C69.5169 44.9905 69.2678 42.7777 68.1741 40.9281C67.3675 39.5599 66.126 38.4113 64.2426 38.4282H64.251V38.4239Z" fill="#FFAA5D"/>
<path d="M64.2468 41.4855H64.213C62.6336 41.4728 61.5948 42.4357 60.9192 43.5843C60.0028 45.1341 59.7917 46.9879 60.2604 48.7151C60.8727 50.9912 61.0501 54.5933 61.0501 54.5933C61.3457 55.894 62.5196 56.7385 64.213 57.3086V57.3213C64.213 57.3213 64.2257 57.3171 64.2299 57.3171C64.2341 57.3171 64.2426 57.3213 64.2468 57.3213V57.3086C65.9402 56.7385 67.1141 55.894 67.4097 54.5933C67.4097 54.5933 67.5871 50.9912 68.1994 48.7151C68.6639 46.9879 68.4528 45.1341 67.5406 43.5843C66.865 42.4357 65.8261 41.4771 64.2468 41.4897V41.4855Z" fill="#FFB25F"/>
<path d="M58.2545 40.9619C58.2545 40.9619 59.1413 40.1553 58.5248 38.8251C57.9125 37.4949 56.5316 36.0802 53.3222 35.8437C51.4557 35.7086 51.0208 35.2188 50.9827 34.8302C50.9659 34.674 50.7547 34.636 50.6871 34.7753C50.4676 35.2314 50.286 36.1436 50.4633 37.9763C50.8138 41.5404 57.6887 44.3866 57.2917 41.2406L58.2545 40.9619Z" fill="#F1E6E4"/>
<path d="M57.7605 40.1975C57.7605 40.1975 58.3686 39.4627 57.7394 38.483C57.1101 37.5033 55.8686 36.5405 53.3138 36.7094C52.1018 36.7897 51.6162 36.5785 51.4388 36.3378C51.3248 36.1816 51.0883 36.2407 51.0588 36.4307C50.9954 36.8614 51.0208 37.5624 51.2995 38.7026C51.9709 41.4686 57.6971 42.9508 57.0341 40.5185L57.7605 40.1933V40.1975Z" fill="#F7F8EF"/>
<path d="M58.6726 41.9205C58.6726 41.9205 57.1692 37.8876 55.2183 37.7356C53.2673 37.5836 52.0004 38.2846 51.9962 38.2846C51.8864 38.3437 52.0976 39.0194 52.1229 39.0954C52.3509 39.733 52.8577 40.2102 53.4573 40.5058C53.8796 40.7127 54.3357 40.8352 54.8002 40.907C55.5096 41.021 56.2613 40.8859 56.9539 41.1139C57.5535 41.3124 58.1236 41.6164 58.6726 41.9205Z" fill="#1D262D"/>
<path d="M54.7791 40.6958C55.5837 40.6958 56.236 40.0436 56.236 39.2389C56.236 38.4343 55.5837 37.782 54.7791 37.782C53.9745 37.782 53.3222 38.4343 53.3222 39.2389C53.3222 40.0436 53.9745 40.6958 54.7791 40.6958Z" fill="#C0A24C"/>
<path d="M54.7031 39.5008C55.0762 39.5008 55.3787 39.1983 55.3787 38.8251C55.3787 38.452 55.0762 38.1494 54.7031 38.1494C54.3299 38.1494 54.0274 38.452 54.0274 38.8251C54.0274 39.1983 54.3299 39.5008 54.7031 39.5008Z" fill="#1D262D"/>
<path d="M54.1921 38.6435C54.3134 38.6435 54.4117 38.5452 54.4117 38.4239C54.4117 38.3027 54.3134 38.2043 54.1921 38.2043C54.0708 38.2043 53.9725 38.3027 53.9725 38.4239C53.9725 38.5452 54.0708 38.6435 54.1921 38.6435Z" fill="#F7F8EF"/>
<path d="M54.4117 38.8716C54.4747 38.8716 54.5257 38.8205 54.5257 38.7575C54.5257 38.6946 54.4747 38.6435 54.4117 38.6435C54.3487 38.6435 54.2977 38.6946 54.2977 38.7575C54.2977 38.8205 54.3487 38.8716 54.4117 38.8716Z" fill="#F7F8EF"/>
<path d="M53.7107 38.5928C53.7107 38.5928 53.2039 39.8766 54.3441 40.3369" stroke="#EABE5C" stroke-width="0.38" stroke-linecap="round" stroke-linejoin="round"/>
<path d="M70.2011 40.9619C70.2011 40.9619 69.3143 40.1553 69.9308 38.8251C70.5431 37.4949 71.924 36.0802 75.1334 35.8437C76.9999 35.7086 77.4349 35.2188 77.4729 34.8302C77.4898 34.674 77.7009 34.636 77.7685 34.7753C77.9881 35.2314 78.1696 36.1436 77.9923 37.9763C77.6418 41.5404 70.7669 44.3866 71.1639 41.2406L70.2011 40.9619Z" fill="#F1E6E4"/>
<path d="M70.6951 40.1975C70.6951 40.1975 70.0871 39.4627 70.7163 38.483C71.3455 37.5033 72.587 36.5405 75.1418 36.7094C76.3538 36.7897 76.8394 36.5785 77.0168 36.3378C77.1308 36.1816 77.3673 36.2407 77.3968 36.4307C77.4602 36.8614 77.4349 37.5624 77.1561 38.7026C76.4847 41.4686 70.7585 42.9508 71.4215 40.5185L70.6951 40.1933V40.1975Z" fill="#F7F8EF"/>
<path d="M69.783 41.9204C69.783 41.9204 71.2864 37.8876 73.2373 37.7356C75.1883 37.5835 76.4552 38.2845 76.4594 38.2845C76.5692 38.3437 76.358 39.0193 76.3327 39.0953C76.1047 39.733 75.5979 40.2102 74.9983 40.5058C74.576 40.7127 74.1199 40.8352 73.6554 40.9069C72.946 41.021 72.1943 40.8858 71.5017 41.1139C70.9021 41.3123 70.332 41.6164 69.783 41.9204Z" fill="#1D262D"/>
<path d="M75.117 39.4752C75.2459 38.681 74.7066 37.9326 73.9124 37.8037C73.1182 37.6748 72.3698 38.2141 72.2409 39.0083C72.112 39.8026 72.6513 40.5509 73.4455 40.6798C74.2397 40.8088 74.9881 40.2694 75.117 39.4752Z" fill="#C0A24C"/>
<path d="M73.7525 39.5007C74.1257 39.5007 74.4282 39.1982 74.4282 38.8251C74.4282 38.4519 74.1257 38.1494 73.7525 38.1494C73.3793 38.1494 73.0768 38.4519 73.0768 38.8251C73.0768 39.1982 73.3793 39.5007 73.7525 39.5007Z" fill="#1D262D"/>
<path d="M74.2635 38.6435C74.3848 38.6435 74.4831 38.5452 74.4831 38.4239C74.4831 38.3026 74.3848 38.2043 74.2635 38.2043C74.1422 38.2043 74.0439 38.3026 74.0439 38.4239C74.0439 38.5452 74.1422 38.6435 74.2635 38.6435Z" fill="#F7F8EF"/>
<path d="M74.0439 38.8715C74.1069 38.8715 74.1579 38.8205 74.1579 38.7575C74.1579 38.6945 74.1069 38.6435 74.0439 38.6435C73.9809 38.6435 73.9299 38.6945 73.9299 38.7575C73.9299 38.8205 73.9809 38.8715 74.0439 38.8715Z" fill="#F7F8EF"/>
<path d="M74.7449 38.5928C74.7449 38.5928 75.2516 39.8766 74.1115 40.3369" stroke="#EABE5C" stroke-width="0.38" stroke-linecap="round" stroke-linejoin="round"/>
<path d="M66.3202 61.1895C66.0542 61.0501 65.7839 60.9065 65.5348 60.7461C65.2856 60.5856 65.066 60.3787 64.8845 60.1464C64.5171 59.6777 64.3144 59.0865 64.3144 58.4868H64.2426C64.2426 58.4868 64.2341 58.5122 64.2299 58.5248C64.2299 58.5122 64.2215 58.4995 64.2172 58.4868H64.1455C64.1455 59.0865 63.9385 59.6777 63.5754 60.1464C63.3896 60.3787 63.1742 60.5856 62.925 60.7461C62.6759 60.9023 62.4056 61.0459 62.1396 61.1895C61.0839 61.768 59.9606 62.2325 58.8077 62.5915L58.8289 62.659C59.4834 62.7266 60.1168 62.6506 60.7249 62.4985C61.0332 62.4352 61.3288 62.3212 61.6244 62.2198C61.8186 62.1438 62.0045 62.0551 62.1945 61.9665C63.5543 61.2232 64.914 61.2232 66.2738 61.9665C66.4638 62.0551 66.6496 62.1396 66.8439 62.2198C67.1437 62.3212 67.4351 62.4352 67.7433 62.5028C68.3514 62.6548 68.9849 62.7308 69.6394 62.6632L69.6605 62.5957C68.5077 62.2367 67.3886 61.7722 66.3287 61.1937H66.3202V61.1895Z" fill="#1D262D"/>
<path d="M61.7131 56.2951C61.3711 56.1093 61.0628 55.9404 60.8347 55.7335C60.3449 55.2943 60.2013 54.8847 60.1591 54.6271C60.0408 54.5215 59.627 54.1246 59.0443 53.3476C59.0443 53.3476 59.8888 56.5274 63.9681 58.7275C63.5036 57.7056 62.7224 56.8441 61.7131 56.2951Z" fill="#1D262D"/>
<path d="M68.2586 54.6609C67.9081 53.9599 66.5061 53.9176 65.7629 54.6609C65.0154 55.4083 63.4361 55.4041 62.6971 54.6609C61.9538 53.9176 60.5518 53.9599 60.2013 54.6609C60.2013 54.6609 60.1844 54.6482 60.1633 54.6271C60.2013 54.8847 60.3449 55.2985 60.839 55.7335C61.067 55.9362 61.3753 56.1051 61.7173 56.2951C62.7266 56.8441 63.5078 57.7056 63.9724 58.7275C64.0568 58.774 64.1455 58.8204 64.2342 58.8668C64.3229 58.8204 64.4073 58.774 64.496 58.7275C64.9605 57.7056 65.7417 56.8441 66.751 56.2951C67.0931 56.1093 67.4013 55.9404 67.6294 55.7335C68.1192 55.2943 68.2628 54.8847 68.305 54.6271C68.2839 54.6482 68.267 54.6609 68.267 54.6609H68.2586Z" fill="#DD7026"/>
<path d="M67.3887 55.1296C67.3887 55.1296 67.3887 55.1085 67.3802 55.1001C67.3084 54.9227 67.0931 54.8425 66.9284 54.7791C66.4174 54.5975 65.8177 54.7369 65.4461 55.1296C64.8507 55.7208 63.605 55.7166 63.018 55.1296C62.7688 54.8805 62.4014 54.7369 62.0552 54.6947C61.8018 54.6651 61.5484 54.6947 61.3288 54.8383C60.7799 55.1972 61.1726 55.649 61.5442 55.9784C61.7258 56.1389 61.9707 56.274 62.241 56.4218C63.0391 56.8568 63.6599 57.5409 64.0272 58.3475C64.0948 58.3855 64.1624 58.4192 64.2342 58.4572C64.306 58.4192 64.3735 58.3855 64.4411 58.3475C64.8085 57.5367 65.425 56.8568 66.2274 56.4218C66.4976 56.274 66.7426 56.1389 66.9241 55.9784C67.1057 55.818 67.2957 55.6237 67.3802 55.3914C67.4098 55.307 67.4224 55.2141 67.3971 55.1296H67.3887Z" fill="#ED7321"/>
<path d="M61.3246 55.1887C61.54 55.0494 61.7976 55.0156 62.0509 55.0452C62.3972 55.0874 62.7646 55.231 63.0137 55.4801C63.6007 56.0671 64.8465 56.0755 65.4419 55.4801C65.8177 55.0916 66.4174 54.948 66.9241 55.1296C67.0804 55.1845 67.2704 55.2647 67.3549 55.4168C67.3549 55.4083 67.3633 55.3999 67.3675 55.3872C67.3971 55.3028 67.4098 55.2098 67.3844 55.1254C67.3844 55.1169 67.3844 55.1043 67.376 55.0958C67.3042 54.9185 67.0888 54.8382 66.9241 54.7749C66.4132 54.5933 65.8135 54.7327 65.4419 55.1254C64.8465 55.7166 63.6007 55.7124 63.0137 55.1254C62.7646 54.8762 62.3972 54.7327 62.0509 54.6904C61.7976 54.6609 61.5442 54.6904 61.3246 54.834C61.0459 55.0156 61.0121 55.2225 61.0923 55.4294C61.1346 55.345 61.2064 55.2647 61.3246 55.1845V55.1887Z" fill="#F78537"/>
<path d="M66.7426 56.2951C67.0846 56.1093 67.3929 55.9404 67.6209 55.7335C68.1108 55.2943 68.2543 54.8847 68.2966 54.6271C68.4148 54.5215 68.8287 54.1246 69.4114 53.3476C69.4114 53.3476 68.5668 56.5274 64.4875 58.7275C64.9521 57.7056 65.7333 56.8441 66.7426 56.2951Z" fill="#1D262D"/>
<path d="M59.6987 59.1244C59.4158 58.8246 58.985 58.7064 58.5839 58.6641C58.1742 58.6177 57.7562 58.643 57.3381 58.6853C57.127 58.7064 56.9116 58.7486 56.6751 58.7739C56.4429 58.795 56.1642 58.7739 55.9066 58.6472C55.649 58.5206 55.4589 58.3052 55.3407 58.0941C55.2182 57.8787 55.1591 57.6464 55.138 57.4099L55.2013 57.3762C55.573 57.6633 55.877 57.9378 56.1726 58.0011C56.4471 58.0687 56.8694 58.1152 57.317 58.1321C57.7604 58.1447 58.2207 58.1912 58.6556 58.3305C58.8752 58.4023 59.0864 58.491 59.2806 58.6135C59.4749 58.7359 59.6522 58.8879 59.7578 59.0991L59.6945 59.1329V59.1244H59.6987Z" fill="#1D262D"/>
<path d="M61.0416 60.7502C60.4419 60.8769 59.8212 61.0627 59.1835 61.1345C58.5459 61.2063 57.8913 61.2063 57.2368 61.1007C56.5907 60.9867 55.9192 60.8051 55.3787 60.404L54.9902 60.0872C54.8762 59.9648 54.7622 59.8423 54.6566 59.7156C54.6059 59.6523 54.5468 59.5932 54.5003 59.5214L54.3737 59.3102C54.2934 59.1667 54.2132 59.0231 54.1498 58.8711L54.2047 58.8288C54.7664 59.1751 55.2225 59.5509 55.7545 59.817C56.2739 60.083 56.7765 60.3955 57.3592 60.556C57.9378 60.7164 58.5459 60.7882 59.1624 60.7882C59.4707 60.7925 59.7832 60.7798 60.0914 60.7545C60.4039 60.7333 60.7122 60.6827 61.0373 60.6827V60.7545L61.0416 60.7502Z" fill="#1D262D"/>
<path d="M61.7299 61.6835C61.0965 61.9833 60.4419 62.2283 59.7663 62.431C59.4284 62.5281 59.0822 62.6083 58.7232 62.659C58.3685 62.7139 57.9927 62.735 57.5957 62.659L57.4437 62.6252C57.393 62.6083 57.3423 62.583 57.2917 62.5619L57.0383 62.4436C56.9116 62.3761 56.7723 62.3423 56.6245 62.3169C56.3373 62.262 56.0079 62.2536 55.6532 62.2071C55.3027 62.1565 54.9057 62.0805 54.5679 61.8693C54.2259 61.6624 53.9809 61.3415 53.8542 61.0036L53.9091 60.9614C54.1963 61.1768 54.475 61.3415 54.7706 61.4217C55.062 61.5019 55.3703 61.5104 55.7081 61.5104C56.0417 61.5188 56.4133 61.523 56.7976 61.6497C56.9876 61.7131 57.1777 61.7933 57.3466 61.9115L57.4733 61.9918L57.5535 62.0382C57.5788 62.0551 57.6042 62.072 57.6337 62.0889L57.7351 62.1227C58.0096 62.2071 58.3432 62.2325 58.6768 62.2156C59.0104 62.2029 59.3482 62.1607 59.686 62.1016C60.3617 61.996 61.0331 61.8229 61.7004 61.6328L61.7257 61.6962V61.6835H61.7299Z" fill="#1D262D"/>
<path d="M68.7568 59.1244C69.0397 58.8246 69.4704 58.7064 69.8716 58.6641C70.2812 58.6177 70.6993 58.643 71.1173 58.6853C71.3285 58.7064 71.5439 58.7486 71.7803 58.7739C72.0126 58.795 72.2913 58.7739 72.5489 58.6472C72.8065 58.5206 72.9965 58.3052 73.1148 58.0941C73.2372 57.8787 73.2963 57.6464 73.3175 57.4099L73.2541 57.3762C72.8825 57.6633 72.5785 57.9378 72.2829 58.0011C72.0084 58.0687 71.5861 58.1152 71.1385 58.1321C70.6951 58.1447 70.2348 58.1912 69.7998 58.3305C69.5802 58.4023 69.3691 58.491 69.1748 58.6135C68.9806 58.7359 68.8032 58.8879 68.6976 59.0991L68.761 59.1329V59.1244H68.7568Z" fill="#1D262D"/>
<path d="M67.4139 60.7502C68.0136 60.8769 68.6343 61.0627 69.272 61.1345C69.9097 61.2063 70.5642 61.2063 71.2187 61.1007C71.8648 60.9867 72.5363 60.8051 73.0768 60.404L73.4653 60.0872C73.5793 59.9648 73.6934 59.8423 73.7989 59.7156C73.8496 59.6523 73.9087 59.5932 73.9552 59.5214L74.0819 59.3102C74.1621 59.1667 74.2423 59.0231 74.3057 58.8711L74.2508 58.8288C73.6891 59.1751 73.2331 59.5509 72.701 59.817C72.1816 60.083 71.679 60.3955 71.0963 60.556C70.5178 60.7164 69.9097 60.7882 69.2931 60.7882C68.9848 60.7925 68.6724 60.7798 68.3641 60.7545C68.0516 60.7333 67.7433 60.6827 67.4182 60.6827V60.7545L67.4139 60.7502Z" fill="#1D262D"/>
<path d="M66.7256 61.6835C67.359 61.9833 68.0136 62.2283 68.6892 62.431C69.0271 62.5281 69.3733 62.6083 69.7323 62.659C70.087 62.7139 70.4628 62.735 70.8598 62.659L71.0118 62.6252C71.0625 62.6083 71.1132 62.583 71.1638 62.5619L71.4172 62.4436C71.5439 62.3761 71.6832 62.3423 71.831 62.3169C72.1182 62.262 72.4476 62.2536 72.8023 62.2071C73.1528 62.1565 73.5498 62.0805 73.8876 61.8693C74.2296 61.6624 74.4746 61.3415 74.6013 61.0036L74.5464 60.9614C74.2592 61.1768 73.9805 61.3415 73.6849 61.4217C73.3935 61.5019 73.0852 61.5104 72.7474 61.5104C72.4138 61.5188 72.0422 61.523 71.6579 61.6497C71.4679 61.7131 71.2778 61.7933 71.1089 61.9115L70.9822 61.9918L70.902 62.0382C70.8767 62.0551 70.8513 62.072 70.8218 62.0889L70.7204 62.1227C70.4459 62.2071 70.1123 62.2325 69.7787 62.2156C69.4451 62.2029 69.1073 62.1607 68.7695 62.1016C68.0938 61.996 67.4224 61.8229 66.7551 61.6328L66.7298 61.6962V61.6835H66.7256Z" fill="#1D262D"/>
<path d="M44.7413 38.2719C44.7413 38.2719 42.6932 40.5354 43.711 43.6603C44.7287 46.7852 45.1383 47.3089 45.265 49.1838C45.265 49.1838 46.5614 48.5926 46.2531 46.857C45.9449 45.1214 43.9432 43.5041 44.7793 41.3082C45.6155 39.1123 44.7413 38.2677 44.7413 38.2677V38.2719Z" fill="#1D262D"/>
<path d="M46.9626 39.2896C46.9626 39.2896 47.6045 42.6003 47.6298 44.2304C47.6551 45.8604 48.7066 47.9212 48.5588 48.7151C48.411 49.509 47.8156 51.5993 51.1179 53.508C54.4202 55.4168 55.2436 54.8467 55.2436 54.8467C55.2436 54.8467 53.4785 54.3188 52.3805 53.5587C51.2826 52.7986 49.7159 50.8434 49.7708 50.2522C49.7708 50.2522 51.0123 51.2023 51.5486 51.1348C52.0849 51.0672 53.1575 51.4726 54.5553 50.2437C54.5553 50.2437 53.1871 49.9017 52.313 49.9946C51.4388 50.0875 50.7505 50.0073 50.3071 49.3823C49.8637 48.7573 49.0782 48.2041 49.188 46.5698C49.2978 44.9356 48.525 43.7996 48.9811 42.5412C49.4372 41.2828 46.9668 39.2896 46.9668 39.2896H46.9626Z" fill="#1D262D"/>
<path d="M46.2067 50.3789C46.2067 50.3789 45.4128 52.2412 46.6754 54.6186C47.938 56.9919 50.1044 55.8053 50.5858 57.5071C51.0672 59.2089 53.3602 58.1954 53.3602 58.1954C53.3602 58.1954 51.8527 57.4818 50.8476 55.8559C49.8426 54.2259 48.5968 55.6237 47.7058 53.9176C46.8148 52.2116 46.2067 50.3789 46.2067 50.3789Z" fill="#1D262D"/>
<path d="M50.5013 41.0885C50.3746 40.8141 50.4675 40.396 50.5309 40.13C50.628 39.7203 50.8814 39.3445 51.3543 39.505C52.3805 39.8555 52.3214 40.5522 52.8112 41.0041C53.3011 41.4559 54.3315 42.803 56.0755 42.6003C56.0755 42.6003 54.3821 43.0311 53.6093 42.2752C52.8366 41.5235 51.8864 40.6494 51.6035 40.8605C51.4177 40.9956 51.2994 41.2237 51.0798 41.3124C50.9574 41.363 50.8349 41.3588 50.7124 41.3039C50.6069 41.2575 50.5393 41.1815 50.4971 41.0885H50.5013Z" fill="#1D262D"/>
<path d="M54.2344 45.5648C54.2344 45.5648 55.0959 44.9483 54.5469 44.412C53.9979 43.8714 53.8797 44.2093 52.7817 43.2127C51.6838 42.2161 51.101 42.8368 51.101 42.8368C51.101 42.8368 52.7817 43.5167 52.9633 43.9517C53.1449 44.3866 53.5461 45.6999 54.2344 45.5648Z" fill="#1D262D"/>
<path d="M58.339 49.1838C58.1743 49.3528 56.7047 50.1593 56.0375 50.9237C55.3745 51.688 56.5147 52.6086 56.5147 52.6086C56.5147 52.6086 56.1769 51.5191 56.8356 51.063C57.4944 50.6069 58.339 49.1838 58.339 49.1838Z" fill="#1D262D"/>
<path d="M57.9885 45.9618C57.9885 45.9618 57.2495 46.7768 57.1608 47.2286C57.0721 47.6805 57.2115 48.1577 57.2115 48.1577C57.2115 48.1577 57.4353 47.3342 57.7689 47.0133C58.1025 46.6923 57.9885 45.966 57.9885 45.966V45.9618Z" fill="#1D262D"/>
<path d="M56.2107 47.178C56.2107 47.178 56.8399 46.27 56.8652 45.814C56.8905 45.3579 56.6963 44.9018 56.6963 44.9018C56.6963 44.9018 56.5823 45.7464 56.2951 46.1096C56.008 46.4727 56.2149 47.178 56.2149 47.178H56.2107Z" fill="#1D262D"/>
<path d="M55.6997 47.6298C55.6997 47.6298 55.2056 48.5124 55.2225 48.9009C55.2394 49.2894 55.459 49.6272 55.459 49.6272C55.459 49.6272 55.4886 48.9009 55.7208 48.5377C55.9531 48.1745 55.6997 47.6298 55.6997 47.6298Z" fill="#1D262D"/>
<path d="M54.5257 47.1062C54.5257 47.1062 55.5223 45.9618 55.6152 45.417C55.7081 44.8723 55.4886 44.3613 55.4886 44.3613C55.4886 44.3613 55.2225 45.3706 54.7707 45.8351C54.3188 46.2996 54.5257 47.1062 54.5257 47.1062Z" fill="#1D262D"/>
<path d="M47.6593 31.055C47.6593 31.055 46.2869 32.6259 46.2911 33.2847C46.2954 33.9435 45.6197 35.5904 45.6197 35.5904C45.6197 35.5904 47.2708 34.6698 47.4693 33.5887C47.6678 32.5077 47.6593 31.055 47.6593 31.055Z" fill="#1D262D"/>
<path d="M49.4625 33.0102C49.4625 33.0102 49.3907 34.6909 48.8502 35.4384C48.3097 36.1816 48.6982 39.5008 48.6982 39.5008C48.6982 39.5008 49.585 38.3944 49.6483 36.9882C49.7117 35.582 49.4625 33.0102 49.4625 33.0102Z" fill="#1D262D"/>
<path d="M52.4354 33.6774C52.3045 33.6859 50.5351 34.2433 50.7505 35.9155C50.9658 37.5878 53.0941 36.0507 53.9683 36.7939C53.9683 36.7939 52.9759 35.1132 53.5713 34.4249C54.1668 33.7365 55.3998 32.9426 55.4041 33.6605C55.4083 34.3784 54.5806 34.6233 55.0156 35.7509C55.0156 35.7509 55.252 34.3658 55.7546 34.1631C56.2571 33.9604 56.3964 33.1369 55.8812 32.8413C55.3661 32.5457 53.9345 32.4655 53.2715 33.7365C52.6085 35.0076 52.731 35.6199 52.731 35.6199C52.731 35.6199 51.5866 35.7424 52.0342 34.8387C52.4818 33.935 52.4396 33.6774 52.4396 33.6774H52.4354Z" fill="#1D262D"/>
<path d="M48.9769 30.6032C48.9769 30.6032 50.5985 29.6572 50.7082 28.7536C50.818 27.8499 53.2251 27.1277 53.2251 27.1277C53.2251 27.1277 51.5148 27.9597 51.4304 28.4537C51.3459 28.9478 50.4844 30.24 48.9769 30.6032Z" fill="#1D262D"/>
<path d="M83.7143 38.2719C83.7143 38.2719 85.7624 40.5354 84.7447 43.6603C83.7269 46.7852 83.3173 47.3089 83.1906 49.1838C83.1906 49.1838 81.8942 48.5926 82.2025 46.857C82.5108 45.1214 84.5124 43.5041 83.6763 41.3082C82.8401 39.1123 83.7143 38.2677 83.7143 38.2677V38.2719Z" fill="#1D262D"/>
<path d="M81.493 39.2896C81.493 39.2896 80.8512 42.6003 80.8258 44.2304C80.8005 45.8604 79.749 47.9212 79.8968 48.7151C80.0446 49.5047 80.64 51.5993 77.3377 53.508C74.0354 55.4168 73.212 54.8467 73.212 54.8467C73.212 54.8467 74.9771 54.3188 76.0751 53.5587C77.173 52.7986 78.7397 50.8434 78.6848 50.2522C78.6848 50.2522 77.4433 51.2023 76.907 51.1348C76.3665 51.0672 75.2981 51.4726 73.9003 50.2437C73.9003 50.2437 75.2685 49.9017 76.1427 49.9946C77.0168 50.0875 77.7051 50.0073 78.1485 49.3823C78.5919 48.7573 79.3774 48.2041 79.2676 46.5698C79.1578 44.9356 79.9306 43.7996 79.4745 42.5412C79.0184 41.2828 81.4888 39.2896 81.4888 39.2896H81.493Z" fill="#1D262D"/>
<path d="M82.2489 50.3789C82.2489 50.3789 83.0428 52.2412 81.7801 54.6187C80.5175 56.9919 78.3512 55.8053 77.8698 57.5071C77.3884 59.2089 75.0953 58.1954 75.0953 58.1954C75.0953 58.1954 76.6029 57.4818 77.6079 55.856C78.613 54.2259 79.8587 55.6237 80.7498 53.9177C81.6408 52.2116 82.2489 50.3789 82.2489 50.3789Z" fill="#1D262D"/>
<path d="M77.9543 41.0886C78.081 40.8141 77.988 40.396 77.9247 40.13C77.8276 39.7204 77.5742 39.3445 77.1012 39.505C76.0751 39.8555 76.1342 40.5523 75.6444 41.0041C75.1545 41.456 74.1241 42.8031 72.3801 42.6004C72.3801 42.6004 74.0734 43.0311 74.8462 42.2752C75.619 41.5235 76.5692 40.6494 76.8521 40.8605C77.0379 40.9957 77.1561 41.2237 77.3757 41.3124C77.4982 41.3631 77.6207 41.3588 77.7431 41.3039C77.8487 41.2575 77.9163 41.1815 77.9585 41.0886H77.9543Z" fill="#1D262D"/>
<path d="M74.2212 45.5648C74.2212 45.5648 73.3597 44.9483 73.9087 44.412C74.4577 43.8714 74.5759 44.2093 75.6739 43.2127C76.7718 42.2161 77.3546 42.8368 77.3546 42.8368C77.3546 42.8368 75.6739 43.5167 75.4923 43.9517C75.3107 44.3866 74.9095 45.6999 74.2212 45.5648Z" fill="#1D262D"/>
<path d="M70.1166 49.1838C70.2813 49.3528 71.7508 50.1593 72.418 50.9237C73.081 51.688 71.9409 52.6086 71.9409 52.6086C71.9409 52.6086 72.2787 51.5191 71.6199 51.063C70.9612 50.6027 70.1166 49.1838 70.1166 49.1838Z" fill="#1D262D"/>
<path d="M70.4671 45.9618C70.4671 45.9618 71.2061 46.7768 71.2948 47.2286C71.3792 47.6762 71.2441 48.1577 71.2441 48.1577C71.2441 48.1577 71.0203 47.3342 70.6867 47.0133C70.3531 46.6923 70.4671 45.966 70.4671 45.966V45.9618Z" fill="#1D262D"/>
<path d="M72.2449 47.1779C72.2449 47.1779 71.6157 46.27 71.5904 45.8139C71.565 45.3579 71.7593 44.9018 71.7593 44.9018C71.7593 44.9018 71.8733 45.7464 72.1604 46.1095C72.4476 46.4727 72.2407 47.1779 72.2407 47.1779H72.2449Z" fill="#1D262D"/>
<path d="M72.7559 47.6298C72.7559 47.6298 73.25 48.5124 73.2331 48.9009C73.2162 49.2894 72.9966 49.6272 72.9966 49.6272C72.9966 49.6272 72.9671 48.9009 72.7348 48.5377C72.5025 48.1745 72.7559 47.6298 72.7559 47.6298Z" fill="#1D262D"/>
<path d="M73.9299 47.1061C73.9299 47.1061 72.9333 45.9617 72.8404 45.417C72.7475 44.8722 72.967 44.3613 72.967 44.3613C72.967 44.3613 73.2331 45.3705 73.6849 45.835C74.1368 46.2996 73.9299 47.1061 73.9299 47.1061Z" fill="#1D262D"/>
<path d="M80.7963 31.055C80.7963 31.055 82.1687 32.6259 82.1645 33.2847C82.1645 33.9435 82.8359 35.5904 82.8359 35.5904C82.8359 35.5904 81.1848 34.6698 80.9863 33.5887C80.7878 32.5077 80.7963 31.055 80.7963 31.055Z" fill="#1D262D"/>
<path d="M78.9931 33.0102C78.9931 33.0102 79.0648 34.6909 79.6054 35.4384C80.1459 36.1858 79.7574 39.5008 79.7574 39.5008C79.7574 39.5008 78.8706 38.3944 78.8072 36.9882C78.7439 35.582 78.9931 33.0102 78.9931 33.0102Z" fill="#1D262D"/>
<path d="M76.0202 33.6774C76.1511 33.6859 77.9205 34.2433 77.7051 35.9155C77.4897 37.5878 75.3614 36.0507 74.4873 36.7939C74.4873 36.7939 75.4796 35.1132 74.8842 34.4249C74.2888 33.7365 73.0557 32.9426 73.0515 33.6605C73.0473 34.3784 73.875 34.6233 73.44 35.7509C73.44 35.7509 73.2035 34.3658 72.701 34.1631C72.1985 33.9604 72.0591 33.1369 72.5743 32.8413C73.0895 32.5457 74.5211 32.4655 75.184 33.7365C75.847 35.0076 75.7246 35.6199 75.7246 35.6199C75.7246 35.6199 76.869 35.7424 76.4213 34.8387C75.9737 33.935 76.016 33.6774 76.016 33.6774H76.0202Z" fill="#1D262D"/>
<path d="M79.4787 30.6032C79.4787 30.6032 77.8571 29.6572 77.7473 28.7536C77.6375 27.8499 75.2305 27.1277 75.2305 27.1277C75.2305 27.1277 76.9407 27.9597 77.0252 28.4537C77.1096 28.9478 77.9711 30.24 79.4787 30.6032Z" fill="#1D262D"/>
<path d="M61.9411 24.1717C61.9833 24.252 59.8676 24.1717 58.3221 24.8136C56.7765 25.4555 54.4117 25.105 54.4117 25.105C54.4117 25.105 56.1051 23.9099 58.1785 23.9648C60.2519 24.0239 61.599 23.4876 61.9453 24.1675L61.9411 24.1717Z" fill="#1D262D"/>
<path d="M55.8686 23.5299C55.9868 23.5299 58.5248 22.5375 60.2477 22.5375C61.9706 22.5375 62.7012 23.0316 62.7012 23.0316C62.7012 23.0316 60.366 22.5628 59.2849 23.0316C58.2038 23.5003 55.8686 23.5256 55.8686 23.5256V23.5299Z" fill="#1D262D"/>
<path d="M58.1193 26.1058C56.3668 26.6506 55.5898 28.6353 55.5898 28.6353C55.5898 28.6353 58.7823 27.2713 59.7536 26.3381C60.7249 25.4048 61.4258 26.3761 62.4773 25.8693C63.5288 25.3626 63.5668 26.2578 63.6048 27.0348C63.6429 27.8118 62.9419 28.8253 62.7476 29.0196C62.5534 29.2138 59.2468 29.0956 58.2334 29.7206C57.2199 30.3413 55.2773 31.3928 55.2773 31.3928C55.2773 31.3928 55.8981 31.7433 57.3381 31.1099C58.7781 30.4765 59.4411 30.8481 61.6201 30.1851C63.7991 29.5221 64.2256 29.8726 64.2256 29.8726V23.6861C63.7189 24.6996 59.8676 25.5526 58.1151 26.0974V26.1058H58.1193Z" fill="#1D262D"/>
<path d="M70.2221 29.7206C69.2086 29.0998 65.9021 29.2138 65.7078 29.0196C65.5136 28.8253 64.8126 27.8118 64.8506 27.0348C64.8886 26.2578 64.9266 25.3626 65.9781 25.8693C67.0296 26.3761 67.7306 25.4006 68.7018 26.3381C69.6731 27.2755 72.8656 28.6353 72.8656 28.6353C72.8656 28.6353 72.0886 26.6506 70.3361 26.1058C68.5836 25.5611 64.7323 24.7038 64.2256 23.6945V29.8811C64.2256 29.8811 64.6521 29.5306 66.8311 30.1936C69.0101 30.8565 69.6731 30.4849 71.1131 31.1184C72.5531 31.7518 73.1739 31.4013 73.1739 31.4013C73.1739 31.4013 71.2271 30.3498 70.2178 29.729V29.7206H70.2221Z" fill="#1D262D"/>
<path d="M60.7967 30.645C59.8127 31.1307 59.3778 32.9001 59.3778 32.9001C59.3778 32.9001 61.1683 31.6881 61.7173 30.8562C62.262 30.0243 62.659 30.89 63.2459 30.4381C63.8329 29.9863 63.8583 30.7844 63.8794 31.477C63.9005 32.1695 63.5078 33.0732 63.398 33.2463C63.2882 33.4195 61.4301 33.3139 60.8642 33.8713C60.2942 34.4245 59.2047 35.362 59.2047 35.362C59.2047 35.362 59.5552 35.6745 60.3617 35.1086C61.1683 34.547 61.5399 34.8764 62.7645 34.2852C63.9892 33.694 64.2299 34.0065 64.2299 34.0065V28.4956C63.9469 29.3951 61.7806 30.1594 60.7967 30.645Z" fill="#1D262D"/>
<path d="M67.5955 33.8674C67.0254 33.3143 65.1716 33.4156 65.0618 33.2425C64.952 33.0693 64.5592 32.1699 64.5804 31.4731C64.6015 30.7805 64.6226 29.9824 65.2138 30.4343C65.805 30.8861 66.1977 30.0162 66.7425 30.8523C67.2872 31.6842 69.0819 32.8962 69.0819 32.8962C69.0819 32.8962 68.6428 31.1268 67.6631 30.6412C66.6791 30.1555 64.517 29.3912 64.2299 28.4917V34.0026C64.2299 34.0026 64.4706 33.6901 65.6952 34.2813C66.9198 34.8725 67.2914 34.5431 68.098 35.1047C68.9046 35.6664 69.2551 35.3581 69.2551 35.3581C69.2551 35.3581 68.1614 34.4206 67.5955 33.8674Z" fill="#1D262D"/>
<path d="M66.5144 24.1675C66.4722 24.2478 68.5878 24.1675 70.1334 24.8094C71.679 25.4513 74.0438 25.1008 74.0438 25.1008C74.0438 25.1008 72.3504 23.9057 70.277 23.9606C68.2036 24.0197 66.8565 23.4834 66.5102 24.1633L66.5144 24.1675Z" fill="#1D262D"/>
<path d="M72.5827 23.5256C72.4645 23.5256 69.9265 22.5333 68.2036 22.5333C66.4807 22.5333 65.7501 23.0273 65.7501 23.0273C65.7501 23.0273 68.0854 22.5586 69.1664 23.0273C70.2475 23.4961 72.5827 23.5214 72.5827 23.5214V23.5256Z" fill="#1D262D"/>
<path d="M55.421 22.5713C55.421 22.5713 53.2757 21.4057 51.9878 19.1127C50.6998 16.8197 47.2413 14.2437 44.1797 16.6635C44.1797 16.6635 42.423 17.905 42.613 20.0502C42.7988 22.1954 41.8487 21.3635 42.8199 23.3778C43.7912 25.3921 45.0327 24.9065 44.7667 26.4647C44.5006 28.0188 43.9854 28.365 45.1298 29.5179C46.2742 30.6707 45.9406 31.3928 45.9406 31.3928C45.9406 31.3928 48.0563 25.6624 55.4167 22.5713H55.421Z" fill="#F79D52"/>
<path d="M54.2048 23.0949C54.2048 23.0949 52.6001 22.2207 51.6373 20.5063C50.6744 18.7918 48.0858 16.8619 45.797 18.6735C45.797 18.6735 44.4837 19.6026 44.6231 21.2073C44.7624 22.8119 44.053 22.1912 44.7793 23.6945C45.5056 25.2021 46.4347 24.8389 46.2362 26.0044C46.0377 27.17 45.6534 27.4275 46.5065 28.289C47.3637 29.1505 47.1146 29.691 47.1146 29.691C47.1146 29.691 48.6939 25.4048 54.2048 23.0907V23.0949Z" fill="#ED7321"/>
<path d="M54.2048 23.0949C54.2048 23.0949 52.6001 22.2207 51.6373 20.5063C50.6745 18.7918 48.0858 16.8619 45.797 18.6735C45.797 18.6735 44.4837 19.6026 44.6231 21.2073C44.6231 21.2579 44.6231 21.3002 44.6315 21.3466C46.1729 20.0502 48.7235 19.9319 49.036 21.4986C49.737 23.6016 49.737 25.7046 47.634 27.4571C47.237 27.6556 47.1779 28.3059 47.4566 28.9604C48.1703 27.6387 50.0917 24.8136 54.2006 23.0907L54.2048 23.0949Z" fill="#DD7026"/>
<path d="M46.3793 30.472C46.2526 30.2693 46.0794 30.0413 45.8345 29.7963C44.6901 28.6435 45.2095 28.2972 45.4713 26.7432C45.7374 25.1892 44.4916 25.6706 43.5246 23.6563C42.5533 21.642 43.5035 22.4739 43.3177 20.3286C43.1319 18.1834 44.8844 16.9419 44.8844 16.9419C46.2061 15.8946 47.6039 15.7806 48.8708 16.1776C47.435 15.4977 45.7585 15.4217 44.1834 16.6674C44.1834 16.6674 42.4267 17.9089 42.6167 20.0542C42.8067 22.1994 41.8523 21.3675 42.8236 23.3818C43.7949 25.3961 45.0364 24.9105 44.7703 26.4687C44.5043 28.0227 43.9891 28.369 45.1335 29.5218C46.185 30.5818 45.9908 31.2786 45.9528 31.3799C45.9781 31.3081 46.1132 30.9787 46.3793 30.472Z" fill="#1D262D"/>
<path d="M73.0346 22.5713C73.0346 22.5713 75.1798 21.4057 76.4678 19.1127C77.7558 16.8197 81.2143 14.2437 84.2759 16.6635C84.2759 16.6635 86.0326 17.905 85.8426 20.0502C85.6568 22.1954 86.6069 21.3635 85.6357 23.3778C84.6644 25.3921 83.4229 24.9065 83.6889 26.4647C83.955 28.0188 84.4701 28.365 83.3258 29.5179C82.1814 30.6707 82.515 31.3928 82.515 31.3928C82.515 31.3928 80.3993 25.6624 73.0388 22.5713H73.0346Z" fill="#F79D52"/>
<path d="M74.2508 23.0949C74.2508 23.0949 75.8555 22.2207 76.8183 20.5063C77.7811 18.7918 80.3697 16.8619 82.6585 18.6735C82.6585 18.6735 83.9719 19.6026 83.8325 21.2073C83.6931 22.8119 84.4026 22.1912 83.6762 23.6945C82.9499 25.2021 82.0209 24.8389 82.2194 26.0044C82.4178 27.17 82.8021 27.4275 81.9491 28.289C81.0961 29.1505 81.341 29.691 81.341 29.691C81.341 29.691 79.7616 25.4048 74.2508 23.0907V23.0949Z" fill="#ED7321"/>
<path d="M74.2508 23.0949C74.2508 23.0949 75.8555 22.2207 76.8183 20.5063C77.7811 18.7918 80.3697 16.8619 82.6585 18.6735C82.6585 18.6735 83.9718 19.6026 83.8325 21.2073C83.8283 21.2579 83.8283 21.3002 83.824 21.3466C82.2827 20.0502 79.7321 19.9319 79.4196 21.4986C78.7186 23.6016 78.7186 25.7046 80.8216 27.4571C81.2185 27.6556 81.2777 28.3059 80.9989 28.9604C80.2853 27.6387 78.3639 24.8136 74.255 23.0907H74.2508V23.0949Z" fill="#DD7026"/>
<path d="M82.0758 30.4723C82.2025 30.2696 82.3756 30.0415 82.6205 29.7966C83.7649 28.6438 83.2455 28.2975 82.9837 26.7435C82.7177 25.1894 83.9634 25.6709 84.9304 23.6565C85.9017 21.6422 84.9516 22.4741 85.1374 20.3289C85.3232 18.1837 83.5707 16.9422 83.5707 16.9422C82.2489 15.8949 80.8512 15.7809 79.5843 16.1778C81.0201 15.498 82.6965 15.4219 84.2717 16.6677C84.2717 16.6677 86.0284 17.9092 85.8384 20.0544C85.6526 22.1997 86.6027 21.3677 85.6314 23.3821C84.6602 25.3964 83.4187 24.9107 83.6847 26.469C83.9507 28.023 84.4659 28.3693 83.3215 29.5221C82.27 30.5821 82.4643 31.2788 82.5023 31.3802C82.477 31.3084 82.3418 30.979 82.0758 30.4723Z" fill="#1D262D"/>
<path d="M82.5023 31.3802V31.3962C82.5023 31.3962 82.5063 31.3962 82.5023 31.3802Z" fill="#1D262D"/>
</g>
</g>
<defs>
<clipPath id="clip0_730_1494">
<rect width="144" height="89.9472" fill="white"/>
</clipPath>
</defs>
</svg>
