<svg width="32" height="32" viewBox="0 0 32 32" fill="none" xmlns="http://www.w3.org/2000/svg">
<path fill-rule="evenodd" clip-rule="evenodd" d="M16 32C24.8366 32 32 24.8366 32 16C32 7.16344 24.8366 0 16 0C7.16344 0 0 7.16344 0 16C0 24.8366 7.16344 32 16 32ZM21.2381 22.7612V25.6599H22.6874V22.7612H25.5861V21.3118H22.6874V18.4131H21.2381V21.3118H18.3394V22.7612H21.2381ZM7.66256 23.2926C7.95243 23.5825 8.29061 23.7274 8.6771 23.7274H16.6727C16.5921 23.4859 16.5277 23.2443 16.4794 23.0027C16.4311 22.7612 16.4069 22.5196 16.4069 22.2781H8.6771V13.8235H21.2381V16.529C21.4797 16.4968 21.7212 16.4807 21.9628 16.4807C22.2043 16.4807 22.4459 16.4968 22.6874 16.529V9.23395C22.6874 8.84746 22.5425 8.50928 22.2526 8.21941C21.9628 7.92954 21.6246 7.78461 21.2381 7.78461H19.668V6.33526H18.0978V7.78461H11.8173V6.33526H10.2472V7.78461H8.6771C8.29061 7.78461 7.95243 7.92954 7.66256 8.21941C7.37269 8.50928 7.22775 8.84746 7.22775 9.23395V22.2781C7.22775 22.6646 7.37269 23.0027 7.66256 23.2926Z" fill="#BC4415"/>
</svg>
