<svg width="32" height="32" viewBox="0 0 32 32" fill="none" xmlns="http://www.w3.org/2000/svg">
<path fill-rule="evenodd" clip-rule="evenodd" d="M16 0C24.8366 0 32 7.16344 32 16C32 24.8366 24.8366 32 16 32C7.16344 32 0 24.8366 0 16C0 7.16344 7.16344 0 16 0ZM22.5583 10.0388C21.3165 9.47082 20.0057 9.06777 18.6593 8.83994C18.4759 9.16946 18.3097 9.50832 18.1614 9.85513C17.4453 9.74706 16.722 9.69268 15.9978 9.69244C15.2747 9.69244 14.5481 9.74737 13.8339 9.85369C13.688 9.50937 13.5186 9.168 13.3348 8.83975C11.9883 9.0698 10.6774 9.47363 9.43494 10.0411C6.96725 13.6916 6.2985 17.2509 6.63287 20.7597C8.07782 21.827 9.69503 22.6387 11.4143 23.1596C11.7998 22.6391 12.1452 22.0851 12.4384 21.5085C11.8789 21.3 11.339 21.0424 10.8251 20.7386C10.9603 20.6405 11.0926 20.5394 11.2204 20.4413C12.7149 21.1433 14.3478 21.5093 15.9999 21.5093C17.6522 21.5093 19.2851 21.1432 20.7796 20.4412C20.9089 20.5467 21.0413 20.6478 21.1749 20.7384C20.6599 21.0428 20.1191 21.3011 19.5587 21.5104C19.853 22.0883 20.1956 22.6402 20.5829 23.1602C22.3036 22.641 23.9221 21.8293 25.3674 20.7607L25.3671 20.7612C25.7594 16.6922 24.6968 13.1656 22.5583 10.0388ZM12.8612 18.6019C11.9295 18.6019 11.1596 17.7562 11.1596 16.7159C11.1596 15.6756 11.9027 14.8226 12.8582 14.8226C13.8139 14.8226 14.5777 15.6756 14.5614 16.7159C14.545 17.7562 13.8109 18.6019 12.8612 18.6019ZM19.1387 18.6019C18.2054 18.6019 17.4386 17.7562 17.4386 16.7159C17.4386 15.6756 18.1816 14.8226 19.1387 14.8226C20.0957 14.8226 20.8537 15.6756 20.8373 16.7159C20.821 17.7562 20.0883 18.6019 19.1387 18.6019Z" fill="#BC4415"/>
</svg>
