<svg width="33" height="33" viewBox="0 0 33 33" fill="none" xmlns="http://www.w3.org/2000/svg">
<path fill-rule="evenodd" clip-rule="evenodd" d="M16.0048 0C24.8377 0 32.0096 7.16232 32.0096 16.0048C32.0096 24.8377 24.8473 32.0096 16.0048 32.0096C7.17192 32.0096 0 24.8473 0 16.0048C0 7.17192 7.16232 0 16.0048 0ZM12.2604 7.21992H19.7492C22.5623 7.21992 24.8569 9.49535 24.8569 12.2604V19.73C24.8569 22.5046 22.5623 24.7705 19.7492 24.7705H12.2604C9.44734 24.7705 7.15271 22.5046 7.15271 19.73V12.2604C7.15271 9.48575 9.45694 7.21992 12.2604 7.21992ZM15.9568 11.2619C18.6931 11.2619 20.9109 13.4797 20.9109 16.216C20.9109 18.9523 18.6931 21.1701 15.9568 21.1701C13.2205 21.1701 11.0027 18.9523 11.0027 16.216C11.0027 13.4797 13.2205 11.2619 15.9568 11.2619ZM15.9568 12.9325C17.7618 12.9325 19.2307 14.4014 19.2307 16.2064C19.2307 18.0114 17.7618 19.4803 15.9568 19.4803C14.1422 19.4803 12.6829 18.0114 12.6829 16.2064C12.6829 14.4014 14.1518 12.9325 15.9568 12.9325ZM20.7477 10.5707C21.1893 10.5707 21.5542 10.9259 21.5542 11.3771C21.5542 11.8188 21.1989 12.1836 20.7477 12.1836C20.306 12.1836 19.9412 11.8284 19.9412 11.3771C19.9412 10.9355 20.2964 10.5707 20.7477 10.5707ZM12.8749 8.65046H19.1347C21.4869 8.65046 23.4071 10.5611 23.4071 12.9037V19.2019C23.4071 21.5446 21.4869 23.4551 19.1347 23.4551H12.8749C10.5227 23.4551 8.60246 21.5446 8.60246 19.2019V12.9037C8.60246 10.5611 10.5227 8.65046 12.8749 8.65046Z" fill="#0C2B53"/>
</svg>
