<svg width="32" height="32" viewBox="0 0 32 32" fill="none" xmlns="http://www.w3.org/2000/svg">
<path fill-rule="evenodd" clip-rule="evenodd" d="M16 32C24.8365 32 32 24.8365 32 16C32 7.16347 24.8365 0 16 0C7.16347 0 0 7.16347 0 16C0 24.8365 7.16347 32 16 32ZM7.8736 6.8624L18.9735 6.04561C20.3365 5.92879 20.6872 6.00704 21.5439 6.62892L25.0871 9.1174L25.1755 9.18187C25.6916 9.5584 25.8667 9.68613 25.8667 10.1283V23.7767C25.8667 24.6321 25.5548 25.1379 24.4646 25.2153L11.5744 25.9931C10.756 26.0321 10.3665 25.9156 9.93793 25.3709L7.32867 21.988C6.86107 21.3653 6.66667 20.8995 6.66667 20.3544V8.2228C6.66667 7.52333 6.9786 6.93987 7.8736 6.8624ZM11.8664 9.90443C10.8143 9.9754 10.5752 9.99153 9.9776 9.5064L8.4578 8.30106C8.30279 8.1452 8.38053 7.95073 8.76966 7.9122L19.4409 7.13446C20.3365 7.05653 20.8037 7.36806 21.1544 7.64013L22.9847 8.96233C23.0626 9.001 23.257 9.23407 23.0233 9.23407L12.0026 9.89526L11.8668 9.9044L11.8664 9.90443ZM10.6393 23.6598V12.0728C10.6393 11.5675 10.7951 11.3339 11.2621 11.2947L23.9189 10.5562C24.3482 10.5173 24.5426 10.7897 24.5426 11.2947V22.8039C24.5426 23.3098 24.4645 23.7381 23.7633 23.7767L11.6516 24.4769C10.9507 24.5155 10.6393 24.2825 10.6393 23.6598ZM22.5958 12.6944C22.6735 13.0447 22.5958 13.3947 22.2447 13.4341L21.6611 13.5502V22.1045C21.1544 22.3766 20.6871 22.5321 20.2978 22.5321C19.6745 22.5321 19.5184 22.3376 19.0515 21.7547L15.2343 15.7667V21.5602L16.4422 21.8326C16.4422 21.8326 16.4422 22.5321 15.4677 22.5321L12.7811 22.6879C12.7031 22.5321 12.7811 22.1437 13.0536 22.0658L13.7547 21.8717V14.2115L12.7813 14.1335C12.7033 13.7832 12.8977 13.2782 13.4433 13.2389L16.3253 13.0449L20.2978 19.1108V13.7447L19.285 13.6285C19.2073 13.2003 19.5184 12.8893 19.9079 12.8507L22.5958 12.6944Z" fill="#0C2B53"/>
</svg>
